<?xml version="1.0" encoding="utf-8"?>
<!-- Generator: Adobe Illustrator 22.0.1, SVG Export Plug-In . SVG Version: 6.00 Build 0)  -->
<svg version="1.1" id="svg5300" xmlns="http://www.w3.org/2000/svg" xmlns:xlink="http://www.w3.org/1999/xlink" x="0px" y="0px"
	 viewBox="0 0 99.2 99.2" style="enable-background:new 0 0 99.2 99.2;" xml:space="preserve">
<style type="text/css">
	.st0{fill:url(#rect6293_1_);stroke:#000000;stroke-width:0.1468;}
	.st1{fill:url(#rect5141_1_);}
	.st2{fill:url(#path6325_1_);}
	.st3{fill:url(#path5179_1_);}
	.st4{fill:#FDD835;}
	.st5{fill:#263238;}
	.st6{fill:#F49212;}
	.st7{fill:#EF6C00;}
</style>
<g id="layer1" transform="translate(0,-62.362205)">
	<g id="g5259" transform="translate(-143.01646,-25.000001)">
		<g id="g6354">
			
				<radialGradient id="rect6293_1_" cx="345.8219" cy="153.4936" r="48.8137" gradientTransform="matrix(1.0615 0 0 -0.5687 -176.9405 206.0272)" gradientUnits="userSpaceOnUse">
				<stop  offset="0" style="stop-color:#FFEB3B"/>
				<stop  offset="1" style="stop-color:#EF6C00"/>
			</radialGradient>
			<rect id="rect6293" x="140.9" y="86.5" class="st0" width="103.5" height="55.4"/>
			
				<linearGradient id="rect5141_1_" gradientUnits="userSpaceOnUse" x1="347.5802" y1="23.0896" x2="348.2737" y2="-2.5011" gradientTransform="matrix(0.8 0 0 -0.8 -85.8886 166.0236)">
				<stop  offset="0" style="stop-color:#F9A825"/>
				<stop  offset="1" style="stop-color:#FDD835"/>
			</linearGradient>
			<rect id="rect5141" x="140.9" y="140.7" class="st1" width="103.5" height="46.8"/>
			
				<linearGradient id="path6325_1_" gradientUnits="userSpaceOnUse" x1="343.6034" y1="28.0256" x2="343.9143" y2="5.9491" gradientTransform="matrix(0.8 0 0 -0.8 -85.8886 166.0236)">
				<stop  offset="0" style="stop-color:#FAB429"/>
				<stop  offset="1" style="stop-color:#FDD835"/>
			</linearGradient>
			<path id="path6325" class="st2" d="M189,127.6c-11,0-20,6.7-20,15c0,0.4,0,0.8,0.1,1.2c8.9,0,15,0.1,15,0.2
				c0,0.1-6.1,0.2-14.9,0.2c1.5,1.7,2.8,3.3,4.1,4.9c2.9,0,4.8,0.2,4.8,0.3c0,0.1-1.7,0.3-4.3,0.3c1.5,1.7,2.8,3.3,4.8,5.8
				c1.8,0,4.5-0.1,7.2-0.1c5.3,0,9.7,0.1,9.7,0.2c0,0.1-4.3,0.2-9.7,0.2c-2.6,0-5.1,0-7-0.1c4.3,7.2,11.1,7.7,11.1,7.7
				s5.9-1.1,13.3-10.5c-8.8-0.1-14.9-0.2-14.9-0.4c0-0.2,6.6-0.4,15.9-0.4c-0.5-1.1,0.3-2.8,1.5-4.9c-0.5,0-1.1,0-1.6,0
				c-5.3,0-9.7-0.1-9.7-0.2c0-0.1,4.3-0.2,9.7-0.2c0.6,0,1.2,0,1.9,0c0.8-1.3,1.8-2.8,2.8-4.3C208.9,134.3,200,127.6,189,127.6
				L189,127.6z"/>
			
				<linearGradient id="path5179_1_" gradientUnits="userSpaceOnUse" x1="205.5773" y1="99.2231" x2="205.211" y2="68.0877" gradientTransform="matrix(0.8 0 0 -0.8 28.5246 235.9134)">
				<stop  offset="0" style="stop-color:#F57F17"/>
				<stop  offset="1" style="stop-color:#263238"/>
			</linearGradient>
			<path id="path5179" class="st3" d="M175.1,154.1c-1.2,0-2.2,0.4-2.2,0.8c0,0.2,0.2,0.4,0.6,0.6v2.9l-32.7,29.1h51.7h51.7
				l-32.7-29.1v-2.9c0.4-0.2,0.6-0.4,0.6-0.6c0-0.5-1-0.8-2.2-0.8c-1.2,0-2.2,0.4-2.2,0.8c0,0.2,0.2,0.4,0.6,0.6v2.1h-16h-16v-2.1
				c0.4-0.2,0.6-0.4,0.6-0.6C177.3,154.5,176.3,154.1,175.1,154.1z"/>
			<path id="path6295" class="st4" d="M189,110c-5.5,0-10.7,1.7-14.4,4.7c8.8,0.1,14.9,0.2,14.9,0.4c0,0.2-6.6,0.4-15.9,0.4
				c-3,2.7-4.6,6.1-4.6,9.6c0,8.3,8.9,15,20,15c0,0,0,0,0,0c11,0,20-6.7,20-15c0,0,0,0,0,0c0-0.4,0-0.8-0.1-1.2
				c-8.9,0-15-0.1-15-0.2c0-0.1,6.1-0.2,14.9-0.2C207.7,115.7,199.1,110,189,110z"/>
			<g id="g5894" transform="translate(0,260)">
				<path id="path5221" class="st5" d="M140.9-125.7c0,0,0.3-1.2,0.5-1.1c0.3,0.1-0.1,0,0.2-0.1c0.3-0.1-0.2-0.2,0-0.2
					c0.3,0-0.2-0.2,0-0.2c0.2,0-0.2-0.2,0.1-0.3c0.2,0-0.3-0.4,0-0.4c0.2,0-0.2-0.2,0.1-0.3s0.3,0,0.5-0.1c0.2-0.1,0.1,0.4,0.2,0.3
					s-0.2-0.2,0.1-0.3c0.3,0-0.2-0.3,0.1-0.3c0.2,0-0.1-0.3,0-0.3c0.1-0.1-0.8,0.3-0.7,0.1s-0.4-0.2-0.3-0.2c0.1-0.1-0.3-0.2,0-0.2
					c0.3-0.1,0.1-0.4,0.3-0.4c0.2,0-0.1-0.4,0.2-0.5c0.2,0,0.2-0.6,0.4-0.4s0.2-0.1,0.4-0.1c0.2,0,0.1-0.5,0.4-0.3
					c0.3,0.2,0.6-0.5,0.8-0.4s0.7-0.3,0.8-0.2c0.2,0.1,0.1-0.6,0.3-0.4c0.2,0.2,0.6-0.4,0.7,0.1s0.8,0.4,0.8,0.5s0.8-0.2,0.6,0.1
					s1,0.4,0.8,0.5c-0.2,0.2,0.4-0.1,0.3,0.2c-0.1,0.3,0.2,0.3,0.2,0.3c0,0.1-0.1,0.2-0.2,0.3c-0.1,0.1-0.1,0.2,0,0.2
					c0.1,0,0.5-0.3,0.6-0.1c0.1,0.3,0.7-0.1,0.5,0.2c-0.3,0.4,0.4-0.1,0.3,0.3c0,0.4,0.3,0.1-0.1,0.4c-0.4,0.3-0.3,0.5,0,0.5
					s0.6-0.1,0.7-0.4s0.1-0.3,0.3-0.6c0.1-0.3-0.4-0.5-0.1-0.5c0.3,0,0-0.3,0.2-0.3c0.3,0-0.5,0,0-0.2c0.5-0.2,0-0.1,0.4-0.4
					s0.6-0.2,0.8,0.1s-0.6,0.7,0,0.7s0.6-0.1,0.6-0.3c-0.1-0.2-0.2-0.5-0.1-0.7c0.1-0.3-0.4-0.2-0.2-0.4c0.2-0.2-0.5-0.2-0.2-0.3
					c0.3-0.1-0.1-0.1,0.3-0.2c0.4,0-0.1-0.4,0.4-0.4c0.4,0,0.3-0.2,0.4-0.2c0.1,0,0.3-0.5,0.6-0.5c0.4,0.1,1.2-0.1,1.2-0.1
					s1,0.1,0.9,0.6c-0.1,0.5,0.1,0,0.3,0s0.1,0,0.3,0.1c0.2,0.1,0.3,0,0.3,0.3s0.4,0.3,0.4,0.5c0,0.2,0.5,0,0.5,0.3s1,0.2,0.6,0.5
					c-0.4,0.2,0,0.3-0.1,0.4c0,0.1,0.6,0.1,0.3,0.4c-0.3,0.3,0.4,0.3,0.4,0.3s0.4,0.3,0.3,0.4c-0.1,0.1,1.1,0.5,0.8,0.7
					s-1.3,1.2-1.3,1.4c0,0.2,0.7-0.2,1.1-0.4c0.4-0.2-0.2-0.6,0.2-0.6s0.1-0.4,0.5-0.6s0-0.3,0.2-0.3s-0.5-0.4-0.2-0.5
					s-0.1-0.3,0.1-0.4c0.3-0.1-0.1-0.4,0.1-0.5c0.3-0.2,0.2-0.3,0.4-0.4c0.2-0.1-0.1-0.1,0.1-0.3c0.3-0.1-0.3-0.5,0-0.5
					c0.3,0,0.5-0.2,0.7-0.4c0.2-0.2-0.4-0.5,0.1-0.5c0.5,0,0.6-0.3,0.9-0.1s0.5-0.5,0.8-0.3c0.3,0.2,1-0.5,1.2-0.1
					c0.3,0.4,0.8,0.2,0.6,0.6s0.1-0.8,0.7-0.9c0.6-0.1,0.7-0.1,1.3-0.6s-0.3-0.6,0-0.5s1-0.4,1.2-0.2s0.6-0.1,0.8,0
					c0.2,0.1,0.1-0.6,0.3-0.6c0.3,0-0.1-1,0.4-0.8s1.2-0.8,1.7-0.6s0.9-0.5,1.1-0.2c0.1,0.3,0.6-0.4,0.9-0.1s1.9-0.6,1.8,0.5
					s0.4,0.9,0.6,1.1c0.2,0.2,0.8-0.1,0.8,0.3c0.1,0.3,0.6-0.1,0.7,0.4c0.1,0.5,0.8,0.3,0.8,1s0.4,0.3,0.3,0.8
					c-0.1,0.4,0.8,0.7,0.5,1c-0.3,0.3,0.5,0.6,0.4,0.8c-0.1,0.1,0.1,1,0,1.2s1.1,0.9,0.2,1.1c-0.8,0.3-0.8,0.3-1.7,0.6
					c-0.9,0.4-1.1-0.4-1.4,0.2c-0.2,0.5-0.2,1.2-0.8,1.6c-0.6,0.4,0.7,1,1.8,0.4c1.1-0.6,0.8-1.4,1.6-1.2c0.7,0.2,2.1-1.9,2.1-1.9
					s-0.7-0.4-0.2-0.4c0.5,0-0.2-0.7,0.1-0.7s0-0.3,0.2-0.3s-0.1-0.3,0.1-0.3c0.2-0.1,0.2-0.4,0.3-0.4c0.1-0.1,0-0.2,0.3-0.4
					c0.3-0.2,0.3-0.6,0.3-0.6s-0.1-0.5,0.3-0.3c0.5,0.2,1-0.7,1.5-0.1c0.4,0.6,1-0.4,1.1,0.1c0.1,0.5,0.9,0.1,1,0.3
					c0.2,0.1,0.8-0.3,1.2,0c0.3,0.3,1,0.1,1.1,0.3c0.1,0.2,0.8,0,1.2-0.1c0.4-0.1-0.2-0.4,0.2-0.4c0.4,0,0.5-0.5,0.8-0.4
					c0.3,0.1,0.2-0.9,0.9-0.1c0.7,0.8,1.3,0.1,1.5,0.4c0.2,0.3,0.7,0,1,0.7c0.3,0.7,2.5,1.9,1.5,2.3s-1.6,0.1-1.7,0.6
					c-0.1,0.5,0.7,0.3,0.5,0.9c-0.2,0.6,0,0-0.5,0.8s0,0.6-0.1,1c-0.2,0.5,0.5,1.6-0.2,1.9c-0.7,0.3-0.7,0.9-0.5,1.4
					s-0.1-0.1,1.4-1.4c1.5-1.3,0.7-1.5,1.5-1.9s0.3-1.2,0.8-1.2c0.5,0,0.5-1.4,1.2-1.4c0.7,0,1.5-0.1,0.7-0.6
					c-0.7-0.5-0.5,0.7,1.1-0.4c1.6-1,0.7-2,1.7-1c1,1,1.1,0,1.9,0.4c0.8,0.4,0.3-0.6,1.6,0.3c1.3,0.9,2,0.6,1.4,1.4
					c-0.6,0.8,2.5,0.6,2.8,0.8c0.3,0.2,1.5,0.8,1.5,0.8s2.5,1.2,1.2,1.6s-2.7,0.9-1.4,1.7c1.2,0.8-1.6,0.7-1.6,0.7l-1.2,5.1h-66.9
					L140.9-125.7z"/>
				<path id="path5223" class="st5" d="M244.4-125.8c0,0-0.6-1.1-0.9-1s0.1,0-0.2-0.1c-0.3-0.1,0.2-0.2,0-0.2c-0.3,0,0.2-0.2,0-0.2
					c-0.2,0,0.2-0.2-0.1-0.3c-0.2,0,0.2,0.1,0,0c-0.2,0,0.2-0.2-0.1-0.3c-0.3-0.1-0.1,0-0.3,0c-0.2-0.1-0.3,0.4-0.4,0.3
					c-0.1-0.1,0.2-0.2-0.1-0.3c-0.3,0,0,0-0.2-0.1c-1.4-0.3-0.4-1.1-0.2-1.1c0.2,0,0.3,1.1,1.1,0.7c0.2-0.1,0.4-0.2,0.3-0.2
					c-0.1-0.1,0.3-0.2,0-0.2c-0.3-0.1-0.1-0.4-0.3-0.4c-0.2,0,0.7-0.9,0.4-1c-0.2,0-0.2-0.6-0.4-0.4s-0.2-0.1-0.4-0.1
					c-0.2,0-0.1-0.5-0.4-0.3c-0.3,0.2-1.2-0.4-1.4-0.4s-0.7-0.3-0.8-0.2c-0.2,0.1-0.1-0.6-0.3-0.4c-0.2,0.2-0.6-0.4-0.7,0.1
					c-0.1,0.4-0.8,0.4-0.8,0.5c0,0.1-0.8-0.2-0.6,0.1s-0.9-0.1-0.8,0.1c0.2,0.2-0.4-0.1-0.3,0.2c0.1,0.3-0.2,0.3-0.2,0.3
					c0,0.1,0.1,0.2,0.2,0.3c0.1,0.1,0.1,0.2,0,0.2c-0.1,0-0.5-0.3-0.6-0.1c-0.1,0.3-0.8,0.3-0.5,0.7c0.3,0.4-0.4-0.1-0.3,0.3
					s-0.3,0.1,0.1,0.4c0.4,0.3,0.3,0.5,0,0.5c-0.3,0-0.6-0.1-0.7-0.4s-0.1-0.3-0.3-0.6c-0.1-0.3,0.4-1,0.1-1c-0.3,0,0-0.3-0.2-0.3
					c-0.3,0,0.4-0.1-0.1-0.3c-0.5-0.2,0,0-0.3-0.3s-0.6-0.2-0.8,0.1c0.9,0.8-0.2,0.6-0.1,0.4c0.1-0.2-0.3,0-0.4-0.2
					c-0.1-0.3,0.4-0.2,0.2-0.4c-0.2-0.2,0.5-0.2,0.2-0.3s0.1-0.1-0.3-0.2c-0.4,0,0.1-0.4-0.4-0.4c-0.4,0-0.3-0.2-0.4-0.2
					c-0.1,0-0.3,0.2-0.6,0.2c-0.4,0.1-1.4-0.6-1.4-0.6s-1,0.1-0.9,0.6c0.1,0.5-0.1,0-0.3,0s-0.1,0-0.3,0.1c-0.2,0.1-0.3,0-0.3,0.3
					c0,0.3-0.2,0.1-0.1,0.3c0,0.2-0.5,0-0.5,0.3c0,0.2-1,0.2-0.6,0.5c0.4,0.2,0,0.3,0.1,0.4c0,0.1-0.6,0.1-0.3,0.4
					c0.3,0.3-0.4,0.3-0.4,0.3s-0.4,0.3-0.3,0.4c0.1,0.1-1.1,0.5-0.8,0.7s1.3,1.2,1.3,1.4c0,0.2-0.7-0.2-1.1-0.4
					c-0.4-0.2,0.2-0.6-0.2-0.6c-0.4,0-0.1-0.4-0.5-0.6c-0.4-0.1,0-0.3-0.2-0.3s0.5-0.4,0.2-0.5c-0.3-0.1,0.1-0.3-0.1-0.4
					s0.1-0.4-0.1-0.5c-0.3-0.2-0.2-0.3-0.4-0.4c-0.2-0.1,0.1-0.1-0.1-0.3c-0.3-0.1,0.3-0.5,0-0.5s-0.5-0.2-0.7-0.4
					c-0.2-0.2,0.4-0.5-0.1-0.5s-0.6-0.3-0.9-0.1c-0.4,0.3-0.5-0.5-0.8-0.3c-0.3,0.2-1-0.5-1.2-0.1c-0.3,0.4-0.8,0.2-0.6,0.6
					c0.2,0.4-0.1-0.8-0.7-0.9s-0.7-0.1-1.3-0.6s0.3-0.6,0-0.5c-0.4,0.1-1-0.4-1.2-0.2c-0.2,0.3-0.6-0.1-0.8,0s-0.1-0.6-0.3-0.6
					c-0.3,0,0.1-1-0.4-0.8c-0.5,0.3-1.2,1-1.6,1.2s-0.9-0.5-1.1-0.2c-0.1,0.3-0.6-0.4-0.9-0.1c-0.3,0.3-1.9-0.6-1.8,0.5
					c0.1,1.1-0.4,0.9-0.6,1.1c-0.2,0.2-0.8-1.9-0.9-1.6c-0.1,0.3-0.6-0.1-0.7,0.4s-0.8,0.3-0.8,1c0,0.6-0.4,0.3-0.3,0.8
					c0.1,0.4-0.8,0.7-0.5,1c0.3,0.3-0.5,0.6-0.4,0.8c0.1,0.1-0.1,1,0,1.2c0.1,0.3-1.1,0.9-0.2,1.1s0.8,0.3,1.7,0.6s1.1-0.4,1.4,0.2
					c0.2,0.5,0.2,1.2,0.8,1.6c0.6,0.4-0.7,1-1.8,0.4c-1.1-0.6-0.8-1.4-1.6-1.2c-0.7,0.2-2.1-1.9-2.1-1.9s0.7-0.4,0.2-0.4
					s0.2-0.7-0.1-0.7s0-0.3-0.2-0.3c-0.2,0,0.1-0.3-0.1-0.3c-0.2-0.1-0.2-0.4-0.3-0.4c-0.1-0.1,0.4-1.4,0.1-1.6
					c-0.3-0.2-0.3-0.6-0.3-0.6s0.1-0.5-0.3-0.3c-0.5,0.2-1-0.7-1.5-0.1c-0.4,0.6-1-0.4-1.1,0.1s-2,0.6-2.2,0.7
					c-0.2,0.1,0,0.5-0.3,0.8c-0.3,0.3-1.1,1-1.2,1.2c-0.1,0.2-0.8-1-1.1-1c-0.4-0.1,0.2-0.4-0.2-0.4c-0.4,0-0.5-0.5-0.8-0.4
					c-0.3,0.1-0.2-2.1-0.9-1.3c-0.7,0.8-1.2,1.2-1.4,1.6s-0.7,0-1,0.7c-0.3,0.7-2.5,1.9-1.5,2.3s1.6,0.1,1.7,0.6
					c0.1,0.5-0.7,0.3-0.5,0.9c0.2,0.6,0,0,0.5,0.8c0.5,0.8,0,0.6,0.1,1s-0.5,1.6,0.2,1.9s0.7,0.9,0.5,1.4c-0.1,0.5,0.1-0.1-1.4-1.4
					c-1.5-1.3-0.7-1.5-1.5-1.9c-0.8-0.4-0.3-1.2-0.8-1.2c-0.5,0-0.5-1.4-1.2-1.4s-1.5-0.1-0.7-0.6c0.7-0.5,0.5,0.7-1.1-0.4
					s-0.7-2-1.7-1c-1,1-1.1,0-1.9,0.4c-0.8,0.4-0.3-0.6-1.6,0.3c-1.3,0.9-2,0.6-1.4,1.4c0.6,0.8-2.5,0.6-2.8,0.8
					c-0.3,0.2-1.5,0.8-1.5,0.8s-2.5,1.2-1.2,1.6s2.7,0.9,1.4,1.7c-1.2,0.8,1.6,0.7,1.6,0.7l1.2,5.1l67.2,0V-125.8z"/>
			</g>
			<ellipse id="path6315" class="st6" cx="167.5" cy="120.6" rx="14" ry="0.4"/>
			<ellipse id="ellipse6317" class="st7" cx="207.9" cy="116.8" rx="9.7" ry="0.2"/>
		</g>
	</g>
</g>
</svg>
