<?xml version="1.0" encoding="utf-8"?>
<!-- Generator: Adobe Illustrator 22.0.1, SVG Export Plug-In . SVG Version: 6.00 Build 0)  -->
<svg version="1.1" id="Laag_1" xmlns="http://www.w3.org/2000/svg" xmlns:xlink="http://www.w3.org/1999/xlink" x="0px" y="0px"
	 viewBox="0 0 99.2 99.2" style="enable-background:new 0 0 99.2 99.2;" xml:space="preserve">
<style type="text/css">
	.st0{fill:#EFD905;stroke:#000000;stroke-width:1.745680e-02;stroke-miterlimit:10;}
	.st1{stroke:#000000;stroke-width:1.745680e-02;stroke-miterlimit:10;}
	.st2{fill:#C6902C;stroke:#000000;stroke-width:1.745680e-02;stroke-miterlimit:10;}
	.st3{fill:#00C200;stroke:#000000;stroke-width:1.745680e-02;stroke-miterlimit:10;}
	.st4{fill:#F2C802;stroke:#000000;stroke-width:1.745680e-02;stroke-miterlimit:10;}
	.st5{fill:#FF0000;stroke:#000000;stroke-width:1.745680e-02;stroke-miterlimit:10;}
	.st6{fill:#80FF00;stroke:#000000;stroke-width:1.745680e-02;stroke-miterlimit:10;}
	.st7{fill:#804000;stroke:#000000;stroke-width:1.745680e-02;stroke-miterlimit:10;}
	.st8{fill:#FFE42E;stroke:#000000;stroke-width:1.745680e-02;stroke-miterlimit:10;}
	.st9{fill:#FFD028;stroke:#000000;stroke-width:1.745680e-02;stroke-miterlimit:10;}
</style>
<rect x="-9.2" y="-3.6" class="st0" width="118" height="115"/>
<path class="st1" d="M88.3,35.8c0.6-3,0.4-5.9-0.6-8.9c-1-3-2.4-6.2-5.7-9c-3.4-2.8-9.3-5.8-14.4-7.6c-5.2-1.7-10.4-2.5-16.3-2.7
	c-6.1-0.3-13.4,0-19.3,1.6c-6,1.7-12.2,5-16.1,8.2c-4,3.1-6.4,7-7.4,10.7c-1,3.8-0.7,7.5,1.1,11.5c-0.2,1.5-0.9,2.3-2.2,2.5
	c-1.4,0.1-4.7-1.7-5.7-1.4c-0.9,0.3-0.5,2.6,0.2,3.3c0.6,0.7,1.7,1,3.5,0.9c-1.2,0.7-1.9,1.3-1.9,1.9c-0.1,0.6,0.5,1.2,1.6,1.7
	l-3.4,4.5l0.2,2.4c1.1-0.1,2.1-0.2,3.3,0c1.2,0.1,2.4,0.4,3.7,0.8c-1,1.4-1.7,2.8-1.9,4.1c-0.2,1.3,0,2.5,0.7,3.8
	c-0.3,3.1,0.1,5.8,1.1,8.3c0.9,2.4,1.3,3.8,4.7,6.3c3.4,2.5,9.5,6.5,15.6,8.7c6,2.2,12.7,4.3,20.5,4c7.8-0.5,19.7-2.8,25.9-6.5
	c6-3.7,9.3-8.7,10-15.4l1.8-1c1.1-1.7,1.7-3.4,1.9-5.2c0.2-1.8-0.1-3.5-0.9-5.4c0.1-1,0.2-2.1,0.2-3.5c0-1.4-0.1-3-0.3-4.8
	c0.9,0.1,2,0.3,3.1,0.7c1.1,0.4,2.3,2.2,3.4,1.8c1.2-0.5,3.3-2.1,3.4-4.3c0-2.1-1.7-6.2-3.3-8.3C93.1,37.7,91,36.4,88.3,35.8
	L88.3,35.8z"/>
<path class="st2" d="M86.9,37.2c-1,3.9-3.5,7-7.9,9.4c-4.5,2.4-11.4,4.1-18.4,4.8c-7.1,0.6-15.9,0.1-23.1-0.8
	c-7.1-0.9-14.6-2-19.4-4.5c-4.9-2.5-8.2-6.3-9.3-10.3c-1-4,0.2-9.3,3.3-13.3c3.1-4.1,9.7-8.4,15.2-10.7c5.5-2.3,11.8-2.7,17.2-3
	c5.2-0.4,9.2-0.1,14,0.7c4.8,0.8,10.2,1.9,14.6,4.2c4.4,2.3,9,5.7,11.4,9.7C86.8,27.3,87.8,33.2,86.9,37.2L86.9,37.2z"/>
<path class="st3" d="M88.4,36.7c1.7,0.4,3.1,1.3,4.5,2.8c1.3,1.4,3,4,3.4,5.9c0.4,1.9-0.3,4.7-0.8,5.5c-0.6,0.7-1.5-0.4-2.9-0.9
	c-1.5-0.6-4-1.6-6-2.1c-2.1-0.5-4.1-0.9-6.2-1c1.6-0.4,3-1.4,4.4-3.1C86.1,42,87.3,39.7,88.4,36.7z"/>
<path class="st4" d="M75,57.7c-1.5,0.5-2.7,1.6-3.7,3.7c-1,2.1-1.8,4.7-2.3,8.4c-0.2-0.7-1.4-1.6-3.6-2.8c-2.2-1.2-5.3-2.6-9.4-4.4
	c0.4-0.7,0.9-1.1,1.7-1.2c0.8-0.1,2,0.7,2.7,0.5c0.8-0.3,1.3-0.9,1.8-1.9c0.7,0.8,1.4,1.2,2.2,1c0.7-0.1,1.6-1.7,2.3-1.7
	c0.7-0.1,1.3,0.4,1.8,1.4c0.4-1.8,1.1-2.9,2.2-3.4C71.8,56.7,73.2,56.9,75,57.7L75,57.7z"/>
<path class="st4" d="M55.7,63c1.6,0.6,3,1.3,4.3,1.9c1.3,0.5,2.1,0.8,3.6,1.7c1.5,0.8,3.3,2,5.4,3.4l-0.3,1.8
	c-2.1-1.6-4.2-3-6.4-4.2c-2.3-1.3-4.6-2.3-7.1-3.1C55.3,64,55.5,63.5,55.7,63L55.7,63z"/>
<path class="st4" d="M2.3,53.1l3.1-3.4c1.3,1,2.3,1.5,3.2,1.6c0.8,0.1,1.4-1,2.1-1c0.7,0,1.1,1.3,2,1.2c0.8-0.2,2.3-2.2,2.9-2.1
	c0.5,0.1,0.7,1.1,0.4,2.8c0.3,0.7,0.5,1.2,0.6,1.7c0.1,0.5,0.1,0.8-0.1,1.1c-1.8-0.7-3.9-1.1-6.2-1.4c-2.4-0.3-5-0.5-7.9-0.4
	C2.5,53.3,2.3,53.1,2.3,53.1z"/>
<path class="st4" d="M17.1,55.9c-1.3-0.6-3.2-1-5.7-1.4c-2.5-0.4-5.6-0.7-9.4-0.9l0.3,1.1c1.3,0.1,2.8,0.3,4.4,0.6
	c1.6,0.2,3.3,0.5,5.1,1c1.8,0.4,3.6,0.9,5.5,1.6C17.3,57.2,17.3,56.5,17.1,55.9z"/>
<path class="st3" d="M17.2,47.3c-0.3,1.4-0.2,2.8,0,4.5c0.2,1.6,0.6,3.5,1.2,5.1c0.6,1.5,0.7,3,2.6,4c1.8,0.9,5.7,3.1,8.4,1.5
	c2.7-1.6,5.3-5.3,7.8-11.1c-2.8-0.2-5.8-0.6-9.2-1.2C24.6,49.4,21.1,48.5,17.2,47.3z"/>
<path class="st5" d="M10.1,56.8c1.5,0.1,2.8,0.4,4.2,0.8c1.4,0.3,2.6,0.8,3.8,1.3c0.2,1.1,0.8,2.1,1.9,2.9c1,0.8,2.9,1.5,4.3,1.9
	c1.4,0.3,2.7,0.7,4.3,0.2c1.5-0.6,3.1-1.8,4.8-3.6c1.1,0.1,2.3,0.1,3.5,0c1.2-0.1,2.4-0.4,3.7-0.7c-0.5,1.3-0.3,2.1,0.6,2.4
	c0.9,0.3,2.5,0.2,4.8-0.3l-0.6,4c-2.6,1.4-5.6,2.3-9.2,2.7c-3.6,0.4-7.6,1.4-12-0.4C19.9,65.9,15.2,62.3,10.1,56.8z"/>
<path class="st5" d="M50,64.2c1.1,1.3,2.8,2.5,5.2,3.4c2.4,0.9,5.4,1.6,9.1,2.1c-2.2-1-4.2-2-6-2.9c-1.8-0.9-3.3-1.7-4.7-2.4
	l-2.1-3.1L50,64.2z"/>
<path class="st6" d="M55.3,59.6c-0.7-2.5-1.3-5-2-7.5c-3.7,0.1-6.7,0.1-9.3,0.1c-2.5-0.1-4.5-0.2-5.9-0.5c-1.7,2.8-2.7,4.8-3.1,6.1
	c-0.4,1.3,0.1,1.3,0.8,1.5c0.7,0.2,2.1-0.1,3.4-0.4c1.2-0.3,2.5-0.7,4-1.3c-1.2,1.1-1.7,1.9-1.8,2.5c-0.1,0.5,0.5,0.7,1.4,0.8
	c0.9,0.1,2.3,0,4.1-0.2c-0.3,1.6-0.3,2.7,0,3.3c0.3,0.6,0.9,1.3,1.6,0.5c0.6-0.9,1.4-2.8,2.3-5.8c1.6,2.2,2.8,3.4,3.5,3.5
	C55.1,62.5,55.4,61.6,55.3,59.6L55.3,59.6z"/>
<path class="st5" d="M70.8,68c1.2-0.3,2.4-0.8,4-1.5c1.5-0.7,3.1-1.5,4.9-2.5c-0.7-2.7-1.2-4.2-1.6-4.7c-0.5-0.5-0.6,1.8-1,1.6
	c-0.4-0.2-0.9-1.1-1.5-2.7c-1.5,1-2.5,2.3-3.3,3.9C71.4,63.8,70.9,65.7,70.8,68z"/>
<path class="st5" d="M87.3,51.3l-2.7,2.6c0,1.5,0.3,2.7,0.5,3.7c0.3,1,0.6,1.7,1.2,2.3l1.4-1.6C87.6,56,87.5,53.6,87.3,51.3z"/>
<path class="st5" d="M85.2,60.6c-0.2-0.8-0.7-1.2-1.4-1.2C83,59.4,81.3,60,81,60.6c-0.3,0.6-0.2,1.3,0.6,2.3
	c0.9-0.5,1.6-0.8,2.3-1.2C84.5,61.2,84.9,60.9,85.2,60.6L85.2,60.6z"/>
<path class="st7" d="M9.1,57.6c-1,1.5-1.3,3-1,4.6c0.4,1.6,1.7,3.2,3.2,4.9c1.4,1.6,1.7,2.6,5.2,4.8c3.5,2.2,8.9,6.3,15.7,8.2
	c6.8,1.9,17.5,3.5,24.6,3.1c7.1-0.5,12.6-3,17.7-5.6c5-2.7,8.9-6.1,11.9-10.4c1.3-2.2,2-3.9,2.1-5c0.1-1.2-0.2-2.3-1.7-1.6
	c-1.7,0.7-5.1,4-7.9,5.7c-2.7,1.6-5.5,2.7-8.3,3.6l-1.3,3.3l-4-2.2c-1.6,0.4-3.6,0.1-6.2-0.7c-2.7-0.9-5.7-2.2-9.4-4.2
	c-3.2,1.5-6.7,2.5-10.3,3.2c-3.8,0.6-8,1.4-11.7,0.7c-3.8-0.8-7.1-2.9-10.3-5C14.3,62.8,11.6,60.4,9.1,57.6L9.1,57.6z"/>
<path class="st1" d="M32,72.5c0.3,0.3,10.2,2.7,15.6,3c5.4,0.2,14.1-1.2,16.2-1.6c1.9-0.4-1.4-1-4.4-1c-3-0.1-8.6,0.9-13.2,0.8
	C41.6,73.7,31.8,72.2,32,72.5L32,72.5z"/>
<path class="st2" d="M9.3,65.6c1.8,2.7,4.3,5.3,7.4,7.8c3.1,2.4,6.8,5.1,11.3,6.9c4.6,1.7,10,2.9,15.7,3.6
	c5.6,0.6,12.4,1.1,17.8,0.2c5.3-1,10-3.5,13.8-5.8c3.9-2.2,6.8-4.7,9.1-7.5c0.2,2.2-0.6,4.4-2.4,6.7c-1.9,2.3-4.8,5-8.3,7
	c-3.6,1.9-7.5,3.5-12.8,4.3c-5.4,0.8-12.7,1.8-19.1,0.9c-6.4-1-14.1-3.7-19.1-6.2C17.5,81,14,78,11.7,75C9.5,72,8.7,68.9,9.3,65.6
	L9.3,65.6z"/>
<path class="st6" d="M54.5,52.7c0.6,2.5,1.2,4.3,1.9,5.7c0.7,1.3,1.5,1.8,2.3,2.1c0.8,0.2,1.5,0.1,2.1-0.3c0.5-0.3,0.7-0.9,0.8-1.6
	c0.9,0.6,1.5,0.9,2.2,0.8c0.6-0.1,0.8-1,1.5-1.2c0.7-0.2,1.7-0.1,3,0.1c0.3-1.6,1-2.6,2.2-3c1.2-0.4,3.9,0,5,0.6
	c1,0.5,0.7,2.3,1.2,2.7c0.4,0.2,0.9-1.6,1.5-0.9c0.6,0.8,1.7,4.9,2.1,5.5c0.3,0.5-0.1-1.4-0.1-2.2c0.1-0.9-0.1-2.5,0.3-2.9
	c0.4-0.4,1.3,0.2,2,0.3c0.6,0.1,1.2,0.1,1.8,0.1c-0.6-1.3-1-2.3-0.9-3.4c0-1,0.3-1.8,1-2.7c0.7-1,1.6-2,3-3.2l-7.9-1.5
	c-1.7,1-4,1.8-7,2.6c-3,0.8-7.8,1.8-10.8,2.2C58.7,53,56.3,53,54.5,52.7L54.5,52.7z"/>
<path class="st6" d="M10.5,40.5c0.1,1-0.2,1.8-0.9,2.2c-0.7,0.4-2.1,0.3-3.3,0.2C5,42.7,2.6,41.8,2.1,42c-0.4,0.1,0.7,1.5,1.6,1.9
	c0.8,0.4,1.8,0.7,3.1,0.7c-1,1.1-1.5,2.1-1.4,2.9c0,0.8,0.8,1.6,1.6,1.9c0.7,0.2,1.7-0.3,2.6-0.2c0.7,0.1,1.1,1,2.2,0.7
	c1.2-0.4,2.6-1.4,4.6-3.1c-0.7-0.3-1.5-1-2.5-2C12.9,43.7,11.8,42.3,10.5,40.5z"/>
<path class="st1" d="M22.9,49.9c-0.1-0.1-0.8-0.3-0.9-0.2c-0.1,0.1,0.1,0.4,0.3,0.5C22.5,50.1,22.9,49.9,22.9,49.9z"/>
<path class="st1" d="M23.2,51.6c-0.1-0.1-0.8-0.3-0.9-0.2c-0.1,0.1,0.1,0.4,0.3,0.5C22.7,51.9,23.2,51.7,23.2,51.6z"/>
<path class="st1" d="M23.2,55.1c-0.1-0.1-0.8-0.3-0.9-0.2c-0.1,0.1,0.1,0.4,0.3,0.5C22.7,55.4,23.2,55.1,23.2,55.1z"/>
<path class="st1" d="M23,53.4c-0.1-0.1-0.8-0.3-0.9-0.2c-0.1,0.1,0.1,0.4,0.3,0.5C22.5,53.7,23,53.4,23,53.4z"/>
<path class="st1" d="M23.6,57.1c-0.1-0.1-0.8-0.3-0.9-0.2c-0.1,0,0.1,0.4,0.3,0.5C23.2,57.4,23.7,57.2,23.6,57.1z"/>
<path class="st1" d="M23.9,59c-0.1-0.1-0.8-0.3-0.9-0.2c-0.1,0.1,0.1,0.4,0.3,0.5C23.5,59.3,24,59.1,23.9,59z"/>
<path class="st1" d="M26.1,59.5c0.1-0.1,0.8-0.2,0.9-0.1c0.1,0.1-0.3,0.4-0.4,0.5C26.4,59.9,26,59.6,26.1,59.5z"/>
<path class="st1" d="M26.8,57.5c0.1-0.1,0.8-0.2,0.9-0.1c0.1,0.1-0.3,0.4-0.4,0.5C27.1,57.8,26.7,57.5,26.8,57.5z"/>
<path class="st1" d="M27.4,55.6c0.1-0.1,0.8-0.2,0.9-0.1c0.1,0.1-0.3,0.4-0.4,0.5C27.7,55.9,27.3,55.6,27.4,55.6z"/>
<path class="st1" d="M28.2,53.9c0-0.1,0.8-0.2,0.9-0.1c0.1,0.1-0.2,0.4-0.4,0.5C28.5,54.2,28.1,54,28.2,53.9z"/>
<path class="st1" d="M28.7,52.1c0.1-0.1,0.8-0.2,0.9-0.1c0.1,0.1-0.3,0.4-0.4,0.5C29,52.4,28.6,52.2,28.7,52.1z"/>
<path class="st1" d="M86.7,45.3c0.1-0.1,0.3-0.8,0.3-0.9c-0.1-0.1-0.5,0.1-0.5,0.3C86.4,44.8,86.6,45.3,86.7,45.3L86.7,45.3z"/>
<path class="st1" d="M88.9,46.3c0.1-0.1,0.3-0.8,0.3-0.9c-0.1-0.1-0.5,0.1-0.5,0.3C88.6,45.8,88.8,46.3,88.9,46.3L88.9,46.3z"/>
<path class="st1" d="M91.1,47.4c0.1,0,0.3-0.8,0.3-0.9c-0.1-0.1-0.5,0.1-0.5,0.3C90.8,46.9,91,47.4,91.1,47.4L91.1,47.4z"/>
<path class="st1" d="M93.7,48.1c0.1-0.1,0.3-0.8,0.3-0.9c-0.1-0.1-0.5,0.1-0.5,0.3C93.4,47.6,93.6,48.1,93.7,48.1L93.7,48.1z"/>
<path class="st1" d="M92.8,44.9c0.1,0,0.3-0.8,0.3-0.9c-0.1-0.1-0.5,0.1-0.5,0.3C92.5,44.4,92.7,44.9,92.8,44.9L92.8,44.9z"/>
<path class="st1" d="M91.2,42.8c0.1-0.1,0.3-0.8,0.3-0.9c-0.1-0.1-0.5,0.1-0.6,0.3C90.8,42.3,91.1,42.8,91.2,42.8L91.2,42.8z"/>
<path class="st1" d="M88.7,41.1c0.1-0.1,0.3-0.8,0.3-0.9c-0.1-0.1-0.5,0.1-0.6,0.3C88.4,40.7,88.6,41.2,88.7,41.1L88.7,41.1z"/>
<path class="st1" d="M77,50.2c0-0.1,1.7,0.5,2.5,1.4c0.8,1,2.2,3.9,2.4,4.6c0.1,0.5-0.8-0.5-1.2-1.2c-0.5-0.8-0.9-2.4-1.5-3.2
	C78.5,50.9,76.9,50.2,77,50.2L77,50.2z"/>
<path class="st1" d="M61.9,53.3c-0.2-0.1,0,1.3-0.5,2c-0.4,0.7-2.2,1.8-2.1,1.9c0,0.1,1.5-1,2.1-1.2c0.5-0.2,0.4,0.1,0.9,0.2
	c0.4,0.2,2,0.9,2,0.8c0-0.1-1.6-0.8-2-1.4C61.9,55.1,62,53.3,61.9,53.3z"/>
<path class="st1" d="M47.1,53.5c-0.2,0.7-0.3,1.4-0.5,2c-0.2,0.6,0.4,1.3-0.2,2c-0.6,0.7-3.4,2.1-3.3,2.1c0.1,0.1,2.7-1.6,3.5-1.4
	c0.7,0.2,0.8,2.6,0.9,2.6c0.2-0.1-0.5-1.5,0.6-2.4s2.3-1,2.3-1c-1,0-1.8-0.2-2.3-0.9C47.4,55.8,47.1,54.8,47.1,53.5z"/>
<path class="st1" d="M25.4,30.8c-0.3,0.1-0.7,0.1-1,0.4c-0.4,0.2-1.1,0.8-1.1,1.2c0,0.4,0.4,1.1,0.8,1.2c0.3,0,0.8-0.4,1.2-0.9
	c0.3-0.5,0.8-1.5,0.9-1.9C26.1,30.6,25.6,30.7,25.4,30.8z"/>
<path class="st8" d="M25.2,31.1c-0.2,0-0.5,0.1-0.8,0.3c-0.3,0.2-0.9,0.7-1,1c-0.1,0.3,0.3,0.8,0.6,0.9c0.2,0,0.7-0.4,1-0.8
	c0.3-0.4,0.6-1.1,0.6-1.4C25.7,31,25.4,31,25.2,31.1z"/>
<path class="st1" d="M40.2,36c0.1,0.2,0.1,0.6,0.5,1c0.3,0.3,0.8,1,1.3,1c0.4,0,1-0.6,1.1-0.9c0-0.4-0.5-0.8-1-1.1
	c-0.6-0.4-1.6-0.7-1.9-0.7C39.8,35.3,40,35.7,40.2,36z"/>
<path class="st8" d="M40.5,36.2c0,0.2,0.1,0.4,0.4,0.8c0.3,0.3,0.8,0.8,1.1,0.9c0.3,0,0.8-0.4,0.8-0.7c0-0.3-0.5-0.7-0.9-0.9
	c-0.4-0.3-1.2-0.5-1.4-0.5C40.3,35.6,40.4,36,40.5,36.2L40.5,36.2z"/>
<path class="st1" d="M53,25.3c-0.3,0-0.7,0.1-1,0.4c-0.4,0.3-1.1,0.8-1.1,1.2c0,0.4,0.4,1.1,0.8,1.2c0.3,0,0.8-0.4,1.2-0.9
	c0.3-0.5,0.8-1.5,0.9-1.9C53.7,25,53.3,25.2,53,25.3z"/>
<path class="st9" d="M52.8,25.6c-0.2,0-0.5,0.1-0.8,0.3c-0.3,0.2-0.9,0.7-1,1c-0.1,0.3,0.3,0.8,0.6,0.9c0.2,0,0.7-0.4,1-0.8
	c0.3-0.4,0.6-1.2,0.6-1.4C53.3,25.4,53.1,25.5,52.8,25.6z"/>
<path class="st1" d="M48,18.8c-0.2,0.3-0.4,0.5-0.4,1c-0.1,0.5-0.2,1.3,0.1,1.6c0.3,0.3,1.1,0.4,1.4,0.2c0.2-0.2,0.2-0.9,0.2-1.5
	c-0.1-0.6-0.6-1.6-0.8-1.9C48.3,18.1,48.1,18.5,48,18.8z"/>
<path class="st8" d="M48.1,19.2c-0.1,0.1-0.3,0.4-0.3,0.8c-0.1,0.4-0.1,1.1,0.1,1.4c0.2,0.2,0.8,0.3,1,0.2c0.2-0.2,0.2-0.8,0.1-1.3
	c-0.1-0.5-0.5-1.2-0.6-1.4C48.3,18.6,48.2,19,48.1,19.2z"/>
<path class="st1" d="M54.6,15.1c0.2,0.1,0.3,0.3,0.7,0.4c0.3,0.1,0.9,0.2,1.1,0.1c0.2-0.2,0.3-0.7,0.3-0.9c-0.2-0.2-0.6-0.3-1-0.3
	c-0.4,0-1.2,0.1-1.4,0.3C54.1,14.8,54.4,15,54.6,15.1z"/>
<path class="st8" d="M54.8,15.1c0.1,0.1,0.3,0.2,0.5,0.3c0.2,0.1,0.8,0.1,1,0.1c0.2-0.1,0.3-0.6,0.2-0.7c-0.1-0.2-0.6-0.2-0.9-0.2
	c-0.3,0-0.9,0.1-1,0.2C54.5,14.9,54.7,15,54.8,15.1z"/>
<path class="st1" d="M51.7,12.3c-0.1-0.2-0.2-0.4-0.5-0.6c-0.3-0.2-0.8-0.6-1-0.5c-0.3,0-0.6,0.5-0.6,0.8c0,0.2,0.4,0.5,0.8,0.6
	c0.4,0.1,1.1,0.2,1.4,0.2C52,12.7,51.8,12.5,51.7,12.3z"/>
<path class="st8" d="M51.5,12.3c-0.1-0.2-0.2-0.3-0.3-0.5c-0.2-0.2-0.6-0.5-0.9-0.4c-0.2,0.1-0.6,0.3-0.5,0.6
	c0.1,0.1,0.4,0.4,0.7,0.5c0.3,0.1,0.8,0.1,1,0.2C51.7,12.5,51.5,12.4,51.5,12.3z"/>
<path class="st1" d="M44.4,13c0-0.2,0.2-0.4,0.2-0.8c-0.1-0.4-0.1-0.9-0.3-1.1c-0.2-0.2-0.9-0.2-1,0c-0.2,0.1-0.1,0.6,0.1,1
	c0.1,0.3,0.5,1,0.7,1.2C44.3,13.5,44.3,13.2,44.4,13z"/>
<path class="st8" d="M44.3,12.8c0-0.2,0.1-0.3,0.1-0.6c0-0.3-0.1-0.8-0.2-0.9c-0.2-0.2-0.7-0.2-0.7,0c-0.2,0.2,0,0.5,0.1,0.9
	c0.1,0.3,0.4,0.7,0.6,0.9C44.2,13.2,44.2,12.9,44.3,12.8z"/>
<path class="st1" d="M36.7,11.9c0,0.2-0.1,0.4,0.1,0.8c0.1,0.3,0.3,0.8,0.6,1c0.2,0.1,0.8-0.1,0.9-0.3c0-0.2-0.1-0.6-0.4-0.9
	c-0.3-0.3-0.9-0.9-1.1-0.9C36.6,11.4,36.7,11.6,36.7,11.9z"/>
<path class="st8" d="M36.8,12.1c0,0.1,0,0.3,0.1,0.6c0.1,0.2,0.3,0.7,0.5,0.8c0.2,0,0.6-0.1,0.7-0.2c0-0.2-0.1-0.5-0.3-0.8
	c-0.2-0.3-0.7-0.6-0.8-0.7C36.8,11.6,36.8,11.9,36.8,12.1z"/>
<path class="st1" d="M33.7,15.2c-0.1-0.2-0.3-0.5-0.5-0.6c-0.3-0.2-0.8-0.5-1.1-0.4c-0.3,0.1-0.6,0.5-0.6,0.8c0,0.2,0.4,0.4,0.8,0.6
	c0.3,0.1,1.2,0.1,1.4,0.1C34,15.6,33.9,15.4,33.7,15.2z"/>
<path class="st9" d="M33.5,15.2c-0.1-0.2-0.2-0.3-0.4-0.4c-0.3-0.2-0.7-0.4-0.9-0.4c-0.3,0-0.5,0.4-0.4,0.6c0,0.2,0.4,0.3,0.8,0.5
	c0.3,0.1,0.8,0.1,1,0.1C33.7,15.5,33.6,15.3,33.5,15.2z"/>
<path class="st1" d="M62.1,11.4c-0.2-0.1-0.4-0.3-0.7-0.3c-0.4-0.1-0.9-0.1-1.1,0c-0.3,0.1-0.3,0.8-0.2,1c0.1,0.1,0.5,0.2,1,0.2
	c0.4-0.1,1.1-0.3,1.3-0.5C62.6,11.7,62.2,11.5,62.1,11.4z"/>
<path class="st8" d="M61.9,11.5c-0.1-0.1-0.3-0.2-0.5-0.2c-0.3-0.1-0.8-0.1-1,0c-0.2,0.1-0.3,0.6-0.2,0.7c0.1,0.1,0.5,0.2,0.9,0.1
	c0.3-0.1,0.9-0.2,1-0.3C62.2,11.7,62,11.6,61.9,11.5z"/>
<path class="st1" d="M65.6,14.3c0.1-0.2,0.3-0.4,0.3-0.7c0.1-0.4,0.1-0.9-0.1-1.1c-0.2-0.2-0.8-0.3-1-0.2c-0.2,0.1-0.3,0.6-0.1,1
	c0,0.4,0.4,1.1,0.5,1.3C65.3,14.7,65.5,14.4,65.6,14.3L65.6,14.3z"/>
<path class="st8" d="M65.5,14c0.1-0.1,0.2-0.3,0.2-0.5c0-0.3,0-0.8-0.1-1c-0.2-0.2-0.6-0.2-0.7-0.1c-0.2,0.1-0.1,0.5-0.1,0.9
	c0,0.3,0.2,0.8,0.4,1C65.3,14.4,65.4,14.1,65.5,14L65.5,14z"/>
<path class="st1" d="M69.8,14.3c-0.1,0.2,0,0.4,0.1,0.8c0.1,0.3,0.4,0.8,0.6,0.9c0.3,0.1,0.8-0.2,0.9-0.3c0.1-0.2-0.1-0.6-0.4-0.9
	c-0.3-0.3-0.9-0.9-1.1-0.9C69.8,13.8,69.8,14.1,69.8,14.3z"/>
<path class="st8" d="M70,14.5c0,0.1,0,0.3,0.1,0.6c0.1,0.2,0.3,0.7,0.6,0.8c0.2,0.1,0.6-0.1,0.7-0.3c0-0.2-0.2-0.6-0.4-0.8
	c-0.2-0.3-0.7-0.6-0.8-0.7C70,14.1,70,14.3,70,14.5L70,14.5z"/>
<path class="st1" d="M75,19c-0.2-0.1-0.4-0.3-0.7-0.4c-0.4-0.1-0.9-0.2-1.2,0c-0.3,0.1-0.4,0.7-0.3,0.9c0.1,0.2,0.5,0.2,1,0.2
	c0.4,0,1.1-0.3,1.4-0.4C75.4,19.3,75.1,19.1,75,19z"/>
<path class="st8" d="M74.7,19c-0.2-0.1-0.3-0.2-0.5-0.3c-0.3-0.1-0.8-0.1-1,0c-0.2,0.1-0.3,0.5-0.2,0.7c0.1,0.1,0.5,0.2,0.9,0.2
	c0.3-0.1,0.9-0.2,1-0.3C75,19.2,74.8,19.1,74.7,19z"/>
<path class="st1" d="M64.4,29c-0.2-0.2-0.5-0.5-0.9-0.6c-0.5-0.2-1.3-0.4-1.6-0.2c-0.4,0.2-0.7,1-0.5,1.3c0.1,0.3,0.8,0.4,1.4,0.5
	c0.6,0,1.7-0.2,2-0.3C64.9,29.5,64.5,29.2,64.4,29L64.4,29z"/>
<path class="st8" d="M64,29.1c-0.2-0.2-0.4-0.4-0.7-0.5c-0.3-0.2-1.2-0.3-1.4-0.2c-0.3,0.1-0.5,0.7-0.4,1c0.1,0.2,0.7,0.4,1.2,0.4
	c0.4,0,1.3-0.1,1.5-0.2C64.4,29.4,64.2,29.2,64,29.1L64,29.1z"/>
<path class="st1" d="M75,25.6c-0.3,0.1-0.7,0.1-1,0.4c-0.4,0.2-1,0.8-1.1,1.2c-0.1,0.4,0.4,1.1,0.8,1.2c0.3,0,0.8-0.4,1.2-0.9
	c0.3-0.5,0.8-1.5,0.9-1.9C75.8,25.3,75.3,25.5,75,25.6z"/>
<path class="st8" d="M74.9,25.9c-0.2,0-0.5,0.1-0.8,0.3c-0.3,0.2-1,0.7-1,1c-0.1,0.3,0.3,0.8,0.6,0.9c0.3,0,0.7-0.4,1-0.8
	c0.3-0.4,0.6-1.1,0.6-1.4C75.3,25.7,75.1,25.8,74.9,25.9L74.9,25.9z"/>
<path class="st1" d="M71.9,33.5c0.1,0.2,0.3,0.6,0.6,0.9c0.3,0.3,1,0.9,1.4,0.8c0.3-0.1,1-0.7,1-1c-0.1-0.4-0.6-0.7-1.1-1
	c-0.5-0.3-1.7-0.5-2-0.5C71.5,32.8,71.7,33.2,71.9,33.5z"/>
<path class="st8" d="M72.2,33.6c0.1,0.2,0.1,0.5,0.5,0.7c0.3,0.3,0.9,0.7,1.2,0.7c0.3,0,0.8-0.5,0.7-0.8c-0.1-0.3-0.6-0.6-1-0.8
	c-0.4-0.2-1.3-0.4-1.5-0.3C71.9,33.1,72.1,33.4,72.2,33.6L72.2,33.6z"/>
<path class="st1" d="M71.2,42.2c0.1-0.3,0.2-0.7,0.1-1.1c-0.1-0.5-0.2-1.3-0.5-1.6c-0.3-0.3-1.2-0.2-1.4,0.1
	c-0.2,0.2-0.1,0.9,0.2,1.4c0.3,0.5,0.9,1.5,1.2,1.7C71.1,42.9,71.1,42.4,71.2,42.2z"/>
<path class="st8" d="M71,41.9c0.1-0.2,0.1-0.5,0.1-0.8c-0.1-0.4-0.2-1.1-0.5-1.4c-0.3-0.2-0.9-0.1-1.1,0.1c-0.2,0.2,0,0.8,0.2,1.3
	c0.2,0.4,0.7,1.1,0.9,1.2C70.9,42.4,70.9,42,71,41.9L71,41.9z"/>
<path class="st1" d="M58.9,37.9c-0.2-0.2-0.5-0.5-0.9-0.6c-0.5-0.2-1.3-0.5-1.6-0.3c-0.4,0.2-0.7,0.9-0.5,1.3
	c0.1,0.3,0.8,0.5,1.4,0.5c0.6-0.1,1.7-0.1,2-0.3C59.5,38.3,59.1,38,58.9,37.9z"/>
<path class="st8" d="M58.6,37.9c-0.2-0.2-0.3-0.4-0.7-0.5c-0.3-0.2-1.2-0.3-1.4-0.2c-0.3,0.1-0.6,0.7-0.4,1c0.1,0.2,0.7,0.4,1.2,0.4
	c0.4,0,1.3-0.1,1.5-0.2C59,38.2,58.7,38,58.6,37.9z"/>
<path class="st1" d="M37,41.2c-0.3,0-0.7,0.1-1,0.4c-0.4,0.3-1.1,0.8-1.1,1.2c0,0.4,0.4,1.1,0.8,1.2c0.3,0,0.8-0.4,1.2-0.9
	c0.3-0.5,0.8-1.5,0.9-1.9C37.7,41,37.2,41.1,37,41.2z"/>
<path class="st8" d="M36.8,41.5c-0.2,0-0.5,0.1-0.8,0.3c-0.3,0.2-0.9,0.7-1,1c-0.1,0.3,0.3,0.8,0.6,0.9c0.2,0,0.7-0.4,1-0.8
	c0.3-0.4,0.6-1.2,0.6-1.4C37.3,41.3,37,41.5,36.8,41.5z"/>
<path class="st1" d="M27.8,44.5c-0.2-0.3-0.4-0.6-0.8-0.8c-0.5-0.3-1.2-0.6-1.6-0.5c-0.4,0.1-0.9,0.9-0.8,1.2c0,0.3,0.7,0.6,1.3,0.7
	c0.5,0.1,1.7,0.1,2.1,0C28.3,45,28,44.7,27.8,44.5z"/>
<path class="st8" d="M27.4,44.5c-0.2-0.2-0.3-0.5-0.6-0.6c-0.4-0.2-1-0.5-1.3-0.5c-0.3,0.1-0.6,0.6-0.6,0.9c0.1,0.2,0.7,0.5,1.1,0.6
	c0.4,0.1,1.3,0.1,1.5,0C27.8,44.8,27.6,44.7,27.4,44.5z"/>
<path class="st1" d="M15.7,40c0.3,0.1,0.6,0.2,1.1,0.3c0.5,0,1.3-0.1,1.6-0.3c0.3-0.3,0.3-1.2,0.1-1.4c-0.2-0.2-1-0.3-1.5,0
	c-0.6,0.2-1.6,0.6-1.8,0.9C15,39.7,15.5,39.8,15.7,40z"/>
<path class="st8" d="M16.1,39.8c0.2,0.1,0.4,0.2,0.8,0.2c0.4,0,1.1,0,1.4-0.2c0.2-0.3,0.2-0.9,0.1-1.1c-0.2-0.2-0.9-0.1-1.3,0
	c-0.5,0.1-1.2,0.5-1.4,0.7C15.5,39.6,15.9,39.7,16.1,39.8z"/>
<path class="st1" d="M13.5,32.5c-0.1-0.3-0.2-0.7-0.5-1c-0.3-0.3-1-1-1.3-1c-0.4,0-1.1,0.6-1.1,0.9c0,0.3,0.5,0.7,1,1.1
	c0.5,0.3,1.5,0.6,1.9,0.6C13.7,33.2,13.6,32.8,13.5,32.5z"/>
<path class="st8" d="M13.2,32.4c-0.1-0.2-0.2-0.5-0.4-0.7c-0.3-0.3-0.8-0.9-1.2-0.8c-0.3,0-0.8,0.4-0.8,0.7c0,0.3,0.5,0.6,0.9,0.9
	c0.4,0.2,1.2,0.4,1.5,0.5C13.3,32.9,13.3,32.5,13.2,32.4z"/>
<path class="st1" d="M13.1,23.9c-0.2,0.2-0.2,0.6-0.2,1.1c0.1,0.4,0.1,1.3,0.5,1.6c0.3,0.2,1.2,0.2,1.4-0.1c0.1-0.3,0.1-0.9-0.1-1.5
	c-0.2-0.6-0.9-1.5-1.1-1.7C13.2,23.1,13.1,23.6,13.1,23.9z"/>
<path class="st8" d="M13.2,24.2c-0.1,0.2-0.2,0.5-0.1,0.8c0,0.4,0.1,1.1,0.4,1.4c0.3,0.2,0.8,0.2,1.1,0c0.1-0.2,0-0.9-0.1-1.3
	c-0.2-0.4-0.6-1.2-0.8-1.3C13.3,23.6,13.3,24,13.2,24.2z"/>
<path class="st1" d="M19.7,21.4c-0.1,0.3-0.1,0.6,0,1.1c0.1,0.4,0.4,1.2,0.8,1.5c0.3,0.2,1.2-0.1,1.4-0.3c0.2-0.3-0.1-0.9-0.4-1.4
	c-0.3-0.5-1.2-1.3-1.4-1.4C19.7,20.7,19.7,21.1,19.7,21.4z"/>
<path class="st9" d="M19.9,21.7c-0.1,0.2-0.1,0.5,0,0.8c0.1,0.4,0.3,1,0.7,1.3c0.3,0.1,0.9,0,1-0.3c0.1-0.3-0.2-0.9-0.4-1.2
	c-0.3-0.4-0.9-1-1.1-1.1C20,21.1,19.9,21.4,19.9,21.7z"/>
<path class="st1" d="M31.7,20c-0.2,0-0.5,0.1-0.7,0.3c-0.3,0.2-0.7,0.5-0.8,0.8c0,0.3,0.3,0.7,0.5,0.8c0.3,0,0.5-0.3,0.8-0.6
	c0.2-0.4,0.5-1,0.6-1.3C32.1,19.8,31.8,19.9,31.7,20z"/>
<path class="st8" d="M31.5,20.2c-0.2,0-0.3,0.1-0.5,0.2c-0.2,0.2-0.6,0.5-0.7,0.7c-0.1,0.2,0.2,0.5,0.4,0.6c0.2,0,0.4-0.3,0.7-0.5
	c0.2-0.3,0.4-0.8,0.4-1C31.8,20,31.7,20.2,31.5,20.2z"/>
<path class="st1" d="M27.3,22.8c-0.2,0-0.5,0.1-0.7,0.3c-0.3,0.2-0.7,0.5-0.8,0.8c0,0.3,0.3,0.7,0.5,0.8c0.3,0,0.5-0.3,0.8-0.6
	c0.2-0.4,0.5-1,0.6-1.3C27.7,22.7,27.4,22.7,27.3,22.8z"/>
<path class="st8" d="M27.1,23.1c-0.2,0-0.3,0.1-0.5,0.2c-0.2,0.2-0.6,0.5-0.7,0.7c-0.1,0.2,0.2,0.6,0.4,0.6c0.2,0,0.4-0.3,0.7-0.6
	c0.2-0.3,0.4-0.8,0.4-1C27.4,22.9,27.3,23,27.1,23.1z"/>
<path class="st1" d="M34.3,25.3c-0.1,0.2-0.1,0.5,0,0.8c0.1,0.3,0.2,0.8,0.5,1c0.2,0.1,0.8,0,1-0.2c0.1-0.2,0-0.7-0.2-1
	c-0.3-0.3-0.7-1-1-1C34.4,24.7,34.3,25,34.3,25.3z"/>
<path class="st8" d="M34.5,25.5c0,0.1-0.2,0.3,0,0.6c0,0.3,0.2,0.7,0.4,0.9c0.2,0.1,0.6,0,0.7-0.2c0-0.2,0-0.6-0.2-0.8
	c-0.2-0.3-0.6-0.7-0.7-0.8C34.5,25,34.4,25.3,34.5,25.5z"/>
<path class="st1" d="M43.8,29.9c-0.2,0-0.5,0.1-0.7,0.3c-0.3,0.2-0.7,0.5-0.8,0.8c0,0.3,0.3,0.7,0.5,0.8c0.3,0,0.5-0.3,0.8-0.6
	c0.2-0.4,0.6-1,0.6-1.3C44.2,29.7,43.9,29.8,43.8,29.9z"/>
<path class="st8" d="M43.6,30.1c-0.2,0-0.3,0.1-0.5,0.2c-0.2,0.2-0.7,0.5-0.7,0.7c-0.1,0.2,0.2,0.5,0.4,0.6c0.2,0,0.4-0.3,0.7-0.5
	c0.2-0.3,0.4-0.8,0.4-1C43.9,29.9,43.8,30,43.6,30.1z"/>
<path class="st1" d="M43.4,22.2c0-0.2,0-0.5-0.1-0.8c-0.1-0.3-0.4-0.8-0.6-0.9c-0.3-0.2-0.8,0.1-0.9,0.3c-0.1,0.2,0.1,0.6,0.4,0.9
	c0.2,0.3,0.9,0.8,1.1,0.9C43.4,22.6,43.4,22.4,43.4,22.2z"/>
<path class="st9" d="M43.2,22c0-0.1,0-0.3-0.1-0.6c-0.1-0.3-0.3-0.7-0.6-0.8c-0.2-0.1-0.7,0.1-0.7,0.3c-0.1,0.2,0.1,0.5,0.4,0.8
	c0.2,0.2,0.7,0.6,0.8,0.6C43.2,22.4,43.2,22.1,43.2,22z"/>
<path class="st1" d="M38.4,19.1c0.1-0.2,0.2-0.4,0.2-0.8c0-0.4,0-0.9-0.2-1.1c-0.2-0.2-0.8-0.2-1-0.1c-0.2,0.1-0.2,0.6,0,1
	c0.1,0.4,0.5,1,0.7,1.2C38.2,19.5,38.3,19.2,38.4,19.1z"/>
<path class="st9" d="M38.3,18.8c0-0.2,0.1-0.3,0.1-0.6c0-0.3-0.1-0.8-0.2-1c-0.2-0.2-0.6-0.2-0.7,0c-0.1,0.1-0.1,0.6,0,0.9
	c0.1,0.3,0.3,0.8,0.5,0.9C38.2,19.1,38.3,19,38.3,18.8z"/>
<path class="st1" d="M26.2,16.9c-0.1-0.2-0.1-0.5-0.3-0.7c-0.2-0.3-0.6-0.7-0.9-0.8c-0.3-0.1-0.8,0.3-0.8,0.6c0,0.3,0.3,0.5,0.6,0.8
	c0.3,0.2,1,0.5,1.3,0.6C26.3,17.4,26.2,17.1,26.2,16.9z"/>
<path class="st9" d="M25.9,16.8c-0.1-0.2-0.1-0.3-0.2-0.5c-0.2-0.2-0.5-0.6-0.7-0.6c-0.2-0.1-0.6,0.2-0.6,0.4
	c-0.1,0.2,0.3,0.5,0.6,0.7c0.3,0.2,0.8,0.4,1,0.4C26,17.1,25.9,16.9,25.9,16.8z"/>
<path class="st1" d="M61.5,18.2c0,0.2,0,0.4,0.2,0.7c0.1,0.3,0.5,0.7,0.8,0.8c0.3,0,0.7-0.2,0.8-0.5c0-0.3-0.2-0.6-0.5-0.9
	c-0.3-0.3-1-0.6-1.2-0.7C61.3,17.7,61.4,17.9,61.5,18.2z"/>
<path class="st8" d="M61.7,18.3c0,0.1,0,0.3,0.2,0.5c0.2,0.2,0.4,0.6,0.7,0.7c0.2,0.1,0.6-0.2,0.6-0.4c0-0.3-0.3-0.5-0.5-0.7
	c-0.2-0.2-0.8-0.5-0.9-0.5C61.6,17.9,61.7,18.2,61.7,18.3z"/>
</svg>
