<?xml version="1.0" encoding="utf-8"?>
<!-- Generator: Adobe Illustrator 22.0.1, SVG Export Plug-In . SVG Version: 6.00 Build 0)  -->
<svg version="1.1" id="Laag_1" xmlns="http://www.w3.org/2000/svg" xmlns:xlink="http://www.w3.org/1999/xlink" x="0px" y="0px"
	 viewBox="0 0 99.2 99.2" style="enable-background:new 0 0 99.2 99.2;" xml:space="preserve">
<style type="text/css">
	.st0{fill:#EFD905;}
</style>
<rect x="-29.1" y="-7.3" class="st0" width="161.5" height="119.3"/>
<g transform="translate(-5.6155 -725.59)">
</g>
<path d="M42.8,3.6c-0.2,0-0.4,0-0.5,0c-2,0.2-3.3,1.8-3.9,3.3c-0.6,1.4-0.9,3-1,4.4c-0.3,3-0.1,5.7-0.1,5.7c0.1,1.4,1.5,2.4,2.9,2
	c0,0,0,0.1,0,0.1c-0.9,0.3-1.8,0.7-2.7,1.2c-5.3,2.8-9.5,8.1-10.8,14c-1,4.6,0.3,9.5,3,13.2c3.2,4.4,8.2,6.2,12.3,8
	c0,1.7-0.1,3.3-0.2,5c0,0,0,0,0,0c0,0,0,0,0,0c-2.9-2.6-7.3-3.1-10.7-0.7c-1.7,1.2-2.6,3-2.9,4.9c-0.3,1.9,0,4.3,2,5.6c0,0,0,0,0,0
	c0,0.1-0.1,0.1-0.1,0.2c-0.5,0.8-1.9,1.8-2.7,3.7c-0.2,0.5-0.4,0.9-0.5,1.6c-0.1,0.6,0.1,1.7,0.8,2.3c0.7,0.7,1.5,0.8,2,0.7
	c0.5,0,0.8-0.1,1.2-0.2c0.7-0.2,1.3-0.4,1.7-0.6c0.5-0.2,0.9-0.2,0.7-0.2c1.6,0,3.4,0.2,5.3,0.6c-0.4,0.2-0.7,0.6-0.8,1
	c-1.1,2.4-1.3,5.6-0.8,8.9c0.3,1.7,0.7,3.3,1.7,4.7c1,1.4,2.7,2.6,4.7,2.6c1.3,0,2.5-0.6,3.4-1.4s1.3-1.7,1.7-2.7
	c0.8-1.9,1-3.9,1-5.5c0-0.5,0-0.9,0-1.5c0,0.5,0,0.9,0,1.5c0,1.6,0.3,3.6,1,5.5c0.4,1,0.9,1.9,1.7,2.7c0.8,0.8,2,1.4,3.4,1.4
	c2,0,3.8-1.1,4.7-2.6c1-1.4,1.4-3.1,1.7-4.7c0.5-3.2,0.4-6.2-0.6-8.5c8.4-4.3,12.2-12.4,11.3-19.9c-0.9-7.5-6.5-14.5-15.6-16.8
	c0,0,0,0,0,0c0-0.3,0-0.7,0-1c0.6,0.3,1.2,0.6,1.8,0.7c1.7,0.4,3.6,0.5,5.4-0.1c1.8-0.6,3.6-2.1,4.3-4.2c0.9-2.9,0.3-5.6-0.2-7.8
	c-0.5-2-0.8-3.8-0.7-5.2c0.4-0.6,0.6-1.2,0.6-2.1c-0.1-1.2-1.2-2.3-2.1-2.6c-1.6-0.4-2.8,0.1-3.8,1.1c-0.6,0.2-1.2,0.2-2,0
	c-0.6-0.2-1.2-0.4-1.9-0.8c0.1-1.1,0.3-2.1,0.4-3.2l2.8-0.8c0,0,0.2-2.8-0.1-5.7c-0.2-1.5-0.4-3-1-4.4s-1.9-3-3.9-3.3
	C55.4,3.4,53.9,4,53,4.8c-0.9,0.8-1.6,1.9-2,2.9c-0.9,2.1-1.3,4.5-1.4,6.4c0,1.4,0,2.5,0,3.7c0,0,0,0,0,0c0-1.2,0-2.3,0-3.7
	c0-1.9-0.4-4.1-1.3-6.2c-0.4-1-1-2-1.9-2.9C45.5,4.2,44.2,3.6,42.8,3.6L42.8,3.6z M42.8,5.8c3,0,4.3,5.3,4.4,8.4
	c0,2.2,0,3.9,0.1,5.9c1.5,0,3.1,0.1,4.5,0.4c0-2.1,0-4,0.1-6.3c0-3.2,1.5-8.7,4.7-8.3c3.8,0.5,3,11,3,11s-2-2.7-2.7,0.5
	c-0.2,1.6-0.4,3.3-0.6,5c2.4,1.3,5.1,2.7,7.7,1.4c1.1-1.3,3.3-1.1,1.9,0.8c-0.9,4.5,2.3,8.8,0.8,13.2c-1,3-4.3,3.5-7.1,2.8
	c-3.8-0.9-1.5-4.2-1.9-6.7c-0.2-1.4-1-2.5-2.1-3.3c-0.3,4.6-0.6,9.4-0.7,14.2c0.6,0.2,1.2,0.3,1.8,0.5c16.6,4,19.2,24.7,3.7,32.5
	c-1.3,0.5-2.5,0.8-3.8,1c0.1,0.7,0.2,1.4,0.3,2.1c0.7,2.6,2.2,1.4,2.4-0.5c1.3,2.8,1.4,13-3.5,12.9c-2.9-0.1-3.9-4.6-3.9-7.4
	c-1.2-10-4.5-8.1-4.6,0c0,2.8-1,7.3-3.9,7.4c-4.9,0.1-4.9-10.1-3.5-12.9c0.2,1.9,1.7,3.1,2.4,0.5c0.2-1.3,0.4-2.5,0.5-3.8
	c-3.2-0.8-6.4-1.6-9.5-1.5c-1.5,0-5.2,2.5-3.9-0.4c1-2.1,5.2-4.7,2.1-6.8c-2-1.3-1.1-5.3,0.9-6.7c2.4-1.7,5.9-1.3,7.9,0.5
	c2,1.8,1.3,4.6,0.3,6.6c0.8,0.8,1.8,1.4,2.8,2c0.5-5.5,0.8-11.1,0.9-16.7c-4.6-2.3-9.9-3.9-12.8-7.9c-2.3-3.2-3.4-7.6-2.6-11.4
	c1.1-5.1,4.9-10.1,9.6-12.5c1.3-0.7,2.7-1.2,4.2-1.6c-0.1-1.2-0.3-2.3-0.4-3.4c-0.7-3.2-2.7-0.5-2.7-0.5s-0.8-10.6,3-11
	C42.6,5.8,42.7,5.8,42.8,5.8L42.8,5.8z M56.2,6.6c-0.5,0-0.8,0.2-1.2,0.5c-0.5,0.4-0.9,1.1-1.2,1.9c-0.7,1.6-1.1,3.7-1.1,5.2
	c0,2.4-0.1,4.2-0.1,6.3c0,0.5-0.5,0.9-1,0.8c-1.4-0.3-2.9-0.5-4.3-0.4c-0.4,0-0.8-0.3-0.8-0.8c0-2,0-3.7-0.1-5.9
	c0-1.4-0.4-3.5-1-5.1c-0.3-0.8-0.7-1.5-1.2-1.9c-0.4-0.4-0.9-0.6-1.4-0.6c-0.1,0-0.1,0-0.2,0c-0.6,0.1-1,0.5-1.4,1.5
	c-0.4,0.9-0.7,2.2-0.8,3.5c-0.1,1.3-0.2,2.6-0.1,3.6c0,0,0,0,0,0c0.4-0.2,1.1-0.3,1.7,0.1c0.6,0.4,0.9,1,1.1,1.9c0,0,0,0,0,0.1
	c0.2,1.1,0.3,2.3,0.4,3.4c0,0.4-0.2,0.8-0.6,0.9c-1.4,0.4-2.8,0.9-4,1.5c-4.4,2.3-8.1,7.1-9.2,12c-0.8,3.5,0.3,7.8,2.5,10.8
	c2.7,3.8,7.8,5.4,12.5,7.7c-19.2-13.3,1.9-0.6,9.4-8.6c0.1-4.9,0.3-9.7,0.7-14.3c0-0.6,0.8-0.9,1.3-0.6c1.2,0.9,2.1,2.2,2.4,3.8
	c0.3,1.5-0.2,3-0.3,4.1c0,0.5,0.1,0.9,0.2,1.2c0.2,0.3,0.5,0.5,1.4,0.7c1.3,0.3,2.7,0.3,3.8,0c1.1-0.4,1.9-1,2.4-2.3
	c0.6-2,0.3-4-0.2-6.2c-0.5-2.2-1.1-4.5-0.6-7c0-0.1,0.1-0.2,0.1-0.3c0.1-0.1,0.2-0.2,0.2-0.3c-0.2,0.1-0.6,0.2-0.8,0.5
	c-0.1,0.1-0.1,0.1-0.2,0.2c-1.5,0.7-3,0.7-4.5,0.3c-1.4-0.4-2.7-1.1-3.9-1.7c-0.3-0.2-0.4-0.5-0.4-0.8c0.2-1.7,0.4-3.4,0.6-5
	c0,0,0,0,0-0.1c0.2-0.9,0.5-1.5,1.1-1.9c0.6-0.4,1.2-0.3,1.7-0.1c0,0,0,0,0,0c0-1,0-2.3-0.1-3.6c-0.1-1.3-0.4-2.6-0.8-3.5
	c-0.4-0.9-0.9-1.4-1.4-1.5C56.4,6.6,56.3,6.6,56.2,6.6L56.2,6.6L56.2,6.6z M43.1,10.3c0.7,0,1.3,0.6,1.3,1.3c0,0.7-0.6,1.3-1.3,1.3
	c-0.7,0-1.3-0.6-1.3-1.3C41.8,10.9,42.4,10.3,43.1,10.3z M55.9,10.3c0.7,0,1.3,0.6,1.3,1.3c0,0.7-0.6,1.3-1.3,1.3
	c-0.7,0-1.3-0.6-1.3-1.3C54.6,10.9,55.2,10.3,55.9,10.3z M49.8,28L49.8,28c0.3,0,0.6,0,0.9,0.1c0.4,0,0.7,0.1,1.1,0.2
	c0.4,0.1,0.6,0.4,0.6,0.8c-0.1,6-0.1,10.8-0.1,15.1c0,0.5-0.5,0.9-1,0.8c-1.4-0.4-2.9-0.9-4.2-1.5c-0.3-0.1-0.4-0.4-0.4-0.7
	c0-3.9-0.1-8.2-0.1-13.5c0-0.4,0.2-0.7,0.6-0.8C48,28.1,48.9,28,49.8,28L49.8,28z M49.8,28.7c-0.8,0-1.6,0.1-2.5,0.3
	c0.1,5.3,0.1,9.6,0.1,13.5c1.3,0.6,2.6,1.1,4.1,1.5c0-4.3,0.1-9.1,0.1-15.1c-0.3-0.1-0.7-0.1-1-0.2C50.4,28.8,50.1,28.7,49.8,28.7
	L49.8,28.7z M43.7,30.4c0.4,0,0.7,0.3,0.8,0.7c0.2,3,0.4,6,0.5,9.1c0,0.7-0.8,1.1-1.3,0.6c-0.4-0.4-0.7-0.8-1-1.2
	c-1.5-2.1-2-5.2-0.6-7.5c0.3-0.5,0.7-1,1.2-1.5C43.3,30.4,43.5,30.3,43.7,30.4L43.7,30.4z M43.7,31.1c-0.4,0.4-0.8,0.8-1,1.3
	c-1.1,1.9-0.7,4.8,0.6,6.7c0.3,0.4,0.6,0.8,0.9,1.1C44,37.1,43.9,34.1,43.7,31.1L43.7,31.1z M62,34c1.1,0,2.1,0.9,2.1,2.1
	c0,1.1-0.9,2.1-2.1,2.1c-1.1,0-2.1-0.9-2.1-2.1C59.9,34.9,60.8,34,62,34z M57.1,46.2c-4.2,0-9.2,3.8-17.9,2.7
	c6.1,3.8,15.5-3.7,23.4-0.2c0.6,0.2-0.9-0.4-1.5-0.9C59.8,46.6,58.5,46.2,57.1,46.2L57.1,46.2z M60.4,48.7c-4.2,0-9.3,3.8-18.1,2.7
	c6.1,3.8,15.6-3.7,23.6-0.2c0.6,0.2-1-0.4-1.5-0.9C63.1,49.1,61.8,48.7,60.4,48.7L60.4,48.7z M62.7,50.9c-4,0-8.9,3.8-17.3,2.7
	c5.8,3.8,15-3.7,22.6-0.2c0.5,0.2-0.9-0.4-1.4-0.9C65.3,51.3,64.1,50.9,62.7,50.9L62.7,50.9z M64.4,53.1c-3.3,0-7.3,3.6-14.1,2.2
	c4.9,4,12.4-3.2,18.7,0.4c0.5,0.3-0.8-0.4-1.2-0.9C66.7,53.5,65.6,53.1,64.4,53.1L64.4,53.1z M47.6,55.2c-0.4,0-0.8,0.3-0.8,0.8
	c0,4.7-0.1,9.8-0.1,16.4c0,0.4,0.3,0.7,0.6,0.8c1.5,0.3,3.1,0.5,4.6,0.3c0.4-0.1,0.7-0.4,0.7-0.8c-0.1-5.9-0.1-10.6-0.1-14.9
	c0-0.3-0.2-0.6-0.5-0.7c-1.4-0.6-2.8-1.1-4-1.7C47.8,55.2,47.7,55.2,47.6,55.2L47.6,55.2z M66,55.3c-2.7,0-6.1,3.4-11.7,1.9
	c4,4.1,10.3-2.9,15.5,0.9c0.4,0.3-0.6-0.4-1-0.9C67.9,55.7,66.9,55.3,66,55.3L66,55.3z M67,57.7c-2.3,0-5.4,3.1-9.9,1.6
	c2.9,4.2,9-2.6,12.9,1.3c0.3,0.3-0.5-0.4-0.7-1C68.6,58.2,67.9,57.7,67,57.7L67,57.7z M54.9,58.6c-0.4,0-0.8,0.4-0.8,0.8
	c0.2,3.9,0.4,7.8,0.7,11.6c0.1,0.6,0.8,0.9,1.3,0.5c1.3-1.1,2-2.8,2.4-4.5c0.3-1.7,0.2-3.5-0.4-5c-0.6-1.4-1.6-2.5-2.8-3.3
	C55.2,58.7,55.1,58.6,54.9,58.6L54.9,58.6z M67,60.2c-2,0-4.7,2.6-8.5,0.8c2.5,4.3,7.8-1.9,11.2,2.1c0.2,0.3-0.4-0.5-0.6-1
	C68.5,60.6,67.8,60.2,67,60.2L67,60.2z M36,62.2c-1.7,0-3.1,1.4-3.1,3.1c0,1.7,1.4,3.1,3.1,3.1c1.7,0,3.1-1.4,3.1-3.1
	C39.1,63.6,37.7,62.2,36,62.2z M66.9,62.6c-1.8,0-4.2,2.6-7.7,0.8c2.3,4.2,7.1-1.9,10.2,2.1c0.2,0.3-0.4-0.4-0.6-1
	C68.2,63.1,67.6,62.6,66.9,62.6L66.9,62.6z M59.3,65c1.7,4.5,6.5-0.6,9,3.8c0.2,0.3-0.3-0.5-0.4-1C66.6,62.6,63.6,68.3,59.3,65
	L59.3,65z M59.1,66.5c0.8,4.4,6,0.6,7.5,5.2c0.1,0.3-0.2-0.5-0.2-1C66.2,65.7,62.3,70.3,59.1,66.5L59.1,66.5z M59,68.7
	c0.6,3.6,5,0.5,6.2,4.2c0.1,0.3-0.2-0.4-0.2-0.9C64.9,68,61.7,71.8,59,68.7L59,68.7z M58.6,69.8c-0.1,3.3,4.2,1.3,4.6,4.8
	c0,0.2-0.1-0.4,0-0.8C63.7,70.3,60.3,73,58.6,69.8L58.6,69.8z M38.2,70.3c-1.2,0-2.6,0.5-4.7,1.8c-0.6,0.4-2.1,1-1.5,0.8
	c10.7-4.3,8.9,4.9,23,2.4C43.3,75.5,42.1,70.2,38.2,70.3L38.2,70.3z M57.8,70.7c-0.5,3.2,4,1.9,3.9,5.3c0,0.2,0-0.4,0.1-0.8
	C62.9,71.9,59.2,74.1,57.8,70.7L57.8,70.7z M57.2,71.5c-1,2.9,3.4,2.4,2.8,5.6c0,0.2,0.1-0.4,0.2-0.7C61.8,73.4,57.9,74.9,57.2,71.5
	L57.2,71.5z M37.8,72.7c-1.3,0-2.8,0.5-5.1,1.9c-0.6,0.4-2.1,1-1.5,0.8c10.7-4.3,9.6,4.1,23.6,1.7C43.4,77.2,41.7,72.6,37.8,72.7
	L37.8,72.7z M56.6,72.8c-1,2.3,2.6,2.2,1.9,4.7c-0.1,0.2,0.1-0.3,0.2-0.5C60.1,74.6,56.9,75.5,56.6,72.8L56.6,72.8z M55.9,73.3
	c-1.4,2,2.2,2.4,1.1,4.7c-0.1,0.2,0.1-0.3,0.3-0.5C59.1,75.5,55.7,75.9,55.9,73.3L55.9,73.3z M44.7,79c-3.2,7.5,2.1,5.5-1.9,11.6
	c-0.2,0.3,0.4-0.5,0.7-0.9C48,84.3,42.7,86.8,44.7,79L44.7,79z M54.4,79c2,7.7-3.3,5.2,1.2,10.7c0.3,0.4,0.9,1.2,0.7,0.9
	C52.3,84.5,57.6,86.5,54.4,79L54.4,79z"/>
</svg>
