<?xml version="1.0" encoding="utf-8"?>
<!-- Generator: Adobe Illustrator 22.0.1, SVG Export Plug-In . SVG Version: 6.00 Build 0)  -->
<svg version="1.1" id="Laag_1" xmlns="http://www.w3.org/2000/svg" xmlns:xlink="http://www.w3.org/1999/xlink" x="0px" y="0px"
	 viewBox="0 0 99.2 99.2" style="enable-background:new 0 0 99.2 99.2;" xml:space="preserve">
<style type="text/css">
	.st0{fill:#EFD905;}
	.st1{stroke:#EFD905;stroke-width:0.3969;stroke-linecap:round;stroke-linejoin:round;}
	.st2{fill:none;stroke:#EFD905;stroke-width:0.3969;stroke-linecap:round;stroke-linejoin:round;}
</style>
<g transform="translate(-7.1399 -795.36)">
	<path class="st0" d="M7.1,795.4h99.2v99.2H7.1L7.1,795.4z"/>
	<path class="st1" d="M48.9,818.1c-0.1-3.2-2.1-6.2-5-8c-2.9-1.8-8.9-1.1-11.2,1.7c-2.3,2.7-3.2,8.8,1.3,10.9c4.5,2,7.4-2.5,6.5-5.7
		c-0.9-3.2-2.9-3.3-6-3.1c1.6-2.7,4.5-2.8,6.6-0.7c1-0.5,3.4,1,3.1,2.6l-0.6,6.5c0.1,1.4-1.1,2.7-3,2.8c-0.3,1.7-2.1,3-4.4,1.7
		c-0.6,1-3.2,1.8-5-0.1c-2.2,0.7-4-0.9-4.1-2.5c-2.2-0.5-2.8-3.1-2.6-4.6c-1.8-1.9-1.2-4.4,0-5.6c-0.8-2.6,0-4.8,2.1-5.3
		c0.3-2.7,2.3-4.4,4.4-4.2c1.1-2.5,3.6-3.3,6-2.6c1.6-2,4.2-1.7,6.1-0.4c2.8-1.1,5.2-0.2,6.4,2.2c3.6-0.5,5,2.3,4.8,4.5
		c2.4,0.6,3.5,1.8,3,4.5L48.9,818.1L48.9,818.1z"/>
	<path class="st1" d="M46,822.6c-6.1-0.2-8.7-3-10.5-5.7c5.3-3.2,10.6-0.5,13.2,1.2L46,822.6L46,822.6z"/>
	<path class="st2" d="M41.9,817.7c4.2,0.7,5.1,1.8,5.5,2.1"/>
	<path class="st1" d="M46,822.7l6.2,17.6c-2.4,7.6-10.3,3.9-16.8,19c-1.5,0.4-3.5,2.9-3,4.3c-1.7,1.3-2.7,3.7-1,5.9
		c-2.1,1.5-0.7,4.7,0,5.6c-1,1.3-0.1,4.5,1.2,5c-0.4,2.6,0.8,5.3,2.8,5.5c0.9,2.6,1.7,3.5,3.8,3.7c2.1,0.2,11.5,1.1,17-0.5
		c5.5-1.5,15.9-4.8,16.4-7.7c0.4-2.9-1.7-4.8-1.7-4.8c0.8-1.7,0.4-3.3-0.1-5c1-1.3,1.5-3.4,1.1-5.3c1.3-1.4,1.9-3.9,1.3-5.6
		c1.2-1.8,1.5-3.8,0.9-5.7c1-1.5,1.1-3.7,0.7-5c0.4-1.5,1.3-3.3,0.5-4.9c0.8-1.8,0.3-3.7-0.4-5.7l-8.3-11.6
		c4.2,2.8,9.2,3.3,14.2,3.1c-1.3-3.4-5.1-6.9-10.5-8l-9.6-9.9c-4.8-1.6-6.2,0.9-6.2,0.9c-1.6-0.1-2.6,0.8-3,2
		c-1.2,0.1-2.5,1.1-3.2,2.2C47.4,818,45.8,819.6,46,822.7L46,822.7z"/>
	<path class="st2" d="M35.7,857.5c-0.6,2.6-0.3,5.4,0.2,6.6c-1,1.5-0.9,3.9,0.3,5.2c-0.2,2.5,0.3,4.8,1.3,6.5c0.7-3,2.9-5.1,5.3-7"
		/>
	<path class="st2" d="M71.2,825.7c3.9,1,7,3,7.3,3.3"/>
	<path class="st1" d="M64.6,822.2c4.3-6.4,8.9-6.7,12.9-5.5c4.4,1.3,6,5.1,5.8,9c-0.2,3.8-2.8,8-7.6,7.5c-4.8-0.5-6.4-3.6-6.3-7.3
		c0.2-3.5,3.4-4.3,6-4.4c2.7,0,5,2.4,6.1,4.7c0.4-0.9,0.8-1.7,0.6-2.9c-0.3-1.3-1.7-2.3-2.2-2.7c-0.5-0.4-0.3-0.9-0.9-1.4
		c-0.5-0.5-1.7-1-3.1-0.5c-0.4-1.1-3.1-0.9-3.9,0.1c-1.2-0.3-3.3-0.1-3.7,1.7c-2.1,0.3-3.3,1.9-3.1,4.6c-1.4,1.2-1.5,2.9,0.1,4.5
		c-1,1.6-1,3.6,1.5,4.3c-0.2,2.9,2.4,3.6,3.7,3.2c1.1,1.8,3.1,2.7,4.3,1.4c1.7,1.9,3.8,1.1,4.8-0.2c2.2,0.6,3.7-0.4,4.6-1.7
		c1.6-0.1,3.2-1.8,3.4-3.3c1.8-1,2-2.7,1.4-4.2c1.4-1,1.7-2.8,0.6-4.3c1.6-2,1-4.4-0.8-5.8c0.6-2.7-1-5.1-3.6-5.4
		c-1-3.3-2.9-4.2-5.8-3.7c-1.2-2.1-4.4-2.7-6.4-1.5c-2.1-0.9-4.6-0.9-6.6,1c-3.5-0.3-5.3,1.8-5.6,4.3
		C51.7,815.9,57,823.2,64.6,822.2L64.6,822.2z"/>
	<path class="st1" d="M56.4,821.6c-0.1,0.2-1.7,0.7-3.4,0.4c-1.2,1-2.1,1-3.5,0.7c-1.7,0.5-3,0.2-3.5-0.1
		c-3.6,2.9-11.4,13.3-12.1,15.2c-0.8,2.1,1.4,2.6,2,1.7c0.6-0.8,1.7-2.2,1.7-2.2s-0.8,1-1.5,2c-0.7,1-1.3,0.3-1.2,1.7
		c0.1,1.3,1.3,4.4,2.7,3.7c1.4-0.7,4.9-3.1,4.9-3.1s-3.1,2.2-4.3,2.8s2.4,2.7,3.8,1.7c1.4-0.9,2.4-3,3.6-3.1
		c1.2-0.1,12.8-2.5,15.6-3.8c2.8-1.3,3-3.3,3-3.3"/>
	<path class="st2" d="M54.7,826.8c-1.3,2.9-4,1.8-4.1,0.9C50.6,826.7,51.8,824.7,54.7,826.8z"/>
	<path class="st2" d="M49.3,829.4l1.6-1.2"/>
	<path class="st2" d="M53.6,827.1l2-0.2"/>
</g>
</svg>
