<?xml version="1.0" encoding="utf-8"?>
<!-- Generator: Adobe Illustrator 22.0.1, SVG Export Plug-In . SVG Version: 6.00 Build 0)  -->
<svg version="1.1" id="Laag_1" xmlns="http://www.w3.org/2000/svg" xmlns:xlink="http://www.w3.org/1999/xlink" x="0px" y="0px"
	 viewBox="0 0 99.2 99.2" style="enable-background:new 0 0 99.2 99.2;" xml:space="preserve">
<style type="text/css">
	.st0{fill:#A01F1F;}
	.st1{clip-path:url(#SVGID_3_);}
	.st2{fill:#EFD905;}
	.st3{fill:url(#SVGID_5_);}
	.st4{fill:url(#SVGID_6_);}
	.st5{fill:url(#SVGID_7_);}
	.st6{fill:url(#SVGID_8_);}
	.st7{fill:#1E1E1E;}
	.st8{fill:#353535;}
	.st9{fill:#2B2B2B;}
	.st10{fill:#3F3F3F;}
	.st11{fill:#5B5B5B;}
	.st12{fill:#111111;}
	.st13{fill:#2D2D2D;}
	.st14{fill:#1C1C1C;}
	.st15{fill:#6B1A1A;}
	.st16{fill:#871E1E;}
	.st17{fill:url(#SVGID_9_);}
	.st18{fill:#541515;}
	.st19{fill:#AD2727;}
	.st20{fill:#B73D3D;}
	.st21{fill:#B22F2F;}
	.st22{fill:url(#SVGID_10_);}
	.st23{fill:#444444;}
	.st24{fill:#161616;}
	.st25{fill:#070707;}
	.st26{fill:url(#SVGID_11_);}
	.st27{fill:url(#SVGID_12_);}
	.st28{fill:#541616;}
	.st29{fill:#681A1A;}
</style>
<symbol  id="aa" viewBox="-4.6 -4.9 9.2 9.8">
	<path class="st0" d="M-0.2,4.9C1.2,5,2.4,4.6,3.3,3.7c0.9-0.9,1.3-2.1,1.3-3.6c0-1.3-0.2-2.3-0.6-3.2C3.5-4.1,2.9-4.7,2-4.8
		C-0.2-5-1.8-4.9-2.8-4.3c-1,0.5-1.6,1.5-1.8,2.9c-0.2,1.9,0.1,3.5,1,4.6C-2.7,4.2-1.6,4.8-0.2,4.9z"/>
</symbol>
<symbol  id="ab" viewBox="-4.5 -4.8 9 9.6">
	<path class="st0" d="M3.2,3.6C4.1,2.7,4.5,1.5,4.5,0c0-1.2-0.2-2.2-0.6-3.1C3.5-4.1,2.8-4.6,2-4.7c-2.1-0.2-3.7-0.1-4.7,0.4
		c-1,0.5-1.5,1.5-1.7,2.9c-0.2,1.9,0.1,3.4,1,4.5c0.8,1,1.9,1.5,3.3,1.6S2.3,4.5,3.2,3.6z"/>
</symbol>
<symbol  id="ac" viewBox="-4.9 -5.2 9.9 10.4">
	<path class="st0" d="M-0.2,5.2c1.5,0.1,2.8-0.3,3.8-1.3c0.9-1,1.4-2.3,1.4-3.8c0-1.4-0.2-2.5-0.6-3.4C3.8-4.4,3.1-5,2.1-5.1
		c-2.3-0.3-4-0.1-5.1,0.5C-4.1-4-4.7-3-4.9-1.5c-0.2,2.1,0.1,3.7,1,4.9C-2.9,4.5-1.7,5.1-0.2,5.2z"/>
</symbol>
<symbol  id="ad" viewBox="4068 -2 4 4">
	<g>
		<defs>
			<polygon id="SVGID_1_" points="4071,1 4072,1 4071,2 			"/>
		</defs>
		<defs>
			<polygon id="SVGID_2_" points="4069,-1 4068,-1 4069,-2 			"/>
		</defs>
		<clipPath id="SVGID_3_">
			<use xlink:href="#SVGID_1_"  style="overflow:visible;"/>
		</clipPath>
		<clipPath id="SVGID_4_" class="st1">
			<use xlink:href="#SVGID_2_"  style="overflow:visible;"/>
		</clipPath>
	</g>
</symbol>
<symbol  id="x" viewBox="-4.3 -4.6 8.7 9.1">
	<path class="st0" d="M3.1,3.4c0.8-0.9,1.2-2,1.2-3.3c0-1.2-0.2-2.2-0.6-2.9C3.3-3.8,2.7-4.4,1.8-4.5c-2-0.2-3.5-0.1-4.4,0.4
		c-0.9,0.5-1.5,1.4-1.7,2.7c-0.2,1.8,0.1,3.2,1,4.3c0.8,1,1.8,1.5,3.2,1.6C1.1,4.6,2.2,4.3,3.1,3.4z"/>
</symbol>
<symbol  id="y" viewBox="-4.7 -5 9.4 10">
	<path class="st0" d="M-0.2,5c1.5,0.1,2.7-0.3,3.6-1.3C4.3,2.8,4.7,1.6,4.7,0c0-1.3-0.2-2.3-0.6-3.3C3.6-4.2,2.9-4.8,2-4.9
		C-0.2-5.1-1.8-5-2.9-4.4c-1,0.5-1.6,1.5-1.8,2.9c-0.2,2,0.1,3.6,1,4.7C-2.8,4.3-1.7,4.9-0.2,5z"/>
</symbol>
<symbol  id="z" viewBox="-4.9 -5.1 9.7 10.2">
	<path class="st0" d="M-0.2,5.1c1.5,0.1,2.7-0.3,3.7-1.3C4.4,2.9,4.9,1.6,4.9,0c0-1.3-0.2-2.4-0.6-3.3C3.7-4.3,3-4.9,2.1-5
		c-2.2-0.2-3.9-0.1-5,0.5C-4-3.9-4.6-2.9-4.8-1.5c-0.2,2,0.1,3.6,1.1,4.8C-2.9,4.4-1.7,5-0.2,5.1z"/>
</symbol>
<rect x="-6.1" y="-3.2" class="st2" width="109.4" height="104.6"/>
<radialGradient id="SVGID_5_" cx="48.2988" cy="-317.7417" r="37.2405" gradientTransform="matrix(-1 0 0 0.2424 98.9126 160.6031)" gradientUnits="userSpaceOnUse">
	<stop  offset="0" style="stop-color:#000000;stop-opacity:0.2196"/>
	<stop  offset="1" style="stop-color:#000000;stop-opacity:0"/>
</radialGradient>
<path class="st3" d="M91.4,83.6c0,2.7-4,5.1-11.9,7c-8,1.9-17.6,2.9-28.9,2.9c-9.9,0-18.6-0.8-26.2-2.3c-7.5-1.5-12.1-3.4-13.9-5.8
	c-0.1-0.6-0.3-1.2-0.7-1.7v-0.1c0-2.7,4-5.1,11.9-7c7.9-1.9,17.5-2.9,28.8-2.9s20.9,1,28.9,2.9C87.4,78.5,91.4,80.9,91.4,83.6
	L91.4,83.6z"/>
<radialGradient id="SVGID_6_" cx="-55.9031" cy="504.3349" r="4.9912" gradientTransform="matrix(-1 -7.900000e-03 2.860000e-02 -0.2857 -23.3531 235.449)" gradientUnits="userSpaceOnUse">
	<stop  offset="0" style="stop-color:#000000;stop-opacity:0.6078"/>
	<stop  offset="1" style="stop-color:#000000;stop-opacity:0"/>
</radialGradient>
<path class="st4" d="M52.6,91.5c0,0.4-0.5,0.8-1.6,1.1c-1.1,0.3-2.4,0.4-3.9,0.4c-1.5,0-2.8-0.1-3.9-0.4c-1.1-0.3-1.6-0.7-1.6-1.1
	c0-0.4,0.5-0.8,1.6-1.1s2.4-0.5,3.9-0.5c1.5,0,2.8,0.2,3.9,0.5C52.1,90.7,52.6,91.1,52.6,91.5z"/>
<radialGradient id="SVGID_7_" cx="-33.7239" cy="463.3378" r="5.2289" gradientTransform="matrix(-1 -7.600000e-03 2.880000e-02 -0.2864 -21.2019 212.8383)" gradientUnits="userSpaceOnUse">
	<stop  offset="0" style="stop-color:#000000;stop-opacity:0.6078"/>
	<stop  offset="1" style="stop-color:#000000;stop-opacity:0"/>
</radialGradient>
<path class="st5" d="M21.9,78.9c1.1-0.3,2.5-0.5,4.1-0.5c1.6,0,2.9,0.2,4.1,0.5c1.1,0.3,1.7,0.7,1.7,1.2c0,0.4-0.6,0.8-1.7,1.2
	c-1.1,0.3-2.5,0.5-4.1,0.5s-2.9-0.2-4.1-0.5c-1.1-0.3-1.7-0.7-1.7-1.2C20.3,79.6,20.8,79.3,21.9,78.9z"/>
<radialGradient id="SVGID_8_" cx="-87.4237" cy="476.4532" r="4.9912" gradientTransform="matrix(-1 -7.900000e-03 2.860000e-02 -0.3032 -21.6561 231.8622)" gradientUnits="userSpaceOnUse">
	<stop  offset="0" style="stop-color:#000000;stop-opacity:0.6078"/>
	<stop  offset="1" style="stop-color:#000000;stop-opacity:0"/>
</radialGradient>
<path class="st6" d="M85,87.8c0,0.5-0.5,0.9-1.6,1.2c-1.1,0.3-2.4,0.5-3.9,0.5c-1.5,0-2.8-0.2-3.9-0.5c-1.1-0.3-1.6-0.7-1.6-1.2
	c0-0.5,0.5-0.9,1.6-1.2c1.1-0.3,2.4-0.5,3.9-0.5c1.5,0,2.8,0.2,3.9,0.5C84.5,87,85,87.3,85,87.8L85,87.8z"/>
<g>
	<path class="st7" d="M50.1,81.8c-0.1,4.9-0.3,7.8-0.7,8.7c-0.2,0.5-0.8,1-2,1.3l-1.6,0.4L43.9,91l0.1-2.5c1-0.4,1.6-1,1.9-1.8
		c0.3-0.8-0.2-2.4-1.4-5L50.1,81.8L50.1,81.8z"/>
	<path class="st8" d="M51.6,83.1c0,1.8,0,3,0.1,3.7c0,0.2,0,0.8-0.1,1.6c-0.1,0.8-0.5,1.6-1.2,2.4l-1.1,1l-3.4,0.3l-0.2-2.6l0.8-0.2
		c0.6-0.3,0.9-0.7,1.1-1.4c0.2-0.6,0-1.6-0.4-2.9l-0.7-1.8L51.6,83.1L51.6,83.1z"/>
	<polygon class="st9" points="44.1,88.5 45.7,89.6 45.9,92.1 43.9,91 	"/>
	<path class="st9" d="M51.5,82.6l0.4,2.6c0.1,0.8-0.1,1.8-0.3,3.2c-0.5-1.2-1-2.1-1.7-2.8c-0.4-0.4-1-0.7-1.7-0.9l-1-0.1l-0.6-1.4
		L51.5,82.6L51.5,82.6z"/>
	<path class="st10" d="M49,89.6c-0.4,0.7-0.7,1.1-1.1,1.2l-2.1,0.6v-1.5c1.1-0.3,1.7-0.8,1.8-1.3c0.1-0.4,0.1-1,0-1.8l-0.1-1.1
		l1,0.4c0.7,0.4,1,0.9,1,1.5C49.5,88.2,49.3,88.9,49,89.6L49,89.6z"/>
	<path class="st11" d="M46.8,84.1l0.8,1.2c0.5,1,0.7,1.9,0.5,2.8c-0.1,0.5-0.5,0.9-1.3,1.2l-1.1,0.3c1.1-0.4,1.7-0.9,1.9-1.6
		c0.1-0.6,0.1-1.4-0.3-2.5L46.8,84.1L46.8,84.1z"/>
	<polygon class="st12" points="45.3,83.7 44.5,81.7 46.4,82.6 47.1,84.6 	"/>
</g>
<g>
	<path class="st7" d="M80.6,81.5c-0.4,1.9-0.4,3.1-0.2,3.5c0.3,0.6,0.8,0.9,1.5,1c0.4,0,0.7,0,1-0.1l-0.5,2.4L79,88.9l-2.9-1.4
		c-0.5-1.2-0.8-2.5-1-3.8C75,82.9,75,82.1,75,81.2l0.1-1l6.1-1.3L80.6,81.5L80.6,81.5z"/>
	<path class="st10" d="M81.1,79.6l-0.3,1.6c-0.1,1.3-0.1,2.5,0.1,3.5c0.1,0.6,0.6,1,1.3,1c0.4,0,0.7-0.1,1.1-0.2l-1,2.9L79,88.9
		c-0.1,0-0.2-0.1-0.4-0.3c-0.3-0.4-0.5-1-0.8-1.9c-0.2-0.9-0.5-2.1-0.7-3.7l-0.3-2.1L81.1,79.6z"/>
	<path class="st11" d="M80.6,81.7l0,1.5c0,1.1,0.2,1.7,0.4,1.9c0.4,0.4,1.2,0.5,2.4,0.5c-0.4,0.2-0.8,0.3-1.3,0.3
		c-0.9,0.1-1.5,0-1.8-0.4c-0.3-0.4-0.3-1.2-0.1-2.3L80.6,81.7L80.6,81.7z"/>
	<path class="st8" d="M76.7,80.6l4.4-1.3L79.8,82c-0.2,0.2-0.4,0.4-0.6,0.7c-0.4,0.6-0.6,1.1-0.6,1.7c0,0.7,0.2,1.4,0.5,2.1
		c0.4,0.8,0.8,1.2,1.3,1.2c0.7,0,1.4,0.1,2.1,0.1c-0.1,0.4-1.3,0.8-3.5,1.1c-0.3-0.1-0.6-0.3-0.9-0.6c-0.6-0.7-1-1.6-1.2-2.8
		c-0.1-0.9-0.2-2-0.2-3.2L76.7,80.6L76.7,80.6z"/>
	<polygon class="st9" points="76.7,80 81.1,79.3 80.1,81.2 76.6,82.4 	"/>
</g>
<g>
	<path class="st7" d="M21,80.2l0.1-2.5c1-0.4,1.7-1,1.9-1.8c0.3-0.8-0.2-2.4-1.4-5l5.6,0.1c-0.1,4.9-0.3,7.8-0.7,8.7
		c-0.2,0.5-0.8,1-2,1.3l-1.6,0.4C22.9,81.4,21,80.2,21,80.2z"/>
	<path class="st8" d="M23.5,72.5l5.1-0.2c0,1.8,0,3,0.1,3.7c0,0.2,0,0.8-0.1,1.6c-0.1,0.8-0.5,1.6-1.2,2.4l-1.1,1l-3.4,0.3l-0.2-2.6
		l0.8-0.2c0.6-0.3,0.9-0.7,1.1-1.4c0.2-0.6,0-1.6-0.4-2.9L23.5,72.5L23.5,72.5z"/>
	<polygon class="st9" points="21.1,77.8 22.8,78.8 22.9,81.4 21,80.2 	"/>
	<path class="st9" d="M24.2,73.9l-0.6-1.4l5.1-0.6l0.4,2.6c0.1,0.8-0.1,1.8-0.3,3.2c-0.5-1.2-1-2.1-1.7-2.8c-0.4-0.4-1-0.7-1.8-0.9
		L24.2,73.9L24.2,73.9z"/>
	<path class="st10" d="M24.5,74.8l1,0.4c0.7,0.4,1,0.9,1,1.5c0,0.7-0.2,1.4-0.6,2.1c-0.4,0.7-0.7,1.1-1.1,1.2l-2.1,0.6v-1.5
		c1.1-0.3,1.7-0.8,1.8-1.3c0.1-0.4,0.1-1,0-1.8L24.5,74.8L24.5,74.8z"/>
	<path class="st11" d="M23.9,73.4l0.8,1.2c0.5,1,0.7,1.9,0.5,2.8c-0.1,0.5-0.5,0.9-1.3,1.2l-1.1,0.3c1.1-0.4,1.7-0.9,1.9-1.6
		c0.1-0.6,0.1-1.4-0.3-2.5L23.9,73.4L23.9,73.4z"/>
	<polygon class="st12" points="23.5,71.9 24.2,73.9 22.3,72.9 21.6,70.9 	"/>
</g>
<path class="st8" d="M24.1,9c2.3,0.3,4.4,0.8,6.4,1.6c0.1-0.3,0.2-0.6,0.4-1c0.4-0.8,0.8-1.6,1.4-2.4c1.8-2.3,4.1-3.6,7.1-3.8
	c2.4-0.2,4.7,0.7,6.9,2.7c1.1,1,2,2,2.6,3l0.8-0.3c0.6-0.2,1.3-0.4,2.1-0.4c2.4-0.1,4.8,0.7,7.2,2.5c2.5,1.8,2.8,5.6,1,11.4
	c-0.9,3-2.2,6.4-4,10.2c-0.4,1.9-0.8,5-1,9.5c-0.2,4.8-0.1,7.9,0.3,9.4c0.4,1.4,1.2,3,2.3,4.8c0.6,1,1.1,1.8,1.6,2.4l-35.3,2.9
	c1.4-2.7,2.7-5.2,3.8-7.7c0.9-1.8,0.5-5.2-1.2-10c-1.7-4.8-3.6-8.3-5.8-10.4c-2.3-2.2-4.3-5.7-5.9-10.5c-1.7-5-1.9-8.5-0.5-10.5
	C16.2,9.7,19.5,8.5,24.1,9L24.1,9z"/>
<path class="st8" d="M84,73c0.3,1.8,0.1,3.4-0.7,4.7c-1.1,1.8-4,3-8.9,3.6c-0.4,0.1-0.9,0.6-1.2,1.5c-0.4,1.1-1.2,1.8-2.2,2.3
	c-0.8,0.4-1.8,0.6-3,0.8L66.2,86V80l-9.5-27.2l1.4-1.1c1.2-0.8,2.3-1.1,3.5-1.1c1.3,0,2.5,0.1,3.6,0.3c0.6,0.1,2,0.4,4.1,1
	c2.4,0.6,5.6,1.9,9.6,3.9c4.6,2.2,7.2,4,7.8,5.3c0.6,1.5,0.9,3.2,0.7,4.9c-0.2,1.9-0.8,3.1-1.9,3.6l-2.2,1.1L84,73L84,73z"/>
<path class="st13" d="M26.9,12c1.8,0,3.5,0.1,5.1,0.4l2.4-3.3c2-2.2,4.1-3.1,6.3-2.9c3.4,0.3,5.7,1.4,6.7,3.2
	c0.5,0.9,0.6,1.8,0.4,2.6l3.6-0.6c2.9-0.1,5.4,0.7,7.7,2.4c2.3,1.7,2.5,5.3,0.9,10.7c-0.9,2.9-2.1,6.1-3.7,9.7
	c-0.4,1.8-0.7,4.7-0.9,8.9c-0.2,4.5-0.1,7.5,0.3,8.9c0.4,1.3,1.1,2.8,2.1,4.6c0.5,0.9,1,1.6,1.4,2.2l-32.5,2.8
	c1.3-2.5,2.4-4.9,3.5-7.3c0.8-1.8,0.7-5-0.3-9.5c-1.1-4.7-2.6-8-4.5-9.9c-2.1-2.1-3.9-5.5-5.3-10.2c-1.5-4.9-1.6-8.3-0.3-10.2
	C20.9,12.8,23.2,12,26.9,12L26.9,12z"/>
<path class="st14" d="M81.6,72.6c0.4,2.3,0.2,3.7-0.4,4.5c-0.5,0.7-1.5,1.1-2.7,1.3l-1.7,0.2L56,58.3l0.5-5.5l0.7,0.9
	c0.7,0.6,1.4,1,2.3,1.2c0.9,0.2,5,0.6,12.4,1.4c3.7,0.4,7.3,0.7,10.8,1.1l2.1,1.9c-0.6-0.1-1.2-0.1-1.9,0c-1.4,0.2-2.3,0.8-2.8,1.9
	c-0.6,1.2-0.9,2.6-0.9,4.2c0,1.6,0.3,2.6,0.9,3.2C80.7,69.1,81.2,70.5,81.6,72.6L81.6,72.6z"/>
<path class="st0" d="M27.8,12.7c1.8,0,3.4,0.1,5,0.4l2.3-3.2c2-2.1,4-3.1,6.1-2.9c3.3,0.3,5.5,1.3,6.4,3.1c0.5,0.9,0.6,1.8,0.4,2.6
	l3.5-0.6c2.8-0.1,5.3,0.7,7.5,2.3c2.2,1.6,2.5,5.2,0.8,10.6c-0.8,2.8-2,6-3.5,9.5c-0.4,1.8-0.7,4.7-0.9,8.8
	c-0.2,4.4-0.1,7.4,0.3,8.7c0.6,2,1.7,4.2,3.5,6.7l-31.7,2.7c1.2-2.5,2.4-4.8,3.4-7.1c0.8-1.8,0.7-4.9-0.3-9.4
	c-1.1-4.6-2.5-7.8-4.4-9.7c-2-2-3.8-5.4-5.1-10c-1.4-4.9-1.5-8.2-0.3-10.1C22,13.5,24.3,12.7,27.8,12.7L27.8,12.7z"/>
<path class="st15" d="M22.1,27.7c-1.3-3.5-2-6.6-2-9.2c0.3,0.7,0.8,0.9,1.5,0.9c1-0.1,1.9-0.6,2.8-1.5c0.5-0.4,0.8-0.8,1.1-1.2
	l7.2,13.4c4.7,9.3,7,14.7,6.7,16.4c-0.3,2.3-2.2,7.1-5.5,14.5l-6.2,0.5c1.2-2.5,2.4-4.8,3.4-7.1c0.8-1.8,0.7-4.9-0.3-9.4
	c-1.1-4.6-2.5-7.8-4.4-9.7C24.8,33.7,23.4,31.2,22.1,27.7z"/>
<path class="st16" d="M30.1,13.5c1.7,0,3.3,0.1,4.8,0.4l2.2-3C39,9,41,8,42.9,8s3.7,0.9,5.1,2.8c0.7,0.9,1.2,1.8,1.5,2.8l1.1-0.4
	c0.9-0.3,1.8-0.5,2.7-0.6c2.9-0.2,5,0.7,6.5,2.9c1.2,1.8,1.3,5.3,0.1,10.4c-0.6,2.6-1.5,5.6-2.6,8.9c-0.8,3.7-1.3,6.4-1.5,8
	c-0.5,4.3-0.4,7.6,0.5,10c0.7,1.9,1.9,4,3.6,6.3L30,60.9c1.2-2.4,2.3-4.7,3.3-6.9c0.8-1.7,0.7-4.8-0.3-9.1c-1-4.5-2.4-7.6-4.2-9.4
	c-2-2-3.6-5.2-4.9-9.8c-1.4-4.7-1.5-8-0.3-9.8C24.6,14.3,26.8,13.5,30.1,13.5z"/>
<linearGradient id="SVGID_9_" gradientUnits="userSpaceOnUse" x1="-97.3769" y1="58.0139" x2="-17.0811" y2="58.0139" gradientTransform="matrix(-3.240000e-02 -0.9995 -0.9995 3.240000e-02 99.1042 -3.2706)">
	<stop  offset="0" style="stop-color:#231F20"/>
	<stop  offset="9.019999e-02" style="stop-color:#231F20;stop-opacity:0.7961"/>
	<stop  offset="1" style="stop-color:#231F20;stop-opacity:0"/>
</linearGradient>
<path class="st17" d="M30.1,13.5c1.7,0,3.3,0.1,4.8,0.4l2.2-3C39,9,41,8,42.9,8s3.7,0.9,5.1,2.8c0.7,0.9,1.2,1.8,1.5,2.8l1.1-0.4
	c0.9-0.3,1.8-0.5,2.7-0.6c2.9-0.2,5,0.7,6.5,2.9c1.2,1.8,1.3,5.3,0.1,10.4c-0.6,2.6-1.5,5.6-2.6,8.9c-0.8,3.7-1.3,6.4-1.5,8
	c-0.5,4.3-0.4,7.6,0.5,10c0.7,1.9,1.9,4,3.6,6.3L30,60.9c1.2-2.4,2.3-4.7,3.3-6.9c0.8-1.7,0.7-4.8-0.3-9.1c-1-4.5-2.4-7.6-4.2-9.4
	c-2-2-3.6-5.2-4.9-9.8c-1.4-4.7-1.5-8-0.3-9.8C24.6,14.3,26.8,13.5,30.1,13.5z"/>
<g>
	<path class="st15" d="M29.5,21c0.6-0.4,1.1-0.6,1.4-0.6c-0.7,1-1.1,1.5-1.4,1.8c-0.2,0.2-0.3,0.5-0.3,1c0,0.4,0.2,0.7,0.4,0.8
		c0.3,0.1,0.8,0.6,1.3,1.4c-0.8-0.1-1.3-0.3-1.6-0.4c-0.2-0.1-0.5,0-0.9,0.1L28,25.3l0.5,1.7c-0.3-0.3-0.6-0.7-0.9-1
		c-0.1-0.2-0.3-0.5-0.3-0.8l-0.1-0.4c-0.5-0.1-0.9-0.1-1.3,0.1c-0.2,0.1-0.6,0.4-1.1,0.8l-0.7,0.6c0-0.2,0.1-0.3,0.2-0.5
		c0.1-0.4,0.3-0.7,0.5-0.9c0.3-0.3,0.7-0.6,1.2-1.1c0.2-0.8,0.1-1.4-0.3-1.6c-0.2-0.1-0.7-0.5-1.3-1.2l-0.9-1l0.9,0.2
		c0.7,0.2,1.1,0.4,1.5,0.6c0.5,0.3,0.9,0.6,1,1.1h0.9C28.2,21.7,28.8,21.4,29.5,21z"/>
	<path class="st18" d="M29.3,23.3c0,0.5-0.2,0.9-0.5,1.3c-0.3,0.3-0.7,0.5-1.1,0.5c-0.5,0-0.9-0.2-1.2-0.5c-0.3-0.4-0.5-0.8-0.5-1.3
		s0.2-0.9,0.5-1.3c0.3-0.3,0.7-0.5,1.2-0.5c0.4,0,0.8,0.2,1.1,0.5C29.1,22.4,29.3,22.8,29.3,23.3z"/>
	<path class="st0" d="M28.5,23.3c0,0.3-0.1,0.6-0.3,0.9c-0.2,0.2-0.5,0.3-0.7,0.3c-0.3,0-0.5-0.1-0.7-0.3c-0.2-0.2-0.3-0.5-0.3-0.9
		s0.1-0.6,0.3-0.9c0.2-0.2,0.5-0.3,0.7-0.3c0.3,0,0.5,0.1,0.7,0.3C28.4,22.7,28.5,23,28.5,23.3z"/>
	<path class="st19" d="M28.5,23.1c0,0.3-0.1,0.5-0.3,0.7c-0.1,0.2-0.3,0.3-0.6,0.3c-0.2,0-0.4-0.1-0.6-0.3c-0.2-0.2-0.3-0.4-0.3-0.7
		s0.1-0.5,0.3-0.7c0.1-0.2,0.3-0.3,0.6-0.3c0.2,0,0.4,0.1,0.6,0.3C28.4,22.6,28.5,22.8,28.5,23.1z"/>
	<path class="st20" d="M28.5,22.9c0,0.2-0.1,0.4-0.2,0.6c-0.1,0.2-0.3,0.3-0.5,0.3c-0.2,0-0.3-0.1-0.5-0.3c-0.1-0.2-0.2-0.4-0.2-0.6
		c0-0.2,0.1-0.4,0.2-0.6c0.1-0.2,0.3-0.3,0.5-0.3c0.2,0,0.4,0.1,0.5,0.3C28.4,22.5,28.5,22.7,28.5,22.9z"/>
</g>
<g>
	<path class="st15" d="M42.5,18.8c0.3-0.3,1.1-0.6,2.3-1c-0.6,0.6-1.1,1-1.3,1.2c-0.1,0.1-0.3,0.3-0.4,0.5l-0.2,0.3h0.3
		c0.2,0,0.5-0.1,0.8-0.2c0.5-0.2,1.3-0.3,2.3-0.5c-1.3,0.8-2,1.4-2.3,1.7c-0.2,0.2-0.3,0.5-0.3,1c0,0.4,0.1,0.8,0.3,1
		c0.3,0.3,0.8,0.8,1.5,1.5l-2.9-0.6c-0.2,0-0.4,0.1-0.8,0.2c-0.3,0.1-0.6,0.3-0.8,0.4l-1.5,0.8l0.5-1.1c0.1-0.2,0.2-0.5,0.2-0.7
		l-0.5,0.3l-1.3,0.8l0.3-0.5c0.2-0.4,0.4-0.6,0.6-0.8c0.2-0.1,0.4-0.5,0.4-0.9c0-0.5-0.1-0.8-0.3-0.9c-0.3-0.1-0.7-0.2-1.4-0.3
		l-0.9-0.1l1.6-0.3c0.8,0,1.1-0.1,1-0.2c-0.1-0.2-0.5-0.5-1.1-0.9l-1-0.6l1,0.2c0.7,0.1,1.1,0.3,1.2,0.4c0.3,0.2,0.7,0.4,1.2,0.7
		l0.3-0.4C41.4,19.7,42.5,18.8,42.5,18.8z"/>
	<path class="st18" d="M43.3,22c0,0.5-0.2,0.9-0.5,1.3c-0.3,0.4-0.7,0.5-1.2,0.5c-0.5,0-0.9-0.2-1.2-0.5C40.2,22.9,40,22.5,40,22
		s0.2-0.9,0.5-1.3c0.3-0.3,0.7-0.5,1.2-0.5c0.4,0,0.8,0.2,1.2,0.5C43.1,21.1,43.3,21.5,43.3,22z"/>
	<path class="st0" d="M42.5,22c0,0.3-0.1,0.6-0.3,0.9c-0.2,0.2-0.5,0.3-0.7,0.3c-0.3,0-0.5-0.1-0.7-0.3c-0.2-0.2-0.3-0.5-0.3-0.9
		c0-0.3,0.1-0.6,0.3-0.9c0.2-0.2,0.4-0.3,0.7-0.3s0.5,0.1,0.7,0.3C42.4,21.4,42.5,21.7,42.5,22z"/>
	<path class="st21" d="M42.5,21.8c0,0.3-0.1,0.5-0.2,0.7c-0.2,0.2-0.4,0.3-0.6,0.3s-0.4-0.1-0.6-0.3c-0.2-0.2-0.3-0.4-0.3-0.7
		c0-0.3,0.1-0.5,0.3-0.7c0.1-0.2,0.3-0.3,0.6-0.3s0.4,0.1,0.6,0.3C42.4,21.3,42.5,21.5,42.5,21.8z"/>
	<path class="st20" d="M42.5,21.6c0,0.2-0.1,0.4-0.2,0.6c-0.1,0.2-0.3,0.3-0.5,0.3s-0.3-0.1-0.5-0.3c-0.1-0.1-0.2-0.3-0.2-0.6
		c0-0.2,0.1-0.4,0.2-0.6c0.1-0.2,0.3-0.3,0.5-0.3s0.4,0.1,0.5,0.3C42.4,21.2,42.5,21.4,42.5,21.6z"/>
</g>
<g>
	<path class="st15" d="M55.7,19.1c0.9-1.1,1.5-1.8,1.7-2l-0.3,0.7c-0.1,0.4,0,0.5,0.2,0.3c0.4-0.4,0.9-0.5,1.6-0.5
		c0.1,0.1,0,0.4-0.4,0.9c-0.3,0.4-0.5,0.9-0.6,1.5c-0.1,0.6,0,0.9,0.3,1c0.4,0.1,1,0.5,1.7,1.1c-0.5,0-1,0-1.3,0
		c-0.3,0-0.4,0.1-0.3,0.2c0.3,0.2,0.5,0.3,0.6,0.4c0.3,0.3,0.5,0.7,0.8,1.2c-0.7-0.3-1.2-0.6-1.6-0.8c-0.7-0.3-1.1-0.5-1.3-0.5
		c-0.5-0.1-1,0.1-1.5,0.6l-2,1.7l0.9-1.7c0.1-0.2,0.3-0.4,0.5-0.7c0.1-0.1,0.2-0.2,0.3-0.3c-0.5-1.3-1.1-2-1.6-2.2
		c-0.3-0.1-0.7-0.2-1.2-0.3l-0.6-0.1h1.5c0.6,0,1,0.1,1.2,0.2c0.2-0.1,0.1-0.3-0.1-0.6c-0.1-0.2-0.6-0.5-1.3-0.9l-1.1-0.5l0.9,0.1
		c0.7,0.1,1.2,0.3,1.6,0.5L55.7,19.1L55.7,19.1z"/>
	<path class="st18" d="M57.7,21c0,0.5-0.2,0.9-0.5,1.3c-0.3,0.3-0.7,0.5-1.2,0.5c-0.5,0-0.9-0.2-1.2-0.5c-0.3-0.4-0.5-0.8-0.5-1.3
		c0-0.5,0.2-0.9,0.5-1.3c0.3-0.3,0.7-0.5,1.2-0.5c0.4,0,0.8,0.2,1.2,0.5C57.6,20.1,57.7,20.5,57.7,21z"/>
	<path class="st0" d="M57,21c0,0.3-0.1,0.6-0.3,0.9c-0.2,0.2-0.5,0.3-0.7,0.3c-0.3,0-0.5-0.1-0.7-0.3c-0.2-0.3-0.3-0.5-0.3-0.9
		c0-0.3,0.1-0.6,0.3-0.9c0.2-0.2,0.4-0.3,0.7-0.3c0.3,0,0.5,0.1,0.7,0.3C56.9,20.4,57,20.7,57,21z"/>
	<path class="st19" d="M57,20.8c0,0.3-0.1,0.5-0.2,0.7c-0.2,0.2-0.4,0.3-0.6,0.3c-0.2,0-0.4-0.1-0.6-0.3c-0.2-0.2-0.3-0.4-0.3-0.7
		c0-0.3,0.1-0.5,0.3-0.7c0.1-0.2,0.3-0.3,0.6-0.3c0.2,0,0.4,0.1,0.6,0.3C56.9,20.3,57,20.5,57,20.8z"/>
	<path class="st20" d="M57,20.6c0,0.2-0.1,0.4-0.2,0.6c-0.1,0.2-0.3,0.3-0.5,0.3s-0.3-0.1-0.5-0.3c-0.1-0.1-0.2-0.3-0.2-0.6
		c0-0.2,0.1-0.4,0.2-0.6c0.1-0.2,0.3-0.3,0.5-0.3s0.4,0.1,0.5,0.3C56.9,20.2,57,20.4,57,20.6z"/>
</g>
<g>
	<path class="st15" d="M47.2,30.6l0.4-0.3c0.3-0.2,0.6-0.3,0.9-0.4c0.4-0.1,0.9-0.1,1.3-0.1c0.4-0.2,0.4-0.4,0.2-0.8
		c-0.1-0.2-0.6-0.5-1.2-1l-1-0.7l0.9,0.3c0.7,0.3,1.2,0.5,1.6,0.7c0.6,0.3,1,0.8,1.3,1.3l1.2-1.7c0.4-0.4,1-0.8,1.9-1.1
		c-0.4,0.5-0.7,1-1,1.6c-0.2,0.4-0.3,1-0.3,1.6c0.1,0.7,0.3,1.1,0.6,1.3c0.3,0.2,0.7,0.6,1.1,1c0.4,0.5,0.5,0.6,0.3,0.5
		c-0.3-0.2-0.7-0.3-1.2-0.5c-0.5-0.1-0.6-0.1-0.3,0.1c0.5,0.3,0.9,0.9,1.1,1.6c-0.4-0.4-0.9-0.7-1.2-0.9c-0.6-0.2-1.3-0.2-2.1-0.1
		c-0.2,0-0.7,0.4-1.6,1L49,35.1c0.6-0.8,1-1.5,1.2-2.1c0.1-0.4,0.1-0.9,0.1-1.4c-0.1-0.6-0.4-1-0.7-1c-0.3-0.1-0.8-0.1-1.5,0
		C48.1,30.5,47.2,30.6,47.2,30.6z"/>
	<path class="st18" d="M53.3,31.5c0,0.5-0.2,0.9-0.5,1.3c-0.3,0.3-0.7,0.5-1.1,0.5c-0.5,0-0.9-0.2-1.2-0.5c-0.3-0.4-0.5-0.8-0.5-1.3
		c0-0.5,0.2-0.9,0.5-1.3c0.3-0.3,0.7-0.5,1.2-0.5c0.4,0,0.8,0.2,1.1,0.5C53.2,30.6,53.3,31,53.3,31.5z"/>
	<path class="st0" d="M52.6,31.5c0,0.3-0.1,0.6-0.3,0.9c-0.2,0.2-0.5,0.3-0.7,0.3c-0.3,0-0.5-0.1-0.7-0.3c-0.2-0.2-0.3-0.5-0.3-0.9
		c0-0.3,0.1-0.6,0.3-0.9c0.2-0.2,0.4-0.3,0.7-0.3c0.3,0,0.5,0.1,0.7,0.3C52.5,30.8,52.6,31.1,52.6,31.5z"/>
	<path class="st19" d="M52.6,31.2c0,0.3-0.1,0.5-0.2,0.7c-0.2,0.2-0.4,0.3-0.6,0.3s-0.4-0.1-0.6-0.3c-0.2-0.2-0.3-0.4-0.3-0.7
		c0-0.3,0.1-0.5,0.3-0.7c0.1-0.2,0.3-0.3,0.6-0.3s0.4,0.1,0.6,0.3C52.5,30.7,52.6,31,52.6,31.2z"/>
	<path class="st20" d="M52.6,31.1c0,0.2-0.1,0.4-0.2,0.6c-0.1,0.2-0.3,0.3-0.5,0.3s-0.3-0.1-0.5-0.3c-0.1-0.2-0.2-0.4-0.2-0.6
		c0-0.2,0.1-0.4,0.2-0.6c0.1-0.2,0.3-0.3,0.5-0.3s0.4,0.1,0.5,0.3C52.5,30.7,52.6,30.9,52.6,31.1z"/>
</g>
<g>
	<path class="st15" d="M32.2,29.2c0.9,0.2,1.5,0.5,1.9,0.8c0.6,0.4,0.9,0.6,1,0.6l1-0.5c0.4-0.1,0.9-0.6,1.6-1.4l-0.2,2.9
		c0,0.3,0,0.6,0.3,1c0.2,0.3,0.4,0.5,0.7,0.7c0.3,0.2,0.5,0.7,0.7,1.4c-0.3-0.1-0.6-0.2-0.9-0.2c-0.5-0.1-0.7-0.1-0.4,0
		c0.4,0.3,1,1,1.6,2.3l-2-1.6c-0.7-0.5-1.3-0.6-1.9-0.1c-0.3,0.2-0.7,0.5-1.3,0.8l-0.8,0.4c0.6-1.1,0.7-2.1,0.4-2.9
		c-0.2-0.5-0.9-0.9-2-1.1l-1.7-0.2l0.4-0.3c0.3-0.2,0.7-0.3,1.1-0.3c0.6-0.1,1.2-0.1,1.7,0l0.3-0.2c0.1-0.2,0.1-0.4-0.1-0.6
		c-0.2-0.2-0.7-0.6-1.5-1L31,28.9C31,28.9,32.2,29.2,32.2,29.2z"/>
	<path class="st18" d="M37.2,32.7c0,0.5-0.2,0.9-0.5,1.3c-0.3,0.4-0.7,0.5-1.2,0.5c-0.4,0-0.8-0.2-1.1-0.5c-0.3-0.4-0.5-0.8-0.5-1.3
		c0-0.5,0.2-0.9,0.5-1.3c0.3-0.3,0.7-0.5,1.1-0.5c0.5,0,0.9,0.2,1.2,0.5C37.1,31.8,37.2,32.3,37.2,32.7z"/>
	<path class="st0" d="M36.4,32.7c0,0.3-0.1,0.6-0.3,0.9c-0.2,0.2-0.5,0.3-0.7,0.3c-0.3,0-0.5-0.1-0.7-0.3c-0.2-0.2-0.3-0.5-0.3-0.9
		s0.1-0.6,0.3-0.9c0.2-0.2,0.5-0.3,0.7-0.3c0.3,0,0.5,0.1,0.7,0.3C36.4,32.1,36.4,32.4,36.4,32.7z"/>
	<path class="st19" d="M36.4,32.5c0,0.3-0.1,0.5-0.3,0.7c-0.1,0.2-0.3,0.3-0.6,0.3s-0.4-0.1-0.6-0.3c-0.2-0.2-0.3-0.4-0.3-0.7
		s0.1-0.5,0.3-0.7c0.1-0.2,0.3-0.3,0.6-0.3c0.2,0,0.4,0.1,0.6,0.3C36.4,32,36.4,32.2,36.4,32.5z"/>
	<path class="st20" d="M36.4,32.4c0,0.2-0.1,0.4-0.2,0.6c-0.1,0.2-0.3,0.3-0.5,0.3s-0.3-0.1-0.5-0.3c-0.1-0.1-0.2-0.3-0.2-0.6
		c0-0.2,0.1-0.4,0.2-0.6c0.1-0.2,0.3-0.3,0.5-0.3s0.4,0.1,0.5,0.3C36.4,32,36.4,32.2,36.4,32.4z"/>
</g>
<g>
	<path class="st15" d="M45.7,39.5c0,0,0.2,0.1,0.6,0.3c0.3,0.1,0.6,0.1,1-0.1c0.6-0.4,1.1-0.6,1.4-0.6c-0.7,1-1.1,1.5-1.4,1.8
		c-0.2,0.2-0.3,0.5-0.3,1c0,0.5,0.1,0.8,0.4,0.9c0.3,0.1,0.8,0.6,1.4,1.3c-0.8-0.1-1.3-0.3-1.6-0.4c-0.2-0.1-0.5-0.1-0.9,0.1
		l-0.5,0.3l0.5,1.7l-0.9-1c-0.1-0.2-0.3-0.5-0.3-0.8L45,43.4c-0.5-0.1-0.9-0.1-1.3,0.1c-0.2,0.1-0.6,0.4-1.1,0.8l-0.7,0.6
		c0-0.2,0.1-0.4,0.2-0.6c0.1-0.4,0.3-0.7,0.5-0.9c0.3-0.3,0.7-0.7,1.2-1.1c0.2-0.9,0.1-1.4-0.3-1.6c-0.2-0.1-0.7-0.5-1.3-1.2
		l-0.9-0.9l0.9,0.2c0.6,0.2,1.1,0.4,1.5,0.5c0.5,0.3,0.7,0,0.4-1l0.7,0.6C45.2,39.3,45.5,39.5,45.7,39.5z"/>
	<path class="st18" d="M47.1,41.9c0,0.5-0.2,0.9-0.5,1.3c-0.3,0.4-0.7,0.5-1.2,0.5c-0.4,0-0.8-0.2-1.1-0.5c-0.3-0.4-0.5-0.8-0.5-1.3
		s0.2-0.9,0.5-1.3c0.3-0.3,0.7-0.5,1.1-0.5c0.5,0,0.9,0.2,1.2,0.5C46.9,41,47.1,41.4,47.1,41.9z"/>
	<path class="st0" d="M46.3,41.9c0,0.3-0.1,0.6-0.3,0.9c-0.2,0.2-0.5,0.3-0.7,0.3c-0.3,0-0.5-0.1-0.7-0.3c-0.2-0.2-0.3-0.5-0.3-0.9
		s0.1-0.6,0.3-0.9c0.2-0.2,0.5-0.3,0.7-0.3c0.3,0,0.5,0.1,0.7,0.3C46.2,41.2,46.3,41.5,46.3,41.9z"/>
	<path class="st19" d="M46.3,41.6c0,0.3-0.1,0.5-0.3,0.7c-0.1,0.2-0.3,0.3-0.6,0.3s-0.4-0.1-0.6-0.3c-0.2-0.2-0.3-0.4-0.3-0.7
		s0.1-0.5,0.3-0.7c0.1-0.2,0.3-0.3,0.6-0.3s0.4,0.1,0.6,0.3C46.2,41.1,46.3,41.4,46.3,41.6z"/>
	<path class="st20" d="M46.3,41.5c0,0.2-0.1,0.4-0.2,0.6c-0.1,0.2-0.3,0.3-0.5,0.3c-0.2,0-0.4-0.1-0.5-0.3c-0.1-0.1-0.2-0.3-0.2-0.6
		c0-0.2,0.1-0.4,0.2-0.6c0.1-0.2,0.3-0.3,0.5-0.3c0.2,0,0.4,0.1,0.5,0.3C46.2,41.1,46.3,41.3,46.3,41.5z"/>
</g>
<g>
	<path class="st15" d="M36.9,49.8l1.4,0.8c0.9-1.1,1.5-1.8,1.7-2l-0.3,0.7c-0.1,0.4,0,0.5,0.2,0.3c0.4-0.4,1.3-0.7,2.6-1
		c-0.5,0.4-1,0.9-1.3,1.3c-0.3,0.4-0.5,0.9-0.6,1.5c-0.1,0.6,0,0.9,0.3,1c0.4,0.1,1,0.5,1.7,1.1c-0.5,0-1,0-1.3,0s-0.4,0.1-0.3,0.2
		c0.3,0.2,0.5,0.3,0.6,0.4c0.3,0.3,0.5,0.7,0.8,1.2l-1.6-0.8c-0.7-0.3-1.1-0.5-1.3-0.5c-0.5-0.1-1,0.1-1.5,0.6l-2,1.7l0.9-1.7
		c0.2-0.3,0.5-0.6,0.8-1c-0.5-1.3-1.1-2-1.6-2.2c-0.3-0.1-0.7-0.2-1.2-0.3l-0.6-0.1h1.5c0.6,0,1,0.1,1.2,0.2
		c0.2-0.1,0.1-0.3-0.1-0.6c-0.1-0.2-0.6-0.5-1.3-0.9l-1.1-0.5l0.9,0.1C36,49.5,36.5,49.6,36.9,49.8L36.9,49.8z"/>
	<path class="st18" d="M40.3,52.5c0,0.5-0.2,0.9-0.5,1.3c-0.3,0.3-0.7,0.5-1.1,0.5c-0.5,0-0.9-0.2-1.2-0.5c-0.3-0.4-0.5-0.8-0.5-1.3
		c0-0.5,0.2-0.9,0.5-1.3c0.3-0.4,0.7-0.5,1.2-0.5c0.4,0,0.8,0.2,1.1,0.5C40.2,51.6,40.3,52,40.3,52.5z"/>
	<path class="st0" d="M39.6,52.5c0,0.3-0.1,0.6-0.3,0.9c-0.2,0.2-0.5,0.3-0.7,0.3s-0.5-0.1-0.7-0.3c-0.2-0.2-0.3-0.5-0.3-0.9
		s0.1-0.6,0.3-0.9c0.2-0.2,0.4-0.3,0.7-0.3c0.3,0,0.5,0.1,0.7,0.3C39.5,51.9,39.6,52.1,39.6,52.5z"/>
	<path class="st19" d="M39.6,52.2c0,0.3-0.1,0.5-0.2,0.7c-0.2,0.2-0.4,0.3-0.6,0.3s-0.4-0.1-0.6-0.3c-0.2-0.2-0.3-0.4-0.3-0.7
		s0.1-0.5,0.3-0.7c0.1-0.2,0.3-0.3,0.6-0.3s0.4,0.1,0.6,0.3C39.5,51.7,39.6,52,39.6,52.2z"/>
	<path class="st20" d="M39.6,52.1c0,0.2-0.1,0.4-0.2,0.6c-0.1,0.2-0.3,0.3-0.5,0.3s-0.3-0.1-0.5-0.3c-0.1-0.1-0.2-0.3-0.2-0.6
		c0-0.2,0.1-0.4,0.2-0.6c0.1-0.1,0.3-0.2,0.5-0.2s0.4,0.1,0.5,0.2C39.5,51.7,39.6,51.9,39.6,52.1L39.6,52.1z"/>
</g>
<g>
	<path class="st15" d="M54.7,48.7c0.4-0.2,0.7-0.1,0.9,0.3l-0.9,1c-0.2,0.2-0.3,0.6-0.3,1c0,0.5,0.1,0.8,0.3,1.1
		c0.2,0.3,0.7,0.9,1.3,1.6l-2.6-0.6c-0.1,0-0.4,0.1-0.7,0.3c-0.3,0.1-0.5,0.3-0.7,0.4l-1.3,0.9l0.5-1.2c0.1-0.2,0.1-0.5,0.1-0.8
		L50.9,53l-1.1,0.8l0.3-0.6c0.2-0.4,0.4-0.7,0.5-0.8c0.2-0.2,0.3-0.5,0.4-1c0-0.5-0.1-0.8-0.3-0.9c-0.2-0.1-0.6-0.2-1.2-0.3L48.6,50
		l1.4-0.3c0.7,0,1-0.1,1-0.3c-0.1-0.2-0.4-0.5-1-0.9l-0.9-0.6l0.8,0.2c0.6,0.1,1,0.3,1.1,0.4c0.3,0.2,0.6,0.4,1.1,0.7l0.3-0.4
		c0.1-0.2,0.5-0.5,1-1c0.3-0.3,1-0.6,2-1c-0.5,0.6-0.9,1.1-1.2,1.3c-0.1,0.1-0.3,0.3-0.4,0.5c-0.1,0.1-0.1,0.2-0.1,0.3h0.2
		C54.2,49,54.4,48.9,54.7,48.7L54.7,48.7z"/>
	<path class="st18" d="M54.2,51.4c0,0.5-0.2,0.9-0.5,1.3c-0.3,0.3-0.7,0.5-1.2,0.5c-0.5,0-0.9-0.2-1.2-0.5c-0.3-0.4-0.5-0.8-0.5-1.3
		s0.2-0.9,0.5-1.3c0.3-0.3,0.7-0.5,1.2-0.5c0.5,0,0.9,0.2,1.2,0.5C54,50.5,54.2,50.9,54.2,51.4z"/>
	<path class="st0" d="M53.4,51.4c0,0.3-0.1,0.6-0.3,0.9c-0.2,0.2-0.5,0.3-0.7,0.3c-0.3,0-0.5-0.1-0.7-0.3c-0.2-0.2-0.3-0.5-0.3-0.9
		s0.1-0.6,0.3-0.9c0.2-0.2,0.4-0.3,0.7-0.3c0.3,0,0.5,0.1,0.7,0.3C53.3,50.8,53.4,51.1,53.4,51.4z"/>
	<path class="st21" d="M53.4,51.2c0,0.3-0.1,0.5-0.2,0.7c-0.2,0.2-0.4,0.3-0.6,0.3c-0.2,0-0.4-0.1-0.6-0.3c-0.1-0.2-0.2-0.4-0.2-0.7
		c0-0.3,0.1-0.5,0.2-0.7c0.2-0.2,0.4-0.3,0.6-0.3c0.2,0,0.4,0.1,0.6,0.3C53.3,50.7,53.4,50.9,53.4,51.2z"/>
	<path class="st20" d="M53.4,51.1c0,0.2-0.1,0.4-0.2,0.6c-0.1,0.2-0.3,0.3-0.5,0.3s-0.3-0.1-0.5-0.3c-0.1-0.2-0.2-0.4-0.2-0.6
		c0-0.2,0.1-0.4,0.2-0.6c0.1-0.2,0.3-0.3,0.5-0.3s0.4,0.1,0.5,0.3C53.3,50.6,53.4,50.8,53.4,51.1z"/>
</g>
<path class="st0" d="M78.3,66.3c-3.1-1.5-6.4-2.9-9.7-4.4c-2.3-1-4.5-1.8-6.5-2.3L59.7,59c-0.1-0.7-0.2-1.5-0.3-2.4
	c-0.1-1.8,0-3.1,0.4-3.9c0.6-1.1,1.2-1.9,1.7-2.3c0.8-0.6,1.9-0.8,3.4-0.7c2.3,0.1,6.5,1.4,12.8,3.8c3,1.2,5,2.4,6,3.6
	c0.5,0.6,0.6,1.1,0.5,1.5c-0.4-0.1-0.9-0.1-1.5,0c-1.2,0.1-2.2,0.6-3.1,1.4c-0.9,0.8-1.4,2.1-1.5,3.9C78.1,64.7,78.1,65.5,78.3,66.3
	L78.3,66.3z"/>
<linearGradient id="SVGID_10_" gradientUnits="userSpaceOnUse" x1="-113.2552" y1="118.1438" x2="-76.147" y2="118.1438" gradientTransform="matrix(-0.8912 -0.4535 -0.4535 0.8912 45.1173 -88.3894)">
	<stop  offset="0.1725" style="stop-color:#000000;stop-opacity:0"/>
	<stop  offset="1" style="stop-color:#000000;stop-opacity:0.2667"/>
</linearGradient>
<path class="st22" d="M78.3,66.3c-3.1-1.5-6.4-2.9-9.7-4.4c-2.3-1-4.5-1.8-6.5-2.3L59.7,59c-0.1-0.7-0.2-1.5-0.3-2.4
	c-0.1-1.8,0-3.1,0.4-3.9c0.6-1.1,1.2-1.9,1.7-2.3c0.8-0.6,1.9-0.8,3.4-0.7c2.3,0.1,6.5,1.4,12.8,3.8c3,1.2,5,2.4,6,3.6
	c0.5,0.6,0.6,1.1,0.5,1.5c-0.4-0.1-0.9-0.1-1.5,0c-1.2,0.1-2.2,0.6-3.1,1.4c-0.9,0.8-1.4,2.1-1.5,3.9C78.1,64.7,78.1,65.5,78.3,66.3
	L78.3,66.3z"/>
<path class="st9" d="M18.9,33.8c-1.6-1.6-3-4.2-4.2-7.8c-1.2-3.6-1.7-6.9-1.6-9.7c0.1,0.4,0.7,0.8,1.5,1c0.8,0.2,1.6,0.2,2.2,0
	l0.9-0.3c-0.4,2.6,0,5.8,1.2,9.7c1.2,3.8,2.6,6.4,4.2,8c2,2,3.9,5.3,5.5,9.9c1.6,4.6,2,7.8,1.1,9.6L26.9,60c-0.3,0-1.2,0-2.6-0.3
	c-1.5-0.2-2.4-0.3-2.6-0.3c0.2-0.4,0.9-1.2,2-2.5s1.9-2.3,2.3-3.2c0.9-1.8,0.5-5.1-1.2-9.8C23,39.3,21.1,35.9,18.9,33.8z"/>
<path class="st7" d="M16.4,19.3c-0.2,2.6,0.4,5.7,1.8,9.4c1.4,3.5,2.9,6.1,4.4,7.7c1.7,1.7,3.3,4.5,4.9,8.4c1.5,3.9,2.3,7,2.2,9.3
	c-0.4,0.8-1.3,2.7-2.8,5.8c-0.1,0-1.3-0.1-3.5-0.4c0.8-1.1,1.3-1.8,1.4-2c0.5-0.8,1-1.6,1.2-2.3c0.3-0.7,0.3-1.6,0.2-2.8
	c0.3-2.3-0.3-5.5-2-9.7c-1.6-4.2-3.4-7.2-5.4-9.1c-1.4-1.3-2.6-3.4-3.7-6.4c-1.1-2.9-1.8-5.7-2-8.5c0.3,0.2,0.6,0.5,0.9,0.8
	c0.3,0.2,0.6,0.3,1,0.2C15.1,19.8,16.4,19.3,16.4,19.3z"/>
<path class="st19" d="M27.6,12.7c0,0.1-0.4,0.3-1,0.5c-0.8,0.2-1.5,0.4-2,0.6c-0.8,0.3-1.4,0.8-1.7,1.5c-0.3,0.6-0.7,0.9-1.1,0.8
	C21.1,16,20.9,15.6,21,15C22.1,13.5,24.3,12.8,27.6,12.7z"/>
<path class="st19" d="M37.3,9.4c-0.8,0.2-1.1,0-1-0.6c1.6-1.4,3.3-2,4.9-1.8c0.8,0.1,1.6,0.2,2.4,0.4c-0.8,0-1.4,0.1-1.8,0.1
	c-0.9,0.1-1.8,0.3-2.5,0.8C38.4,8.9,37.7,9.3,37.3,9.4z"/>
<path class="st15" d="M38.3,10.2l-3.4,3.8l-2.1-0.8l0.4-0.7c0.4-0.6,0.8-1.1,1.2-1.6c0.1,0.2,0.4,0.3,0.8,0.3
	C36.3,11.1,37.4,10.8,38.3,10.2z"/>
<path class="st20" d="M43.5,9.2c-2.2-0.2-4.3,0.7-6.2,2.5l-2.2,2.8c-0.9-0.2-2-0.3-3.2-0.4c-2.5-0.1-4.5,0.3-6.1,1.2
	c-0.9,0.5-1.7,1.3-2.3,2.2l-0.7,1.4l-0.1,0.5c0-1.6,0.3-2.7,0.8-3.5c1-1.6,3.2-2.4,6.6-2.4c1.7,0,3.3,0.1,4.8,0.4l2.2-3
	C39,9,41,8,42.9,8s3.7,0.9,5.1,2.8c0.7,0.9,1.2,1.8,1.5,2.8l1.1-0.4c0.9-0.3,1.8-0.5,2.7-0.6c2.9-0.2,5,0.7,6.5,2.9
	c0.6,0.8,0.9,2,1,3.5c-0.5-0.9-1-1.7-1.4-2.3c-0.8-1.3-1.7-2.1-2.5-2.6c-1.5-0.9-3.3-1.1-5.2-0.7l-2.4,0.9c-0.1-0.8-0.5-1.5-1-2.3
	C47.2,10.3,45.6,9.4,43.5,9.2z"/>
<path class="st23" d="M34.3,8l-2.9,3.4c-1.5-0.1-3.6-0.4-6.3-0.8c-1.6-0.2-3.3,0.2-5.2,1.4c-1.8,1.4-3.1,2.2-3.8,2.6
	c-1.1,0.5-2,0.2-2.5-1.1c0.1-0.3,0.3-0.7,0.5-1c2-2.8,5.3-3.9,10-3.5c2.3,0.3,4.4,0.8,6.4,1.6c0.1-0.3,0.2-0.6,0.4-1
	c0.4-0.8,0.8-1.6,1.4-2.4c1.8-2.3,4.1-3.6,7.1-3.8c2.4-0.2,4.7,0.7,6.9,2.7c1.1,1,2,2,2.6,3l0.8-0.3c0.6-0.2,1.3-0.4,2.1-0.4
	c2.4-0.1,4.8,0.7,7.2,2.5c0.5,0.3,0.9,0.8,1.2,1.3c-1.8-0.9-3.3-1.5-4.4-1.7c-1.1-0.2-2.4-0.2-4,0.1l-2,0.5l-0.6-1.1
	c-0.6-0.8-1.3-1.5-2.3-2.3c-2-1.6-4-2.5-6.1-2.6C38.8,4.7,36.6,5.7,34.3,8z"/>
<path class="st11" d="M27.2,11.3c-3,0.1-4.9,0.4-5.9,1s-1.8,1.6-2.7,2.9l-1,1.8c0-0.7,0.1-1.4,0.4-2.2c0.5-1.6,1.5-2.7,2.9-3.4
	c1.4-0.7,3.5-0.9,6.4-0.6c1.4,0.1,2.7,0.3,3.9,0.5C30.1,11.2,28.7,11.2,27.2,11.3z"/>
<path class="st11" d="M33.2,9.3l2-2.2c1.8-1.5,3.6-2.2,5.7-2.2s4.1,1,6.3,3c1.1,1,2,2,2.6,3c-0.9-1-1.9-1.9-3.2-2.8
	c-2.4-1.8-4.4-2.6-6.1-2.4c-1.6,0.2-3.3,0.9-5.1,2C35.5,7.7,33.2,9.3,33.2,9.3z"/>
<path class="st11" d="M52,10.4l2.1-0.1c1.6,0,2.9,0.1,3.8,0.3c0.6,0.1,1,0.3,1.3,0.6c0.7,0.5,1.2,1.3,1.5,2.3c0.1,0.5,0.2,1,0.2,1.4
	c-0.1-0.5-0.3-1-0.6-1.5c-0.6-1.1-1.3-1.7-2.1-1.9c-0.8-0.2-2.1-0.5-3.9-0.8C54.4,10.8,52,10.4,52,10.4z"/>
<path class="st16" d="M82.7,56.2l0.6,0.5l0.9,2c-0.4-0.1-0.9-0.1-1.5,0c-1.2,0.1-2.2,0.6-3.1,1.4c-1.1,1-1.6,2.7-1.5,5L78,65.1
	l-2.5-1.3c0.1-1,0.3-2.1,0.7-3.2c0.6-2.2,1.4-3.5,2.4-3.9C79.9,56.2,81.2,56,82.7,56.2L82.7,56.2z"/>
<path class="st16" d="M80.2,67.9c0.6,1.8,0.3,3.8-0.9,6.1c-0.6,1.1-1.2,2.1-2,2.9l-26.5,1.3L50,76.9c0.3-1.1,0.8-2,1.6-2.5
	c1.4-1,2.1-2.5,2.2-4.5c0.1-1.9-0.5-3.7-1.7-5.2v-0.5l0-0.1V64l0-0.1l0-0.1l0-0.2l0-0.1l0-0.2L51.8,63l-0.1-0.2l-0.1-0.1l-0.1-0.2
	l-0.4-0.7l0-0.1c-0.6-0.9-1.5-1.8-2.6-2.8l7.5-0.6l11.6,3.2C75.4,64,79.6,66.1,80.2,67.9L80.2,67.9z"/>
<path class="st15" d="M80.4,69.3c0.1,1.6-0.4,3.3-1.5,5.2l-1.6,2.3l-26.5,1.3L50,76.9c0.3-1.1,0.8-2,1.6-2.5
	c0.8-0.6,1.5-1.4,1.9-2.5c2.1,0.7,4.2,1.3,6.4,1.7c3.5,0.7,6.5,0.9,8.9,0.6c2.8-0.4,5.6-1.4,8.2-3.2c1.4-0.9,2.4-1.8,3.2-2.6
	L80.4,69.3L80.4,69.3z"/>
<path class="st24" d="M72.2,79.6c-6,0.9-12.6,1.4-19.6,1.3c-2.8,0-4.6-0.4-5.3-1.1c-0.2-0.2-0.3-0.4-0.3-0.7l0.1-0.3l4.7-1.1
	c3.9-0.8,7.8-1.1,11.6-1.1h14.1l2.2,0.3c1.3,0.3,1.7,0.5,1.1,0.9C79.4,78.3,76.6,79,72.2,79.6z"/>
<path class="st20" d="M80.2,68.4c-5.5-0.3-10-0.3-13.3-0.2c-2.1,0.1-5.9,0.7-11.3,1.8L48,71.6l0.4-1.6l5.8-0.9
	c4.4-0.6,7.8-1.1,10.2-1.3c2.6-0.3,6-0.3,10.2-0.2c2.1,0.1,3.9,0.2,5.5,0.3L80.2,68.4L80.2,68.4z"/>
<path class="st9" d="M22.5,60.6l5.1,0.2l2.1,12.4c-1.1,0-2.3-0.1-3.6-0.3c-2.6-0.5-4.5-1.5-5.5-2.9c-0.8-1.1-0.7-3,0.2-5.6
	L22.5,60.6L22.5,60.6z"/>
<path class="st25" d="M34.6,76.5c-3-1.3-5.2-2.3-6.6-3c-2.4-1.2-4-2.5-4.6-3.8c-0.6-1.3-0.5-3,0.4-5.3l1.5-3l23,7.2L47.2,83
	C42,80.2,37.8,78.1,34.6,76.5z"/>
<path class="st8" d="M51.6,74.4c-0.8,0.5-1.3,1.4-1.6,2.5c-0.3,1.1-0.2,2.1,0.3,2.8c0.4,0.6,4.4,0.8,12,0.4
	c3.8-0.2,7.6-0.4,11.3-0.7L67.3,86c-0.9,0.2-1.9,0.3-3.1,0.2c-2.3-0.2-4.2-1.1-5.6-2.7c-0.7-0.7-1.9-0.9-3.8-0.5
	c-2,0.6-3.3,1-3.8,1.1c-1.4,0.3-2.9,0.1-4.4-0.7c-2-1-2.9-2.8-2.7-5.2c0.1-0.7,0.3-1.4,0.8-2.2c0.5-0.8,0.7-1.4,0.7-1.8
	c0-0.5-0.3-0.9-0.9-1.1l-0.9-0.2c-4.3-1.4-8.6-3.1-12.9-5.1c-8.5-4-12.6-7.5-12.2-10.5c0.4-3.1,1.4-5.1,3.1-6.2
	c0.8-0.5,1.6-0.8,2.4-0.7l13,6c8.9,4.2,13.9,7,15,8.3c1.2,1.5,1.8,3.3,1.7,5.2C53.7,71.9,53,73.4,51.6,74.4L51.6,74.4z"/>
<path class="st9" d="M48.5,61.9c2.1,1.3,3.3,2.2,3.7,2.9l0.3,0.6c-2.6-1.1-4.6-1.2-6-0.3c-1.4,1-2.3,2-2.7,3.1
	c-0.4,1.2-0.2,2.2,0.6,3c1.1,1.1,2.2,2,3.4,2.7l-1,2.8c-0.5,2-0.4,3.5,0.3,4.3c0.7,0.9,1.6,1.4,2.5,1.4c0.5,0,1.4-0.1,2.5-0.3
	c0.6-0.1,1.8-0.3,3.8-0.6c1.9-0.1,3.5,0.2,4.9,0.9c1.9,1,2.9,1.5,3,1.5c0.9,0.4,1.8,0.7,2.7,0.8c0.2,0,1.2,0,2.9-0.1
	c1.8-0.1,2.8-0.1,2.9-0.2L67.3,86c-0.9,0.2-1.9,0.3-3.1,0.2c-2.3-0.2-4.2-1.1-5.6-2.7c-0.7-0.7-1.9-0.9-3.8-0.5
	c-2,0.6-3.3,1-3.8,1.1c-1.4,0.3-2.9,0.1-4.4-0.7c-2-1-2.9-2.8-2.7-5.2c0.1-0.7,0.3-1.3,0.7-1.8c0.4-0.6,0.6-1,0.7-1.4
	c0-0.5-0.2-1-0.8-1.5l-0.8-0.6c-4.3-1.4-8.6-3.1-12.9-5.1c-8.5-4-12.6-7.5-12.2-10.5c0-0.4,0.1-1,0.3-1.7h0l0.7-2.1l0.1-0.1
	c0.1,0.9,0.5,1.9,1.4,3c1.6,2,4.1,3.7,7.7,5.1c3,1.1,6.6,1.6,10.9,1.3C42.2,62.7,45,62.4,48.5,61.9L48.5,61.9z"/>
<path class="st0" d="M52.1,64.7c0-0.2-0.2-0.4-0.6-0.6c-0.8-0.4-2-0.6-3.8-0.6c-1.7,0-3.2,0.9-4.4,2.6L42,68.7
	c-3.2-1.5-6.4-3-9.8-4.5c-6.6-3.1-10.2-5-10.7-5.5c-0.7-0.7-0.7-1.8,0-3.5c0.7-1.6,1.8-2.8,3.2-3.6c1.5-0.7,3.8-0.8,7.1-0.2
	c3.1,0.6,6.1,1.5,9,2.9c5.1,2.4,8.5,4.8,10.2,7.4C51.9,62.9,52.3,64,52.1,64.7L52.1,64.7z"/>
<linearGradient id="SVGID_11_" gradientUnits="userSpaceOnUse" x1="-74.5255" y1="134.0018" x2="-44.0384" y2="134.0018" gradientTransform="matrix(-0.8788 -0.4771 -0.4771 0.8788 47.4537 -87.1574)">
	<stop  offset="0.1725" style="stop-color:#000000;stop-opacity:0"/>
	<stop  offset="1" style="stop-color:#000000;stop-opacity:0.2667"/>
</linearGradient>
<path class="st26" d="M52.1,64.7c0-0.2-0.2-0.4-0.6-0.6c-0.8-0.4-2-0.6-3.8-0.6c-1.7,0-3.2,0.9-4.4,2.6L42,68.7
	c-3.2-1.5-6.4-3-9.8-4.5c-6.6-3.1-10.2-5-10.7-5.5c-0.7-0.7-0.7-1.8,0-3.5c0.7-1.6,1.8-2.8,3.2-3.6c1.5-0.7,3.8-0.8,7.1-0.2
	c3.1,0.6,6.1,1.5,9,2.9c5.1,2.4,8.5,4.8,10.2,7.4C51.9,62.9,52.3,64,52.1,64.7L52.1,64.7z"/>
<path class="st16" d="M50.8,61.3c0.7,0.9,1.1,1.7,1.3,2.5c0.1,0.4,0.1,0.7,0.1,0.9c0-0.2-0.2-0.4-0.6-0.6c-0.8-0.4-2-0.6-3.8-0.6
	c-1.7,0-3.2,0.9-4.4,2.6L42,68.7c-3.2-1.5-6.4-3-9.8-4.5c-6.6-3.1-10.2-5-10.7-5.5c-0.3-0.3-0.5-0.8-0.5-1.3c0-0.6,0.1-1.2,0.3-1.8
	c0.3,0.2,1.8,1.1,4.6,2.9c3,1.8,5.1,3,6.5,3.5c2.3,0.9,4.9,1.6,7.8,2.3l2.2-1.9c1.7-1.3,3.1-1.9,4.2-1.9
	C47.9,60.4,49.3,60.7,50.8,61.3L50.8,61.3z"/>
<path class="st0" d="M80.2,67.7l-0.1,0.6c-4.3-0.5-10.3-0.6-18-0.3c-2.7,0.1-5.4,0.5-8.2,1c-0.1-1.7-0.7-3.2-1.7-4.5V64l0-0.1v-0.2
	l0-0.1l0-0.1l0-0.2l0-0.1l0-0.2l-0.1-0.4l-0.1-0.2l-0.1-0.1l-0.1-0.2l-0.4-0.7l0-0.1c-0.5-0.8-1.3-1.6-2.1-2.3l10.8-1l10.5,3.5
	C77.2,64.2,80.5,66.3,80.2,67.7L80.2,67.7z"/>
<radialGradient id="SVGID_12_" cx="60.0259" cy="-218.1737" r="33.5749" gradientTransform="matrix(1 0 0 0.2593 0 118.5892)" gradientUnits="userSpaceOnUse">
	<stop  offset="0.3137" style="stop-color:#130C0E;stop-opacity:0"/>
	<stop  offset="0.7961" style="stop-color:#130C0E;stop-opacity:0.651"/>
	<stop  offset="1" style="stop-color:#130C0E;stop-opacity:0.949"/>
</radialGradient>
<path class="st27" d="M80,67.5l-0.1,0.6c-4.3-0.5-10.3-0.6-18-0.3c-2.7,0.1-5.4,0.5-8.2,1c-0.1-1.7-0.7-3.2-1.7-4.5v-0.5l0-0.1v-0.2
	l0-0.1l0-0.1l0-0.2l0-0.1l0-0.2l-0.1-0.4l-0.1-0.2l-0.1-0.1l-0.3-0.6l-0.3-0.4l0-0.1c-0.5-0.8-1.3-1.6-2.1-2.3l10.8-1L70,61.4
	C77,64.1,80.3,66.1,80,67.5L80,67.5z"/>
<path class="st15" d="M32.5,61.9c2.3,0.9,4.9,1.6,7.8,2.3l1.3,4.4c-6.1-2.9-9.7-4.5-10.7-5c-5.7-2.7-8.9-4.4-9.4-4.9
	c-0.3-0.3-0.5-0.8-0.5-1.3c0-0.6,0.1-1.2,0.3-1.8c0.3,0.2,1.8,1.1,4.6,2.9C29,60.2,31.2,61.4,32.5,61.9L32.5,61.9z"/>
<path class="st7" d="M52.3,69.3c0,0.9-0.3,1.7-0.9,2.4c-0.6,0.7-1.4,1-2.3,1c-0.9,0-1.7-0.3-2.3-1c-0.6-0.7-1-1.5-1-2.4
	c0-0.9,0.3-1.7,1-2.4c0.6-0.7,1.4-1,2.3-1c0.9,0,1.6,0.3,2.3,1C52,67.5,52.3,68.3,52.3,69.3L52.3,69.3z"/>
<path class="st12" d="M51.5,69.7c0,0.8-0.3,1.5-0.8,2.1c-0.5,0.6-1.2,0.9-2,0.9c-0.8,0-1.4-0.3-2-0.9c-0.5-0.6-0.8-1.3-0.8-2.1
	c0-0.8,0.3-1.5,0.8-2.1c0.5-0.6,1.2-0.9,2-0.9c0.8,0,1.4,0.3,2,0.9C51.2,68.2,51.5,68.9,51.5,69.7z"/>
<path class="st7" d="M25.1,67l7.6,4c1.8,0.9,5.1,2,9.9,3.2c-0.5,0.4-1.3,0.7-2.3,0.9c-2.1,0.4-4.4,0-7.1-1c-2.5-1-4.6-2.5-6.4-4.4
	L25.1,67L25.1,67z"/>
<path class="st7" d="M43.7,72.9c-4.6-1.5-9.1-3.3-13.2-5.3c-8.3-3.9-12.2-7.4-11.8-10.3c0,0,0-0.2,0.1-0.5c1.2,0.6,3.8,1.9,7.8,3.9
	c2.7,1.4,7.8,4,15,7.8l0.4,1.7C42.4,71.5,43,72.4,43.7,72.9L43.7,72.9z"/>
<path class="st7" d="M86.7,64.3c0,0.9-0.3,1.7-0.9,2.4c-0.6,0.7-1.4,1-2.2,1c-0.9,0-1.6-0.3-2.2-1c-0.6-0.7-1-1.5-1-2.4
	c0-0.9,0.3-1.7,1-2.4c0.6-0.7,1.4-1,2.2-1c0.9,0,1.6,0.3,2.2,1C86.4,62.6,86.7,63.4,86.7,64.3z"/>
<path class="st12" d="M86,64.7c0,0.8-0.3,1.5-0.8,2.1c-0.6,0.6-1.2,0.9-2,0.9s-1.4-0.3-2-0.9c-0.5-0.6-0.8-1.3-0.8-2.1
	c0-0.8,0.3-1.5,0.8-2.1c0.5-0.6,1.2-0.9,2-0.9c0.8,0,1.5,0.3,2,0.9C85.7,63.2,86,63.9,86,64.7L86,64.7z"/>
<path class="st11" d="M51.2,64.9c-1.1-0.3-2.1-0.2-3.3,0.2c-1.1,0.4-2.2,1.1-3.3,2.1l-1.3,1.4l0.9-1.9c0.9-1.3,2.1-2.1,3.7-2.3
	c1.6-0.2,2.8-0.1,3.7,0.3c0.4,0.2,0.7,0.5,0.8,0.7C52.1,65.2,51.7,65,51.2,64.9z"/>
<path class="st11" d="M85.5,59.6c-1.3,0.1-2.6,0.5-3.7,1.1c-1.1,0.7-1.8,1.6-2.1,2.7c0,0.1,0,0.2,0,0.3c0-0.2,0-0.3,0-0.5
	c0.2-1.3,0.7-2.3,1.5-2.9c1-0.7,2-1.1,3-1C84.8,59.3,85.2,59.4,85.5,59.6L85.5,59.6z"/>
<path class="st11" d="M50.2,80.2l7,0.3c5.2,0.1,9.1,0,11.8-0.3c2.7-0.3,5.5-0.8,8.5-1.6c1.5-0.4,2.7-0.7,3.7-1
	c-0.6,0.5-1.6,1-2.9,1.5c-2.7,1-5.7,1.6-9.3,1.9c-2.6,0.2-6.5,0.1-11.8-0.2L50.2,80.2z"/>
<path class="st20" d="M48.6,60.4c-1.6-0.1-2.8,0-3.7,0.3c-0.9,0.4-1.9,1-3.1,2l-1.5,1.4l1.6-1.9c1.2-1.3,2.3-2,3.2-2.2
	c0.9-0.2,2.1-0.1,3.7,0.2c0.8,0.1,1.4,0.3,2,0.5C50.1,60.6,49.4,60.5,48.6,60.4L48.6,60.4z"/>
<path class="st20" d="M30.1,60.3c1.6,0.8,5,1.9,10.2,3.3c-1-0.1-2.1-0.3-3.5-0.6c-2.7-0.6-5-1.3-6.8-2.1c-1.2-0.5-3-1.6-5.4-3.2
	l-3.2-2.2C21.4,55.5,30.1,60.3,30.1,60.3z"/>
<path class="st7" d="M22.8,70.4c0.5,0.6,1,1.2,1.5,1.9c-1.7-0.5-2.9-1.4-3.7-2.4c-0.7-0.9-0.7-2.3-0.2-4.2c0,0.4,0.1,0.5,0.4,0.4
	c0.7-0.2,1.2-0.6,1.7-1.3L22.1,67C22,68.7,22.2,69.8,22.8,70.4L22.8,70.4z"/>
<path class="st7" d="M46.1,76.8c-0.3,1-0.5,1.9-0.5,2.9c0,1.7,0.5,2.8,1.6,3.3c0.6,0.3,1,0.6,1.2,1.1c-1.4-0.3-2.4-0.8-3.2-1.6
	c-1-1.1-1.4-2.5-1.2-4.2l0.2-0.8c0.1,0.2,0.3,0.5,0.4,0.9c0.1,0.3,0.2,0.3,0.4,0.2c0.3-0.2,0.5-0.5,0.8-0.9
	C45.9,77.2,46.1,77,46.1,76.8L46.1,76.8z"/>
<path class="st10" d="M49.1,77.3l0.9-1.8l-0.5,2c-0.2,1.4,0,2.3,0.7,2.7c1,0.6,2.2,0.9,3.5,0.8c-0.6,0.3-1.2,0.4-1.9,0.5
	c-1.4,0.1-2.4-0.3-2.9-1.2C48.5,79.7,48.6,78.6,49.1,77.3L49.1,77.3z"/>
<path class="st10" d="M83.3,71.5l0.4,1.9c0.2,1.4,0.2,2.4-0.1,2.9c-0.5,0.8-1.2,1.5-2.3,2c0.9-1.2,1.4-2.3,1.6-3.1
	c0.1-0.5,0.2-1.3,0.3-2.3L83.3,71.5L83.3,71.5z"/>
<path class="st9" d="M73.6,81.7L73.6,81.7l-0.1-1l2.8-0.4c2-0.3,3.4-0.7,4-1l2.9-1.6c-1.1,1.8-4,3-8.9,3.6
	C74,81.3,73.8,81.5,73.6,81.7L73.6,81.7z"/>
<path class="st9" d="M85.4,69.5l-1.9,1l-1.1-1l1.2-0.2c0.9-0.2,1.6-0.6,2.1-1.2l1.6-1.9C87,67.9,86.4,69,85.4,69.5L85.4,69.5z"/>
<path class="st11" d="M21.7,32.6c-0.8-0.9-1.4-1.7-1.8-2.5c-0.5-1-1-2.6-1.3-4.7l-0.4-2.8l0.6,2.9c0.5,2.1,1,3.5,1.5,4.3
	c0.3,0.5,1.1,1.6,2.2,3.1l1.5,1.7c0.7,0.8,1.4,1.8,2.2,3c1,1.6,1.7,3,2.1,4.4c0.7,2,1.1,4.5,1.4,7.4c-0.6-2.7-1.1-4.7-1.7-6.1
	c-0.4-1.1-1.1-2.5-2-4.2c-1-1.8-1.7-3-2.2-3.7C23.6,35.4,21.7,32.6,21.7,32.6z"/>
<path class="st7" d="M63.2,85.1l3.6,0.6l-1.3,0.6c-2.9,0.1-5.2-0.8-6.9-2.7c-0.7-0.7-1.9-0.9-3.8-0.5c-2,0.6-3.3,1-3.8,1.1
	c-0.5,0.1-1.2,0.1-2.1,0c-1-0.1-1.9-0.4-2.6-0.9l-0.1-1.2l1.3,0.8c1.1,0.5,2.3,0.6,3.5,0.4c0.8-0.1,2-0.5,3.9-1.1
	c1.3-0.4,2.2-0.5,2.7-0.3c0.4,0.1,1.2,0.7,2.6,1.6C61.5,84.5,62.5,85,63.2,85.1L63.2,85.1z"/>
<path class="st10" d="M62.9,81.8l2.7,0c2,0,3.4-0.1,4.3-0.2c1.5-0.1,2.5-0.3,3-0.5c-0.3,1.6-0.7,2.5-1.3,2.7
	c-0.5,0.2-1.3,0.2-2.5,0.2c-1.3,0-2.4-0.2-3.2-0.5c-0.7-0.3-1.5-0.6-2.2-1.1C63.9,82.4,62.9,81.8,62.9,81.8z"/>
<path class="st15" d="M75.5,63.8l-16.1-6.3l0.2-3.6l2.3,1.4c1.9,1.1,3.8,1.9,5.7,2.6c1.9,0.6,4,0.9,6.3,0.9c1.1,0,2.1-0.1,2.9-0.3
	L75.5,63.8L75.5,63.8z"/>
<path class="st20" d="M82.7,56.1c-0.9-0.3-1.8-0.4-3-0.1c-0.7,0.2-1.5,0.7-2.3,1.7l-1,1.4c0-0.4,0.2-0.8,0.3-1.3
	c0.4-0.9,0.9-1.6,1.5-2c0.7-0.4,1.6-0.5,2.8-0.3C81.7,55.8,82.2,55.9,82.7,56.1L82.7,56.1z"/>
<path class="st20" d="M77.1,58.6c-0.8,0.1-1.7,0.1-2.9,0.1c-2.4,0-4.6-0.3-6.7-0.9c-2.1-0.5-4-1.4-5.9-2.5l-2.1-1.5l7.5,2.7
	C69,57.4,72.4,58.1,77.1,58.6z"/>
<use xlink:href="#ac"  width="9.9" height="10.4" x="-4.9" y="-5.2" transform="matrix(0.6338 0 0 -0.6338 43.5569 31.6908)" style="overflow:visible;"/>
<use xlink:href="#ab"  width="9" height="9.6" x="-4.5" y="-4.8" transform="matrix(0.6338 0 0 -0.6338 34.6091 22.9864)" style="overflow:visible;"/>
<use xlink:href="#aa"  width="9.2" height="9.8" x="-4.6" y="-4.9" transform="matrix(0.6338 0 0 -0.6338 49.3713 21.4957)" style="overflow:visible;"/>
<use xlink:href="#z"  width="9.7" height="10.2" x="-4.9" y="-5.1" transform="matrix(0.6338 0 0 -0.6338 36.9814 41.8881)" style="overflow:visible;"/>
<use xlink:href="#y"  width="9.4" height="10" x="-4.7" y="-5" transform="matrix(0.6338 0 0 -0.6338 51.8748 40.3975)" style="overflow:visible;"/>
<use xlink:href="#x"  width="8.7" height="9.1" x="-4.3" y="-4.6" transform="matrix(0.6338 0 0 -0.6338 45.8741 51.6529)" style="overflow:visible;"/>
<path class="st28" d="M75.8,74.2c1.8-0.7,3.2-1.5,4.4-2.4c-0.3,1.2-0.9,2.4-1.7,3.6l-1.1,1.5L49.9,79c-0.2-0.8-0.1-1.6,0.2-2.5
	s0.8-1.6,1.4-2c0.4-0.3,0.7-0.6,1-1c4.8,2.2,9.4,3.1,14,2.7C70,75.9,73.1,75.2,75.8,74.2L75.8,74.2z"/>
<path class="st29" d="M63.2,60c-1.2-0.6-1.8-0.9-1.7-1c4.3,1.2,8.3,2.6,11.9,4.1c4.8,2,7.1,3.6,6.9,4.8c-4.6-0.2-8.4-0.4-11.4-0.5
	c-1.1-0.1-2.9,0.2-5.4,0.8L62,68.2c-2.7,0.1-5.5,0.5-8.2,1L53.7,68c2.6-0.2,4.2-0.3,4.8-0.4c2-0.2,3.7-0.5,5-0.8
	c1.2-0.3,3.3-0.5,6.2-0.6c2.2-0.1,3.7-0.4,4.3-0.9c0.7-0.6-0.5-1.5-3.8-2.8L65,60.8C64.4,60.6,63.8,60.3,63.2,60L63.2,60z"/>
<use xlink:href="#ad"  width="4" height="4" x="4068" y="-2" transform="matrix(0 0 0 0 16450.3066 -16246.4688)" style="overflow:visible;"/>
</svg>
