<?xml version="1.0" encoding="utf-8"?>
<!-- Generator: Adobe Illustrator 22.0.1, SVG Export Plug-In . SVG Version: 6.00 Build 0)  -->
<svg version="1.1" id="Laag_1" xmlns="http://www.w3.org/2000/svg" xmlns:xlink="http://www.w3.org/1999/xlink" x="0px" y="0px"
	 viewBox="0 0 99.2 99.2" style="enable-background:new 0 0 99.2 99.2;" xml:space="preserve">
<style type="text/css">
	.st0{fill:#DC8944;stroke:#DC8944;stroke-width:0.1256;}
	.st1{fill:#F3F2E6;stroke:#F3F2E6;stroke-width:0.1256;}
	.st2{fill:#0A9CC3;stroke:#0A9CC3;stroke-width:0.1256;}
	.st3{fill:#E9B96D;stroke:#E9B96D;stroke-width:0.1256;}
	.st4{fill:#C2CB82;stroke:#C2CB82;stroke-width:0.1256;}
	.st5{fill:#78C6E0;stroke:#78C6E0;stroke-width:0.1256;}
	.st6{fill:#E4EEF5;stroke:#E4EEF5;stroke-width:0.1256;}
	.st7{fill:#007FFF;stroke:#71C3E7;stroke-width:0.1256;}
	.st8{fill:#B6DBE5;stroke:#B6DBE5;stroke-width:0.1256;}
	.st9{fill:#C9BE71;stroke:#C9BE71;stroke-width:0.1256;}
	.st10{fill:#007FFF;stroke:#74C4E7;stroke-width:0.1256;}
	.st11{fill:#DAEAF3;stroke:#DAEAF3;stroke-width:0.1256;}
	.st12{fill:#F1D692;stroke:#F1D692;stroke-width:0.1256;}
	.st13{fill:#15ADD7;stroke:#15ADD7;stroke-width:0.1256;}
	.st14{fill:#C9A27B;stroke:#C9A27B;stroke-width:0.1256;}
	.st15{fill:#B6DCE6;stroke:#B6DCE6;stroke-width:0.1256;}
	.st16{fill:#0BA4CC;stroke:#0BA4CC;stroke-width:0.1256;}
	.st17{fill:#F1DF96;stroke:#F1DF96;stroke-width:0.1256;}
	.st18{fill:#E0DD99;stroke:#E0DD99;stroke-width:0.1256;}
	.st19{fill:#F1E19E;stroke:#F1E19E;stroke-width:0.1256;}
	.st20{fill:#E7AF65;stroke:#E7AF65;stroke-width:0.1256;}
	.st21{fill:#007FFF;stroke:#69C2E8;stroke-width:0.1256;}
	.st22{fill:#64A0DB;stroke:#85C7E2;stroke-width:0.1256;}
	.st23{fill:#ECC34F;stroke:#ECC34F;stroke-width:0.1256;}
	.st24{fill:#F1E098;stroke:#F1E098;stroke-width:0.1256;}
	.st25{fill:#DE934D;stroke:#DE934D;stroke-width:0.1256;}
	.st26{fill:#B2CA6B;stroke:#B2CA6B;stroke-width:0.1256;}
	.st27{fill:#29B3D9;stroke:#29B3D9;stroke-width:0.1256;}
	.st28{fill:#42B8DB;stroke:#42B8DB;stroke-width:0.1256;}
	.st29{fill:#D4C657;stroke:#D4C657;stroke-width:0.1256;}
	.st30{fill:#FAFBFC;stroke:#FAFBFC;stroke-width:0.1256;}
	.st31{fill:#99BA72;stroke:#99BA72;stroke-width:0.1256;}
	.st32{fill:#EABD71;stroke:#EABD71;stroke-width:0.1256;}
	.st33{fill:#F5F0C0;stroke:#F5F0C0;stroke-width:0.1256;}
	.st34{fill:#F5E74B;stroke:#F5E74B;stroke-width:0.1256;}
	.st35{fill:#E8DB8F;stroke:#E8DB8F;stroke-width:0.1256;}
	.st36{fill:#66C0DF;stroke:#66C0DF;stroke-width:0.1256;}
	.st37{fill:#18AFD8;stroke:#18AFD8;stroke-width:0.1256;}
	.st38{fill:#C3D444;stroke:#C3D444;stroke-width:0.1256;}
	.st39{fill:#B4DBE7;stroke:#B4DBE7;stroke-width:0.1256;}
	.st40{fill:#17A8D0;stroke:#17A8D0;stroke-width:0.1256;}
	.st41{fill:#EBC350;stroke:#EBC350;stroke-width:0.1256;}
	.st42{fill:#EBD4A7;stroke:#EBD4A7;stroke-width:0.1256;}
	.st43{fill:#D4BD71;stroke:#D4BD71;stroke-width:0.1256;}
	.st44{fill:#9BD2E4;stroke:#9BD2E4;stroke-width:0.1256;}
	.st45{fill:#BBC65E;stroke:#BBC65E;stroke-width:0.1256;}
	.st46{fill:#059BC3;stroke:#059BC3;stroke-width:0.1256;}
	.st47{fill:#EBC24E;stroke:#EBC24E;stroke-width:0.1256;}
	.st48{fill:#82B36A;stroke:#82B36A;stroke-width:0.1256;}
	.st49{fill:#FDFDFD;stroke:#FDFDFD;stroke-width:0.1256;}
	.st50{fill:#954D26;stroke:#954D26;stroke-width:0.1256;}
	.st51{fill:#63BAE0;stroke:#63BAE0;stroke-width:0.1256;}
	.st52{fill:#D8D397;stroke:#D8D397;stroke-width:0.1256;}
	.st53{fill:#69A157;stroke:#69A157;stroke-width:0.1256;}
	.st54{fill:#E2E0A1;stroke:#E2E0A1;stroke-width:0.1256;}
	.st55{fill:#88CBE3;stroke:#88CBE3;stroke-width:0.1256;}
	.st56{fill:#EDD89F;stroke:#EDD89F;stroke-width:0.1256;}
	.st57{fill:#EDCF70;stroke:#EDCF70;stroke-width:0.1256;}
	.st58{fill:#98532D;stroke:#98532D;stroke-width:0.1256;}
	.st59{fill:#E7B579;stroke:#E7B579;stroke-width:0.1256;}
	.st60{fill:#FCFBF7;stroke:#FCFBF7;stroke-width:0.1256;}
	.st61{fill:#CA8933;stroke:#CA8933;stroke-width:0.1256;}
	.st62{fill:#DDA054;stroke:#DDA054;stroke-width:0.1256;}
	.st63{fill:#F3E3B7;stroke:#F3E3B7;stroke-width:0.1256;}
	.st64{fill:#F2E4BD;stroke:#F2E4BD;stroke-width:0.1256;}
	.st65{fill:#C2D344;stroke:#C2D344;stroke-width:0.1256;}
	.st66{fill:#BAD040;stroke:#BAD040;stroke-width:0.1256;}
	.st67{fill:#779555;stroke:#779555;stroke-width:0.1256;}
	.st68{fill:#7BB167;stroke:#7BB167;stroke-width:0.1256;}
	.st69{fill:#67C0DF;stroke:#67C0DF;stroke-width:0.1256;}
	.st70{fill:#20AED6;stroke:#20AED6;stroke-width:0.1256;}
	.st71{fill:#CFC859;stroke:#CFC859;stroke-width:0.1256;}
	.st72{fill:#A7C83E;stroke:#A7C83E;stroke-width:0.1256;}
	.st73{fill:#F5F8F4;stroke:#F5F8F4;stroke-width:0.1256;}
	.st74{fill:#A3C63B;stroke:#A3C63B;stroke-width:0.1256;}
	.st75{fill:#ECC14A;stroke:#ECC14A;stroke-width:0.1256;}
	.st76{fill:#E4A55C;stroke:#E4A55C;stroke-width:0.1256;}
	.st77{fill:#007FFF;stroke:#75C5E8;stroke-width:0.1256;}
	.st78{fill:#C7813F;stroke:#C7813F;stroke-width:0.1256;}
	.st79{fill:#179ED0;stroke:#179ED0;stroke-width:0.1256;}
	.st80{fill:#BBD041;stroke:#BBD041;stroke-width:0.1256;}
	.st81{fill:#0BA3CB;stroke:#0BA3CB;stroke-width:0.1256;}
	.st82{fill:#22B0D8;stroke:#22B0D8;stroke-width:0.1256;}
	.st83{fill:#FCFCF8;stroke:#FCFCF8;stroke-width:0.1256;}
</style>
<g>
	<path class="st0" d="M39.7,67.9l1-1.5l0.8,1.1c0.5,0.7,0.8,1,0.8,1.1v0.1l-1.1,1.4c-0.8,0.9-1.2,1.4-1.3,1.4v0.1h-0.1V72h-0.1v0.1
		h-0.3V72h-0.1v-0.3h-0.1v-0.1h-0.1v-0.3l-0.1-0.1l-0.1-0.1V71c0-0.1-0.1-0.3-0.3-0.5l-0.1-0.4l0.1-0.1v-0.3l0.1-0.1
		C38.6,69.5,39,68.9,39.7,67.9z"/>
	<path class="st1" d="M57.8,89.9l0.1-0.1h0.4v0.1c0,0,0,0,0.1,0V90h0.1v0.1h0.1v0.1h0.1v0.5l-0.3,0.4c-0.2,0.2-0.3,0.3-0.4,0.3v0.1
		H58c-0.1-0.1-0.2-0.1-0.3-0.1c-0.1,0-0.2-0.2-0.3-0.6l-0.1-0.6h0.1C57.5,90.2,57.6,90.1,57.8,89.9z"/>
	<path class="st2" d="M41.1,70.2l1.1-1.4l0.5,0.8c0.3,0.4,0.5,0.7,0.5,0.8h-0.1v0.1H43v0.3h-0.1v0.1h-0.1l-0.8,1.4
		c-0.5,0.9-0.8,1.4-0.9,1.5l-0.1,0.1v0.3h-0.8v-0.5l-0.1-0.1l-0.1-0.1v-0.1c0,0-0.1-0.1-0.4-0.4l-0.3-0.4v-0.1c0.1,0,0.1,0,0.1-0.1
		v-0.1h0.1V72h0.1v-0.3h0.1v-0.1C39.9,71.6,40.3,71.1,41.1,70.2z"/>
	<path class="st3" d="M50,59.2v0.1c0,0.1,0.3,0.3,1,0.8c0.8,0.5,1.2,0.8,1.3,0.8h0.3v0.1c0,0.1-0.3,0.3-1,0.6
		c-0.8,0.3-1.7,0.8-2.9,1.5c-1.2,0.7-2.4,1.6-3.6,2.8l-1.8,1.8h-0.1v0.1H43v0.1h-0.1v0.1h-0.1v-0.1l-0.1-0.1l-0.1-0.1v-0.1h-0.1
		v-0.1h-0.1v-0.1c0-0.1-0.2-0.4-0.5-0.9l-0.4-0.8h0.1v-0.1h0.1v-0.1h0.1v-0.1h0.1c0-0.1,0.2-0.4,0.6-1c0.5-0.6,0.9-1,1.1-1.1
		c0.3-0.2,0.8-0.6,1.8-1.3c0.9-0.8,1.9-1.3,2.9-1.8l1.4-0.6l0.1-0.1C49.9,59.2,50,59.2,50,59.2z"/>
	<path class="st4" d="M21.3,52.4l0.1-0.1h0.1c0,0,0.3,0,0.8,0.1h0.9c0,0.1,0,0.1,0.1,0.1l0.3,0.4c0.2,0.3,0.3,0.4,0.3,0.4v0.1h-0.8
		c-0.5,0.1-0.9,0.1-1.1,0.1c-0.3,0.1-0.4,0.2-0.4,0.3c0,0.1-0.1,0.2-0.3,0.3h-0.1v-0.1l0.1-0.1c0,0,0-0.1,0-0.3v-0.3
		c0,0,0.1-0.1,0.3-0.3c0.2-0.1,0.1-0.2-0.1-0.3l-0.3-0.3C21.2,52.5,21.3,52.5,21.3,52.4z"/>
	<path class="st5" d="M25.7,65.6l1-0.6v1.6l0.1,1.5v0.3H27l-0.1,0.3c0,0.2,0,0.3-0.1,0.3v0.1h-0.1v0.1h-0.4l-0.9,0.6
		c-0.7,0.3-1.2,0.7-1.5,1c-0.3,0.3-0.5,0.4-0.5,0.5h-0.1v0.1h-0.1v0.1H23v0.1h-0.1v0.1h-0.1v0.1h-0.1V72v-1.1l0.1-0.3
		c0.1-0.1,0.2-0.5,0.4-1.3c0.2-0.8,0.4-1.3,0.6-1.8l0.4-0.6c0.1-0.1,0.1-0.1,0.1-0.1h0.1v-0.1h0.1v-0.1h0.1v-0.1c0,0,0,0,0.1-0.1
		C24.8,66.3,25.2,66.1,25.7,65.6z"/>
	<path class="st6" d="M128,0h30.8v21.6h-0.1l-0.1,0.1l-0.1,0.1h-0.1V22l-0.1,0.1l-0.1,0.1c0,0.1-0.1,0.3-0.3,0.8s-0.6,0.6-1.4,0.5
		c-0.7-0.1-1.3-0.2-1.9-0.4c-0.6-0.3-1.5-0.5-2.8-0.6c-1.2-0.1-2.3-0.2-3.4-0.4c-1.1-0.2-1.9-0.4-2.5-0.6c-0.6-0.2-1.3-0.3-2-0.4
		c-0.8-0.2-1.5-0.3-2.1-0.5s-1.6-0.3-2.9-0.5s-2.3-0.3-3-0.5s-1.4-0.3-1.9-0.5c-0.6-0.2-1.4-0.3-2.5-0.5s-2.1-0.3-3-0.5
		c-0.8-0.2-1.6-0.3-2.3-0.5c-0.8-0.3-1.5-0.5-2.4-0.5c-0.8,0-1.3,0.3-1.5,0.8c-0.3,0.6-0.5,0.9-0.6,1h-0.4V19h-0.1v0.1h-0.1v0.1
		h-0.1v0.1h-0.1v0.1h-0.1v0.1h-0.4v-0.1h0.1v-0.1h0.1v-0.1h0.1v-0.1h0.1V19h0.1v-0.1l0.3-0.3c0-0.1-0.1-0.5-0.3-1.4
		s-0.3-1.5-0.3-1.9c-0.2-0.4-0.2-1.3-0.1-2.6s0.3-2.5,0.6-3.4c0.5-1,1-1.8,1.5-2.5s1-1.2,1.5-1.6c0.6-0.4,1.2-0.8,1.8-1.1
		c0.5-0.3,0.8-0.5,1-0.5h0.1l0.1-0.1l0.3-0.1h0.4V3.1h0.1V3h-0.4l-0.1-0.1l-0.3-0.1H127v0.1h-0.1V2.8h-0.3c-0.1,0-0.1-0.1-0.1-0.3
		c-0.1-0.1-0.1-0.1-0.1,0s0,0.1-0.1,0S126,2.4,126,2.4c-0.1-0.1-0.3-0.1-0.6-0.1c-0.3-0.1-0.8-0.2-1.4-0.4l-0.9-0.4h-0.8l-0.3-0.1
		l-0.1-0.1h2.6l-1.1-0.1C122.7,1,122,1,121.4,1l-0.9-0.3h-0.5l-0.3-0.1l-0.1-0.1h0.5l1.8-0.1l1.8-0.1h-2.8l3.5-0.1
		C126.8,0,128,0,128,0z"/>
	<path class="st7" d="M17.5,60.5l-0.8-2.1h0.1c0,0.1,2.1,0.1,6.3,0.1h6.2l0.1,0.1L28.3,60c-0.8,0.9-1.1,1.4-1.1,1.5L26.7,62
		c-0.3,0.3-0.4,0.4-0.4,0.5h-2.8c-1.8,0-3.2,0-4,0.1h-1.4C18.1,62.7,17.9,62,17.5,60.5z"/>
	<path class="st8" d="M56,50v-0.1l1.5,0.5c1.1,0.4,1.8,0.7,2,0.8c0.2,0.2,0.3,0.3,0.4,0.4v0.3h-0.1c0,0-0.1,0-0.3,0
		c-0.2,0-1,0.2-2.5,0.6l-2.1,0.8v-0.3c0-0.2-0.4-0.4-1.1-0.8l-1.3-0.4H52v-0.1h-0.1v-0.1h0.3v-0.1h0.1v-0.1h0.3l0.1-0.1l0.1-0.1
		l1.6-0.4C55.5,50.3,56,50.1,56,50z"/>
	<path class="st9" d="M19,53.6h0.1v0.1h0.1v0.1h0.1v0.3l0.3,0.1c0.1,0.2,0.2,0.3,0.3,0.3l0.3,0.4c0.1,0.3,0.2,0.4,0.3,0.4
		c0,0-0.3,0-1,0.1s-1.4,0.2-2.1,0.4l-1.1,0.4v0.3l-0.1-0.1v-0.1L15.8,56v-0.4l-0.1-0.1l-0.1-0.3v-0.4h-0.1v-0.3l-0.1-0.1v-0.1h0.1
		c0.1,0.1,0.2,0.1,0.4,0.1c0.1,0,0.3-0.1,0.5-0.4l0.4-0.3h0.1V54l1-0.3C18.5,53.6,18.9,53.5,19,53.6z"/>
	<path class="st10" d="M16.3,58.4v-0.1L17,60c0.4,1.2,0.6,1.8,0.6,2v0.3l0.1,0.1l0.1,0.1v0.3h-2c-1.3,0-2.8,0-4.5,0l-2.8,0.1v-0.4
		c0-0.3,0.1-1,0.4-2.1l0.4-1.6c0.1,0,0.2-0.1,0.4-0.3l0.3-0.1l3.1,0.1C15.2,58.5,16.3,58.5,16.3,58.4z"/>
	<path class="st11" d="M0,15.3V0h128c0,0-1.2,0-3.5,0.1l-3.5,0.1h2.8l-1.8,0.1l-1.8,0.1h-0.5l0.1,0.1l0.3,0.1h0.5l0.9,0.3
		c0.6,0,1.3,0,2,0.1l1.1,0.1h-2.6l0.1,0.1l0.3,0.1h0.8l0.9,0.4c0.6,0.2,1,0.3,1.4,0.4c0.3,0,0.5,0,0.6,0.1c0.1,0,0.2,0,0.3,0.1
		s0.1,0.1,0.1,0s0-0.1,0.1,0c0,0.2,0,0.3,0.1,0.3h0.3v0.1h0.1V2.8h0.1l0.3,0.1l0.1,0.1h0.4v0.1h-0.1v0.1h-0.4l-0.3,0.1L127,3.5h-0.1
		c-0.2,0-0.5,0.2-1,0.5c-0.6,0.3-1.2,0.7-1.8,1.1c-0.5,0.4-1,1-1.5,1.6s-1,1.5-1.5,2.5c-0.3,0.9-0.5,2.1-0.6,3.4s0,2.2,0.1,2.6
		c0,0.4,0.1,1,0.3,1.9s0.3,1.3,0.3,1.4l-0.3,0.3V19h-0.1v0.1h-0.1v0.1h-0.1v0.1h-0.1v0.1h-0.1v0.1h0.4v-0.1h0.1v-0.1h0.1v-0.1h0.1
		v-0.1h0.1V19h0.1v-0.1h0.4c0.2-0.1,0.4-0.4,0.6-1c0.2-0.5,0.7-0.8,1.5-0.8c0.8,0,1.6,0.2,2.4,0.5c0.7,0.2,1.4,0.3,2.3,0.5
		c0.9,0.2,1.9,0.3,3,0.5s1.9,0.3,2.5,0.5c0.5,0.2,1.1,0.3,1.9,0.5s1.8,0.3,3,0.5s2.2,0.3,2.9,0.5s1.4,0.3,2.1,0.5
		c0.8,0.1,1.4,0.2,2,0.4c0.6,0.3,1.4,0.5,2.5,0.6c1.1,0.2,2.2,0.3,3.4,0.4c1.3,0.1,2.2,0.3,2.8,0.6c0.6,0.2,1.2,0.3,1.9,0.4
		c0.8,0.1,1.2-0.1,1.4-0.5s0.3-0.7,0.3-0.8l0.1-0.1l0.1-0.1v-0.1h0.1l0.1-0.1l0.1-0.1h0.1v36.9h-4.9l0.4-0.1l0.4-0.1h-2l-0.4-0.1
		l-0.4-0.1h3.1v-0.1h0.1v-0.1h-0.8c-0.5,0-0.7,0-0.6-0.1s-0.2-0.2-0.9-0.3c-0.7-0.1-0.9-0.2-0.6-0.3c0.2-0.1,0.1-0.2-0.3-0.3
		c-0.4-0.1-1.2-0.3-2.4-0.5c-1.2-0.3-2.5-0.5-3.9-0.9c-1.5-0.3-2.6-0.5-3.3-0.5c-0.7-0.2-1.9-0.4-3.6-0.8c-1.8-0.3-3-0.6-3.6-0.8
		c-0.8-0.2-2.2-0.4-4.3-0.8c-2.2-0.5-3.9-0.8-5-1c-1.2-0.3-2.8-0.7-5-1c-2.1-0.3-3.5-0.6-4.1-0.8c-0.7-0.2-2-0.5-3.9-0.9
		c-1.8-0.4-3.2-0.7-4-0.9c-0.8-0.2-1.4-0.3-2-0.4c-0.6-0.1-1.5-0.3-2.8-0.6c-1.3-0.2-3.1-0.5-5.1-1c-2.1-0.3-3.4-0.6-4-0.8
		c-0.6-0.2-1.5-0.3-2.8-0.5c-1.3-0.3-2.3-0.6-3.1-0.8C88,44,85.8,43.6,82.3,43s-6.7-1.3-9.4-1.8c-2.8-0.7-6.2-1.3-10.2-2
		c-3.9-0.8-6.7-1.4-8.2-1.8c-1.6-0.3-3-0.6-4.3-0.8c-1.3-0.3-3.6-0.8-7-1.5s-5.6-1.1-6.5-1.3c-0.8-0.2-1.9-0.4-3.3-0.6
		c-1.3-0.3-2.7-0.5-4.3-0.8L26.9,32v0.4h-0.3l-0.1,0.1c0,0.1,0.1,0.1,0.3,0.1c0.2,0,0.3,0,0.3,0.1c0,0.1,0,0.1-0.1,0.1
		c-0.1,0-0.2,0-0.3,0h-0.3v0.8H26l-0.1-0.1l-0.1-0.1l0.1-0.1v-0.4c0-0.2-0.1-0.4-0.3-0.6c0-0.3-0.2-0.5-0.6-0.8
		c-0.4-0.3-0.8-0.5-1.1-0.6c-0.3-0.2-0.5-0.5-0.6-0.9c-0.1-0.4-0.2-0.7-0.4-0.9l-0.3-0.3h-0.3c-0.3,0-0.5,0.1-0.8,0.4l-0.5,0.4v-0.3
		H21c-0.1-0.1-0.2-0.3-0.4-0.5c-0.3-0.3-0.8-0.8-1.4-1.3c-0.7-0.5-1.5-1-2.4-1.5c-1-0.3-2.2-0.7-3.5-1c-1.3-0.3-3.3-0.5-5.8-0.5H3.9
		v0.3h0.5L4.5,25l0.3,0.1l2,0.6c1.3,0.4,1.9,0.7,2,0.8C8.9,26.6,9,26.6,9,26.6h0.1l0.1,0.1l0.1,0.1h0.1L9.7,27l0.1,0.1h0.1l-0.1,0.1
		l-0.1,0.1H9l-3,0.9c-1.9,0.6-3.3,1-4.1,1.4c-0.8,0.3-1.2,0.5-1.3,0.5l-0.1,0.1l-0.1,0.1H0.1L0,30.5V15.3z"/>
	<path class="st12" d="M21.5,75.4l0.1-1.5l0.1,1.1c0.1,0.8,0.1,1.1,0.1,1s0,0.2,0.1,0.8v0.9l-0.1,0.3c-0.1,0.2-0.2,0.3-0.3,0.4v-0.4
		c0-0.3,0-0.7-0.1-1c-0.1-0.3-0.1-0.3-0.1-0.1C21.3,76.9,21.4,76.4,21.5,75.4z"/>
	<path class="st13" d="M36.7,67.8v-0.3l0.5,0.9c0.3,0.6,0.5,0.9,0.6,1l0.1,0.1v0.3l0.1,0.1l0.1,0.1v0.1c0,0.1-0.5,0.3-1.4,0.5
		C35.9,71,35,71.3,34,71.8c-0.9,0.5-1.7,1-2.4,1.5c-0.7,0.6-1,0.9-1,0.9v0.1h-0.1L29,76.1c-1.1,1.1-1.6,1.7-1.6,1.8s0,0.1-0.1,0.1
		v0.1h-0.5L26.6,78l-0.1-0.1h-0.4l-0.3-0.1h-0.1v-0.1h-0.1v-0.1h0.1v-0.1H26v-0.1h0.1v-0.1h0.3V77c0,0,0.1,0,0.3-0.1
		c0.2-0.2,0.5-0.3,1-0.5s0.8-0.4,0.8-0.6c0-0.3-0.2-0.9-0.5-1.9l-0.5-1.5h0.1v-0.1h0.1V72l0.1-0.1l0.1-0.1v-0.1l0.1-0.1
		c0.1-0.1,0.3-0.5,0.8-1.1l0.8-1.1h0.1c0-0.1,0-0.1,0-0.1c0.1,0,0.1,0,0.1-0.1h0.1l0.1,0.1h0.1l0.1-0.1c0.1,0,0.1,0,0.1-0.1
		c0.1,0,0.4,0.1,1,0.3c0.6,0.2,1,0.3,1.4,0.3c0.3-0.1,0.6-0.3,1.1-0.5c0.4-0.3,0.7-0.5,0.9-0.5c0.2,0,0.3,0,0.5,0
		c0.2,0,0.4,0,0.8-0.1l0.5-0.1h-0.1c0,0,0,0,0.1-0.1h0.1V67.8z"/>
	<path class="st14" d="M16.1,40.2l0.4-0.3l-0.1,0.1c0,0.1,0,0.2-0.1,0.3c-0.1,0-0.1,0-0.1,0.1s0,0.2-0.1,0.3l-0.1,0.1l-1,2.3
		c-0.8,1.5-1.6,3.1-2.3,4.8c-0.7,1.7-1,2.6-1,2.6v0.3L11.4,51l-0.1,0.1v0.4l-0.4,0.9c-0.3,0.6-0.4,1-0.4,1.3v1.1L10.4,55
		c-0.1,0.1-0.2,0.2-0.3,0.3L10,55.5v1H9.9c0,0,0,0,0.1,0.1h0.1L10,57c-0.2,0.3-0.2,0.4-0.1,0.5l-0.1,0.1c-0.2,0.1-0.3,0.2-0.3,0.3
		L9.4,58c-0.1,0.2-0.1,0.3-0.1,0.5v0.3l-0.4,1.6c-0.3,1.1-0.4,1.8-0.4,2.1v0.4l-0.3,1.6c-0.2,1-0.3,2.3-0.5,3.8
		c-0.2,1.5-0.2,3.7-0.1,6.5C7.7,77.8,7.9,80,8,81.6c0.2,1.5,0.3,2.4,0.4,2.6v0.4H6.5v-0.3c0-0.1-0.1-1.1-0.4-3s-0.4-4.1-0.4-6.7
		s0.2-5.1,0.5-7.7l0.5-3.8v-0.5c0,0,0.2-0.8,0.5-2.3c0.3-1.4,0.3-2.1,0.3-2.1c-0.1-0.1-0.2-0.1-0.4,0l-0.3,0.1v-0.1L7,58.3v-0.4
		c0-0.3,0-0.4,0.1-0.4v-0.1h0.1c0.1,0.1,0.2,0,0.4-0.1C7.7,57.2,8,56.8,8.3,56c0.3-0.7,0.5-1.2,0.5-1.5V54c0-0.1,0-0.2,0.1-0.3
		c0.1,0,0.4-0.9,1-2.6s1.4-3.7,2.4-5.9l1.5-3.3v-0.1l0.1-0.1l0.1-0.3v-0.3h-0.1c0,0,0.3-0.1,0.8-0.4l0.8-0.4h0.1
		C15.7,40.4,15.8,40.4,16.1,40.2z"/>
	<path class="st15" d="M35.9,55.8l1.5-0.9h0.1V55h0.1l0.1,0.1l0.1,0.1h0.1v0.1h0.1v0.1h0.3v0.1h0.1v0.1l0.4,0.3
		c0.3,0.2,0.5,0.3,0.5,0.4l-2.3,1.5c-1.5,1-2.3,1.5-2.4,1.6c-0.1,0.1-0.2,0.2-0.3,0.3l-0.1,0.1V60h-0.1v0.1h-0.1v0.1h-0.3V60H34
		v-0.1c0.1,0,0.1,0,0.1-0.1c0.2-0.1,0-0.3-0.5-0.5c-0.4-0.2-0.8-0.3-1.3-0.5l-0.5-0.1v-0.1H32l0.1-0.1l0.1-0.1h0.1v-0.1h0.1V58
		c0.1,0,0.4-0.3,0.9-0.8C34.1,56.8,34.9,56.3,35.9,55.8z"/>
	<path class="st16" d="M62,52.7h0.1l0.1,0.1l0.1,0.1h0.3v0.1h0.1v0.3h-0.3l-0.3,0.1h-0.4l-0.3,0.1c-0.2,0.1-0.5,0.2-1,0.4
		c-0.5,0.2-1.1,0.5-1.9,1c-0.8,0.5-1.5,1.1-2,1.8L56,57.6v0.1h-0.1v0.1c-0.1,0-0.1,0-0.1,0.1l-0.5,1.3c-0.3,0.9-0.5,1.5-0.5,1.8
		c0,0.3,0,0.6-0.1,0.9v0.4h-0.5v-0.1H54V62h-0.1l-0.1-0.1l-0.1-0.1h-0.1l-0.1-0.1l-0.1-0.1c0,0-0.1-0.1-0.4-0.3l-0.4-0.4v-0.1
		l0.1-0.3c0.1-0.1,0.1-0.2,0.1-0.3c0-0.2,0.5-0.9,1.4-2.3c0.9-1.3,1.8-2.4,2.6-3.3c0.8-0.9,1.6-1.6,2.3-2l1-0.8h0.3
		c0.3,0,0.6,0.1,1,0.4C61.7,52.6,62,52.7,62,52.7z"/>
	<path class="st17" d="M55.9,49.9H56c0,0.1,0,0.1,0,0.1h0.1c0,0-0.5,0.2-1.6,0.5L52.7,51l-0.1,0.1l-0.1,0.1h-0.3v0.1h-0.1v0.1h-0.3
		v0.1h-0.1c-0.1,0.1-0.4,0.3-0.9,0.5L50,52.5l-0.1,0.1h-0.1v-0.3h-0.1v-0.1h-0.3v-0.1c0-0.1,0.1-0.2,0.3-0.3l0.3-0.1l-0.3-0.1
		c-0.2-0.1-0.5-0.2-0.9-0.3c-0.3-0.1-0.8-0.2-1.4-0.3L46.5,51l0.1-0.1l0.1-0.1H47v-0.1h0.1v-0.1h0.3l0.9-0.6c0.7-0.4,1-0.6,1-0.6h2
		c1.3,0,2.4,0.1,3.3,0.3C55.3,49.6,55.8,49.8,55.9,49.9z"/>
	<path class="st18" d="M17.1,50h1.3c0.9,0.2,1.7,0.4,2.3,0.6c0.7,0.3,1.2,0.5,1.5,0.8c0.4,0.3,0.6,0.4,0.6,0.5h0.1V52H23v0.1h0.1
		v0.1h0.3v0.3h-0.3l-0.8-0.1c-0.5-0.1-0.8-0.1-0.8-0.1h-0.1c-0.1-0.1-0.2-0.2-0.3-0.4c-0.2-0.1-0.5-0.2-1-0.4l-0.8-0.1v-0.1
		c-0.1,0-0.1,0-0.1-0.1C19.3,51,19.2,51,19.2,51c0-0.2-0.2-0.3-0.5-0.4c-0.3-0.2-0.5-0.3-0.5-0.4c0-0.1-0.2-0.2-0.6-0.3H17.1z"/>
	<path class="st19" d="M35.7,53.4h0.1v0.1c0,0.1,0,0.1-0.1,0.1s-0.1,0-0.1,0.1V54h0.3v0.1h0.1v0.1h0.3l0.1,0.1l0.1,0.1h0.3l0.3,0.3
		c0.1,0,0.2,0,0.3,0.1h0.3l-1.5,0.9c-1,0.6-1.8,1.1-2.5,1.5c-0.5,0.5-0.8,0.8-0.9,0.8v0.1h-0.1v0.1h-0.1l-0.1,0.1L32,58.5h-0.1
		c0,0,0,0-0.1-0.1l-0.1-0.1h-0.1v-0.1h-0.1V58h-0.3L31,57.9h-0.1v-0.3H31v-0.1h0.1v-0.1H31v-0.1c-0.1,0-0.1,0-0.1,0v-0.1
		c0-0.1,0.2-0.3,0.6-0.6c0.4-0.3,0.6-0.6,0.6-0.9v-0.3l0.1,0.1c0.1,0.2,0.2,0.2,0.4,0.1c0.1-0.1,0.1-0.1,0.1-0.1h0.1v-0.1H33v-0.1
		h0.1v-0.1H33V55h-0.1c-0.1,0-0.2-0.1-0.3-0.3h-0.1v-0.1h-0.1v-0.1h-0.1v-0.1h-0.1v-0.3h0.1l0.1,0.1h0.1v0.1h0.1v0.1h0.1v0.1h0.1
		v0.1h0.3c0.2,0.2,0.6,0,1.3-0.5C35.2,53.8,35.6,53.5,35.7,53.4z"/>
	<path class="st20" d="M25.4,77.9l0.4-0.1h0.1l0.3,0.1h0.4l0.1,0.1l0.1,0.1h0.4v0.8c0,0.4,0,0.7-0.1,0.8c-0.1,0-0.2,0-0.4,0.1
		l-0.4,0.1h-0.5V80h-0.1c-0.1,0.1-0.3,0.1-0.8,0.1l-0.6,0.3h-0.4l-0.1,0.1h-0.1v-0.3l0.1-0.1V80h0.1v-0.3H24v-0.1h0.1v-0.1
		c0-0.1,0.2-0.3,0.5-0.8C24.9,78.3,25.2,78,25.4,77.9z"/>
	<path class="st21" d="M55.8,57.9h0.1V58c-0.1,0.1-0.1,0.2-0.1,0.3v0.1h-0.1v0.1h103.1v7.3h-0.1c-0.1,0-0.1,0-0.1,0.1
		c0,0.1,0,0-0.1-0.1c-0.1-0.1-0.3-0.1-0.5,0c-0.3,0-4-0.1-11.1-0.3c-7-0.2-11.6-0.3-13.7-0.3c-2.1,0-4.2-0.1-6.4-0.3
		c-2.2,0-10.8-0.2-26-0.6c-15.2-0.4-24.3-0.6-27.4-0.6s-5.3,0-6.7,0.1s-2,0.2-2,0.3v0.1h-1.5c-0.3,0-2.1-0.2-5.4-0.5l-5.1-0.5
		l0.5-0.1l0.5-0.1l0.5-0.1c0.3-0.2,0.4-0.3,0.5-0.4v-0.6c0.1-0.3,0.3-1,0.5-2.1C55.5,58.5,55.7,57.9,55.8,57.9z"/>
	<path class="st22" d="M158.6,65.8h0.1v22.7l-0.1,0.5v0.5h-1c-0.7-0.1-1.4-0.2-2.1-0.3c-0.7-0.1-4.1-0.5-10.3-1.4
		c-6.1-0.8-11.6-1.5-16.5-2.1s-8.7-1-11.4-1.4c-2.7-0.5-5.4-1-8-1.6c-2.8-0.6-4.3-0.9-4.5-1c-0.2,0-0.3,0-0.3-0.1
		c0-0.1-0.3-0.2-0.8-0.4c-0.4-0.3-1.1-0.5-2-0.9c-1-0.3-2.3-0.8-4-1.4c-1.7-0.6-2.6-0.9-2.8-1c-0.3-0.1-0.4-0.2-0.4-0.3
		s-0.2-0.2-0.6-0.4c-0.5-0.1-0.8-0.2-0.8-0.3c0-0.1-0.2-0.2-0.5-0.3c-0.3-0.2-0.5-0.3-0.5-0.3c-0.1-0.1-0.2-0.1-0.3-0.1
		c-0.2-0.1-1.3-0.6-3.4-1.6c-2.1-1.2-4-2.3-5.7-3.5s-2.9-2-3.8-2.5c-0.8-0.5-2.1-1.1-3.9-1.8c-1.8-0.7-4-1.3-6.7-1.8l-4.1-0.8
		L64,64.4l-0.5-0.1h1.1v-0.1c0-0.1,0.7-0.2,2-0.3s3.6-0.1,6.7-0.1s12.2,0.2,27.4,0.6c15.2,0.4,23.8,0.6,26,0.6
		c2.2,0.2,4.3,0.3,6.4,0.3c2.1,0,6.7,0.1,13.7,0.3c7,0.2,10.7,0.3,11.1,0.3c0.3-0.1,0.4-0.1,0.5,0c0.1,0.2,0.1,0.2,0.1,0.1
		C158.5,65.8,158.5,65.8,158.6,65.8z"/>
	<path class="st23" d="M39.2,51.7h0.3l0.4,0.3c0.3,0.1,0.4,0.2,0.4,0.3v0.1c0,0,0,0-0.1,0.1c-0.1,0-0.1,0-0.1,0v0.1c0,0,0,0-0.1,0.1
		l-1,0.9c-0.6,0.6-0.9,0.9-1,0.9v0.1h-0.1v0.1h-0.1v0.1h-0.4c-0.1-0.1-0.2-0.1-0.3-0.1l-0.3-0.3h-0.3l-0.1-0.1l-0.1-0.1h-0.3v-0.1
		h-0.1V54h-0.3v-0.3l0.1-0.1v-0.1h0.1v-0.1h0.1v-0.1l1.5-0.8C38.5,52,39.1,51.7,39.2,51.7z"/>
	<path class="st24" d="M37.2,57.9l2.3-1.5h0.1v0.1h0.1l1,1c0.7,0.7,1,1,1,1h0.1v0.1h0.1v0.1l0.1,0.1l0.1,0.1v0.1h-0.1v0.1h-0.4
		l-0.1,0.1c-0.1,0.1-0.6,0.4-1.6,0.9L38.4,61h-0.1l-0.1,0.1l-0.1,0.1h-0.1l-0.1,0.1l-0.1,0.1l-1,0.6c-0.6,0.4-0.9,0.6-0.9,0.6h-0.1
		v0.1h-0.1V63h-0.4v-0.3h0.1c0,0,0-0.1-0.1-0.4c0-0.3-0.2-0.5-0.5-0.9c-0.3-0.3-0.4-0.5-0.5-0.5c-0.1,0-0.2-0.1-0.3-0.4v-0.4
		c0.1,0,0.1,0,0.1-0.1h0.1c0-0.1,0-0.1,0-0.1c0.1,0,0.1,0,0.1-0.1h0.1c0-0.1,0-0.1,0-0.1c0.1,0,0.2-0.1,0.4-0.3
		C34.9,59.4,35.7,58.9,37.2,57.9z"/>
	<path class="st25" d="M29,76.1l1.5-1.8v0.1l0.1,0.1v0.3h0.1l0.1,0.1H31v0.1l0.1,0.1v0.1h0.1v-0.1h0.1v0.3l0.3,0.1
		c0.2,0.2,0.3,0.2,0.4,0.1c0.1,0,0.1,0,0.1,0.1s0,0.1-0.1,0.1l-2.1,2.1c-1.4,1.5-2.2,2.3-2.3,2.3h-0.4l-0.1-0.1l-0.3-0.1h-0.8
		L25.9,80h-0.1v-0.1h0.5l0.4-0.1c0.2-0.1,0.3-0.1,0.4-0.1c0.1-0.1,0.1-0.3,0.1-0.8v-0.8h0.1V78c0.1,0,0.1,0,0.1-0.1
		S27.9,77.2,29,76.1z"/>
	<path class="st26" d="M13.7,52.2l0.1-0.1l0.3,0.1c0.2,0.2,0.3,0.3,0.4,0.4c0,0.1,0.2,0.2,0.5,0.4c0.3,0.3,0.5,0.4,0.6,0.5
		c0,0.1,0,0.1,0.1,0.1v0.1h0.6l0.3,0.1h0.1l-0.4,0.3c-0.3,0.3-0.4,0.4-0.5,0.4c-0.2,0-0.3,0-0.4-0.1h-0.1v-0.1c0-0.1-0.3-0.1-0.8,0
		l-0.9,0.1v0.4l0.1,0.3v0.8h0.1v0.1h-0.4c-0.3-0.1-0.8-0.1-1.3,0c-0.4,0.1-0.8,0.2-1.1,0.3l-0.6,0.3v0.1h-0.3v0.1H10v0.1v-1.3
		l0.1-0.3c0.1-0.1,0.2-0.2,0.3-0.3l0.1-0.3h0.1v-0.1h0.1v-0.1h0.3v-0.1h0.1v-0.1h0.1c0,0,0.3-0.2,0.8-0.5c0.5-0.3,0.8-0.5,1-0.6
		c0.1-0.2,0.2-0.3,0.3-0.3c0.1,0,0.1,0,0.1-0.1c-0.1-0.1-0.1-0.2,0-0.3c0.1,0,0.1,0,0.1-0.1C13.6,52.3,13.6,52.2,13.7,52.2z"/>
	<path class="st27" d="M41.2,51.6h0.1v0.1h0.1v-0.1h0.1v0.1l1,0.1c0.6,0.1,0.9,0.2,0.9,0.4c0,0.2,0,0.3,0.1,0.4v0.1L43,53.2
		c-0.5,0.3-0.9,0.5-1.3,0.9c-0.3,0.3-0.7,0.7-1.3,1.3c-0.5,0.6-0.8,0.9-0.8,0.9h-0.1v0.1h-0.1c0-0.1-0.2-0.2-0.5-0.4l-0.4-0.3v-0.1
		h-0.1v-0.1h-0.3v-0.1h-0.1v-0.1h-0.1l-0.1-0.1L37.7,55h-0.1v-0.3h0.1v-0.1h0.1v-0.1c0.1,0,0.4-0.3,1-0.9l1-0.9h0.1c0,0,0,0,0-0.1
		c0.1-0.1,0.1-0.1,0.1-0.1h0.1c0,0,0,0,0-0.1l0.5-0.4C41,51.7,41.2,51.6,41.2,51.6z"/>
	<path class="st28" d="M29.9,61l2-2.4l0.5,0.1c0.4,0.2,0.8,0.3,1.3,0.5c0.5,0.2,0.8,0.3,0.8,0.4v0.1c0,0,0,0-0.1,0v0.1
		c-0.1,0-0.1,0-0.1,0.1c0,0,0,0-0.1,0v0.1c-0.1,0-0.1,0-0.1,0.1l-2,2c-1.3,1.4-2.4,2.6-3.1,3.6c-0.8,1.1-1.1,1.6-1.1,1.6h-0.1v0.1
		h-0.1v0.3l-0.1,0.1l-0.1,0.1v0.1h-0.3v-0.3l-0.1-1.5v-1.8c0.1,0,0.2-0.1,0.3-0.3l0.1-0.4l0.1-0.1h0.1v-0.3h0.1v-0.1h0.1v-0.1
		l0.1-0.1C27.8,63.3,28.5,62.5,29.9,61z"/>
	<path class="st29" d="M12.1,51.1V51h0.4l0.4,0.1c0.2,0.1,0.4,0.2,0.6,0.4c0.3,0.3,0.4,0.4,0.4,0.5v0.1l-0.1,0.1
		c-0.1,0-0.1,0-0.1,0.1c0,0.1,0,0.1-0.1,0.1c-0.1,0.1-0.1,0.2,0,0.3c0,0.1,0,0.1-0.1,0.1c-0.1,0-0.2,0.1-0.3,0.3
		c-0.2,0.1-0.5,0.3-1,0.6c-0.5,0.3-0.8,0.5-0.8,0.5h-0.1v0.1h-0.1v0.1h-0.3v0.1h-0.1v0.1h-0.1v-1.1c0-0.3,0.1-0.7,0.4-1.3l0.4-0.9
		h0.1l0.1-0.1l0.1-0.1h0.3v-0.1H12.1z"/>
	<path class="st30" d="M154.3,57.8h0.8v0.1H155V58h-3.1l0.4,0.1l0.4,0.1h2l-0.4,0.1l-0.4,0.1H55.6v-0.1h0.1V58h0.1v-0.3H56v-0.1
		l0.8-0.9c0.5-0.7,1.2-1.3,2-1.8c0.8-0.5,1.4-0.8,1.9-1c0.5-0.2,0.8-0.3,1-0.4l0.3-0.1h0.4l0.3-0.1h0.3v-0.3h-0.1V53h-0.3l-0.1-0.1
		l-0.1-0.1H62c-0.1,0-0.3-0.1-0.8-0.4c-0.4-0.3-0.8-0.4-1-0.4H60v-0.1c0-0.1,0-0.1-0.1-0.1v-0.3c-0.1-0.1-0.4-0.3-0.9-0.5
		c-0.5-0.3-1.1-0.6-1.8-0.8L56.1,50c-0.1-0.1-0.1-0.1-0.1-0.1h-0.1c-0.1-0.1-0.5-0.2-1.4-0.4c-0.8-0.2-1.9-0.3-3.3-0.3h-3
		c-0.6,0-1.6,0.2-3,0.5c-1.4,0.3-2.3,0.5-2.6,0.6l-0.5,0.3h-0.1c-0.2,0.1-0.6,0.2-1.3,0.4l-0.9,0.5h-0.3l-0.1,0.1l-0.1,0.1h-0.1
		c-0.1,0-0.7,0.3-1.8,0.8l-1.5,0.8v0.1h-0.1c-0.1,0-0.1,0-0.1,0.1h-0.1c-0.1,0-0.4,0.3-1,0.8c-0.6,0.3-1,0.5-1.3,0.6h-0.4v-0.1
		c0,0,0,0-0.1,0c-0.1-0.1-0.1-0.1-0.1-0.1v-0.1c0,0,0,0-0.1,0c-0.1-0.1-0.1-0.1-0.1-0.1v-0.1c0,0,0,0-0.1,0l-0.1-0.1L32,54h-0.1
		l-0.1-0.1h-0.1v0.4l0.1,0.1l0.1,0.1v0.3c0.2,0.3,0.3,0.4,0.3,0.5v0.4c0,0.3-0.1,0.5-0.4,0.8c-0.3,0.3-0.4,0.4-0.5,0.4v0.1
		c-0.1,0-0.1,0-0.1,0.1c0,0,0,0-0.1,0v0.1c-0.1,0-0.1,0-0.1,0.1l-0.8,0.6c-0.5,0.4-0.8,0.7-0.8,0.8l-0.1-0.1h-6.2
		c-4.2,0-6.3,0-6.3-0.1h-0.1v-0.1c-0.1,0-0.1-0.1-0.1-0.3l-0.1-0.1v-0.1c-0.1-0.2-0.1-0.4-0.1-0.6l-0.3-0.4v-0.6l1.1-0.4
		c0.8-0.2,1.5-0.3,2.1-0.4s1-0.1,1-0.1s0.2-0.2,0.5-0.6l0.4-0.6h0.1c0,0,0,0,0-0.1c0.1-0.1,0.1-0.1,0.1-0.1l0.4-0.1
		c0.3-0.1,0.8-0.2,1.3-0.3H24l0.1,0.1V54l-0.6,1.4c-0.4,0.9-0.6,1.5-0.6,1.6v0.1h-0.1v0.1h-0.1v0.5l0.3-0.1l0.1-0.1h0.3l0.1-0.1
		l0.1-0.1h0.1c0.1,0,0.4-0.2,1-0.6c0.5-0.4,1.1-1,1.9-1.6c0.8-0.8,1.4-1.6,2-2.4c0.6-0.8,1.1-1.8,1.6-2.9c0.3-1.1,0.5-2.3,0.6-3.5
		c0.1-1.2,0-2.3-0.4-3.3c-0.3-1-0.9-2.1-1.8-3.3l-1-1.9h-0.1v-0.1h-0.1v-0.3h-0.1v-0.1h-0.1v-0.1L27,37v-0.1h-0.3v-0.1h-0.1v-0.3
		h0.1l0.1,0.1H27v0.1h0.1V37h0.1v0.1h0.1v0.1h0.1v0.1h0.1v0.1h0.1v0.1h0.1l0.8,1c0.7,0.6,1,0.9,1,0.9v0.1h0.1v0.1h0.1v0.3H30v0.1
		h0.1v0.1h0.1l1.5,2.4c1.1,1.6,2,3.1,2.6,4.5s1.1,2.4,1.3,3c0.2,0.6,0.3,1,0.4,1.1l0.1,0.3V52l0.1,0.3v0.1h0.3v-0.8
		c0.1-0.5,0.1-1.7,0-3.5c-0.1-1.8-0.2-3.3-0.4-4.4c-0.3-1.2-0.8-2.2-1.3-3.1c-0.5-0.9-1-1.6-1.4-2.1l-0.8-0.9v-0.1
		c-0.1,0-0.2-0.1-0.3-0.3c-0.2-0.3-0.4-0.5-0.6-0.8c-0.3-0.2-0.8-0.5-1.4-0.9c-0.7-0.4-1.5-0.8-2.6-1.3l-1.5-0.6v-0.8h0.1l0.1-0.1
		c0.1-0.1,0.1-0.1,0-0.1c-0.1,0-0.1-0.1,0-0.3c0-0.2,0.3-0.3,0.8-0.3c0.4,0,1.2,0.2,2.4,0.5c1.2,0.2,2.4,0.4,3.6,0.6
		c1.3,0.3,2.4,0.5,3.3,0.6c0.9,0.2,3.1,0.6,6.5,1.3s5.8,1.2,7,1.5c1.3,0.2,2.7,0.4,4.3,0.8c1.5,0.3,4.2,0.9,8.2,1.8
		c3.9,0.7,7.3,1.3,10.2,2c2.8,0.5,5.9,1.1,9.4,1.8s5.7,1.1,6.7,1.3c0.8,0.2,1.9,0.4,3.1,0.8c1.3,0.2,2.2,0.3,2.8,0.5
		c0.6,0.2,1.9,0.4,4,0.8c2.1,0.5,3.8,0.8,5.1,1c1.3,0.3,2.2,0.5,2.8,0.6c0.6,0.1,1.3,0.2,2,0.4c0.8,0.2,2.2,0.5,4,0.9
		c1.9,0.4,3.2,0.7,3.9,0.9c0.7,0.2,2.1,0.4,4.1,0.8c2.2,0.3,3.9,0.7,5,1c1.2,0.2,2.8,0.5,5,1c2.1,0.3,3.5,0.6,4.3,0.8
		c0.7,0.2,1.9,0.4,3.6,0.8c1.8,0.3,3,0.6,3.6,0.8c0.7,0,1.8,0.2,3.3,0.5c1.4,0.3,2.7,0.6,3.9,0.9c1.2,0.3,2,0.4,2.4,0.5
		c0.3,0.1,0.4,0.2,0.3,0.3c-0.3,0.1,0,0.2,0.6,0.3c0.7,0.1,1,0.2,0.9,0.3S153.8,57.8,154.3,57.8z"/>
	<path class="st31" d="M57.9,87.8H58v0.6l-0.1,0.8v0.6l-0.1,0.1c-0.2,0.2-0.3,0.3-0.3,0.3H57v-0.5l0.1-0.3l0.1-0.1v-0.1
		c0-0.2,0-0.3-0.1-0.5L57,88.5h0.1c0.1,0,0.1,0,0.1,0.1v0.1l0.1-0.1c0.1-0.1,0.2-0.3,0.3-0.5l0.1-0.3h0.1V87.8z"/>
	<path class="st32" d="M38.2,70.2v-0.1h0.1l0.1,0.4c0.2,0.3,0.3,0.4,0.3,0.5v0.1l0.1,0.1l0.1,0.1v0.3h0.1v0.1h0.1V72h0.1v0.1h0.1
		v0.1c0,0.1,0,0.1-0.1,0.1v0.1l-1.9,0.6c-1.3,0.5-2.5,1.1-3.5,1.8c-1.1,0.7-1.7,1-1.8,1.1h-0.3c0-0.1-0.1-0.2-0.3-0.3l-0.3-0.3v-0.3
		h-0.1v0.1h-0.1v-0.1L31,75.1V75h-0.1l-0.1-0.1h-0.1v-0.3l-0.1-0.1v-0.1h0.1v-0.1c0,0,0.3-0.3,1-0.9c0.7-0.5,1.5-1,2.4-1.5
		c0.9-0.5,1.8-0.9,2.8-1.1C37.7,70.5,38.2,70.3,38.2,70.2z"/>
	<path class="st33" d="M63,86.9h0.8l0.4,0.3c0.3,0.2,0.4,0.3,0.5,0.3v0.1h0.1v0.6h-0.5L64,88.3c-0.1,0.1-0.4,0.2-1,0.4
		c-0.6,0.2-1.1,0.3-1.6,0.5c-0.4,0.3-0.7,0.5-0.9,0.8l-0.3,0.5H60v0.3h0.1v0.1c-0.1,0-0.1,0-0.1,0.1V91h-0.1l-0.1-0.1h-0.5L59,90.8
		h-0.3v-0.5h-0.1v-0.1h-0.1V90h-0.1v-0.1h-0.3v-0.1H58v-0.1h0.5l0.1-0.1l0.1-0.1l0.9-0.9c0.7-0.6,1.3-1,1.9-1.1
		C62.1,87.1,62.6,86.9,63,86.9z"/>
	<path class="st34" d="M67.2,90.9v1h-0.1v0.3h-0.8c-0.4,0-1.1-0.1-2.1-0.3l-1.5-0.3c0,0-0.5-0.1-1.4-0.4L60,91v-0.1h-0.1l0.1-0.1
		l0.1-0.1H60v-0.3h0.3l0.3-0.5c0.2-0.3,0.5-0.5,0.9-0.8c0.5-0.2,1-0.3,1.6-0.5c0.6-0.2,0.9-0.3,1-0.4l0.3-0.1h0.5v-0.6h-0.1v-0.1
		c-0.1,0-0.3-0.1-0.5-0.3l-0.4-0.3h-0.1h0.6c0.5,0,0.8,0,0.8-0.1c0.1-0.1,0.4,0.2,0.9,0.8c0.4,0.6,0.7,1.1,0.9,1.6
		C67,89.8,67.1,90.3,67.2,90.9z"/>
	<path class="st35" d="M41.9,50.6h0.1c0,0.1,0,0.1,0,0.1h-0.1v0.1h-0.1V51h-0.1v0.1h-0.1v0.1h-0.1v0.1h-0.1v0.1h-0.1v0.1l-0.5,0.5
		c-0.4,0.4-0.7,0.6-0.8,0.6h-0.1v-0.1c0.1-0.1,0.2-0.2,0.3-0.4c0.1-0.1,0-0.2-0.3-0.3l-0.4-0.3h-0.1l0.1-0.1l0.1-0.1h0.3l0.9-0.5
		C41.4,50.8,41.8,50.7,41.9,50.6z"/>
	<path class="st36" d="M38.2,61.4h0.1v0.1l1.1,0.6c0.8,0.4,1.3,0.7,1.8,0.8s0.7,0.1,0.8,0.1s-0.2,0.1-0.8,0.4l-0.6,0.4h-0.3v0.1
		h-0.1V64h-0.3l-0.3,0.3c-0.1,0-0.2,0-0.3,0.1l-1.5,1.1c-1,0.7-1.5,1.1-1.5,1.4c0.2,0.3,0.3,0.4,0.3,0.5v0.5h-0.1
		c-0.1,0.1-0.1,0.1-0.1,0.1h0.1L36,68.2c-0.3,0.1-0.6,0.1-0.8,0.1c-0.2,0-0.3,0-0.5,0c-0.2,0-0.5,0.2-0.9,0.5
		c-0.5,0.3-0.9,0.4-1.1,0.5c-0.3,0-0.8-0.1-1.4-0.3c-0.6-0.2-0.9-0.3-1-0.3c0,0.1,0,0.1-0.1,0.1l-0.1,0.1H30v-0.1h-0.1v0.1h-0.1
		l-0.1,0.1h-0.1v-0.1l0.1-0.1v-0.1h0.1v-0.1h0.1v-0.1H30v-0.1h0.1c0-0.1,0.3-0.5,1-1.3c0.6-0.8,1.4-1.6,2.5-2.6l1.6-1.5h0.3v-0.1
		h0.1v-0.1h0.1c0,0,0.3-0.2,0.9-0.6l1-0.6h0.5V61.4z"/>
	<path class="st37" d="M43.8,57.4l1.4-1.4h0.3c0.2,0,0.3,0,0.3,0.1h0.1v0.1h0.4c0.3,0.1,0.4,0.2,0.4,0.3c0,0.1,0.2,0.2,0.6,0.4
		c0.3,0.1,0.6,0.2,0.8,0.3h0.3L48,57.4c-0.2,0.2-0.2,0.3-0.1,0.5c0,0.1,0.3,0.3,0.9,0.8c0.6,0.3,0.9,0.5,0.9,0.6v0.1L48.2,60
		c-1,0.4-2,1-2.9,1.8c-0.9,0.7-1.5,1.1-1.8,1.3c-0.3,0.2-0.6,0.5-1.1,1.1c-0.4,0.6-0.6,0.9-0.6,1h-0.1v0.1h-0.1v0.1h-0.1v0.1h-0.3
		v-0.1h-0.1v-0.1h-0.1v-0.3h-0.1v-0.1h-0.1v-0.1l-0.1-0.1l-0.1-0.1v-0.1l-0.1-0.1l-0.1-0.1v-0.3h0.1v-0.1h0.3l0.6-0.4
		c0.5-0.3,0.8-0.4,0.8-0.4l1-0.5c0.7-0.3,1.1-0.5,1.3-0.5h0.1l0.1-0.1h0.1v-0.1l-0.1-0.3v-0.1h-0.1v-0.1c-0.1,0-0.4-0.4-1-1.1
		l-1-1.1l0.1-0.1C42.4,58.8,42.9,58.3,43.8,57.4z"/>
	<path class="st38" d="M21,29.4v0.1c0.1,0.1,0.1,0.1,0.1,0.1l0.3,0.5c0.2,0.4,0.3,0.8,0.4,1c0,0.2-0.1,0.3-0.3,0.3
		c-0.1,0.1-0.1,0.2-0.1,0.3c0,0.1,0,0.2,0,0.3V32h-0.1c-0.1,0-0.1,0-0.1-0.1c0-0.1,0,0-0.1,0.3c-0.1,0.2-0.4,0.3-1,0.5
		c-0.6,0.2-1,0.5-1.3,1c-0.3,0.6-0.4,1.2-0.5,1.8c-0.1,0.7-0.2,1.2-0.4,1.5c-0.2,0.3-0.3,0.6-0.5,1c0,0.5,0,0.8,0,1
		c0,0.1,0,0.2,0,0.3v0.3c0,0,0,0-0.1,0v0.1l-0.4,0.1c-0.2,0.2-0.3,0.3-0.3,0.3h-0.1c-0.1,0-0.1,0-0.1,0v0.1c0,0,0,0-0.1,0.1
		l-0.3,0.1c-0.2,0.1-0.3,0.1-0.4,0.1h-0.1l-0.8,0.4c-0.5,0.3-0.8,0.4-0.8,0.4h-0.4l-0.3,0.1l-0.1,0.1h-0.1c-0.1,0-0.3,0.1-0.5,0.3
		c-0.3,0-1.4,0.2-3.5,0.6L6,43H5.3v-0.1h0.1v-0.1h0.3v-0.1h0.1v-0.1h0.1L6,42.3c0.1-0.1,0.4-0.3,0.9-0.8c0.4-0.5,1.3-1.8,2.5-3.8
		l1.9-2.9v-0.1h0.1v-0.1h0.1v-0.3l0.1-0.1v-0.1h-0.9c-0.6,0-1.3-0.1-2.3-0.3c-1,0-2.7-0.3-5-0.8L0,32.4v-1.9l0.1-0.1h0.3l0.1-0.1
		l0.1-0.1c0.1,0,0.5-0.2,1.3-0.5c0.8-0.3,2.2-0.8,4.1-1.4l3-0.9h0.6l0.1-0.1l0.1-0.1H9.8L9.7,27l-0.1-0.1H9.4l-0.1-0.1l-0.1-0.1H9
		c-0.1,0-0.2,0-0.3-0.1c-0.1-0.1-0.8-0.3-2-0.8l-2-0.6L4.5,25l-0.1-0.1H3.9v-0.3h3.6c2.5,0,4.4,0.2,5.8,0.5c1.3,0.3,2.5,0.7,3.5,1
		c0.9,0.5,1.7,1,2.4,1.5c0.6,0.5,1,0.9,1.4,1.3C20.8,29.1,20.9,29.3,21,29.4z"/>
	<path class="st39" d="M42.2,59h0.1l1,1.1c0.6,0.8,0.9,1.1,1,1.1v0.1h0.1v0.1l0.1,0.3v0.1h-0.1L44.3,62h-0.1c-0.2,0-0.6,0.2-1.3,0.5
		l-1,0.5c-0.1,0-0.3,0-0.8-0.1s-1-0.3-1.8-0.8l-1.1-0.6v-0.1h-0.1v0.1h-0.5l0.1-0.1l0.1-0.1h0.1l0.1-0.1l0.1-0.1h0.1l1.5-0.8
		c1-0.5,1.5-0.8,1.6-0.9l0.1-0.1h0.4v-0.1h0.1V59z"/>
	<path class="st40" d="M37.4,73.1l1.9-0.6l0.3,0.4c0.3,0.3,0.4,0.4,0.4,0.4v0.1l0.1,0.1l0.1,0.1v0.5h0.1l-1.4,0.4
		c-1,0.3-2.1,0.6-3.1,1.1c-1.1,0.7-2,1.3-2.8,1.9s-1.1,0.9-1.1,1s0,0.1-0.1,0.1c-0.1,0-0.4,0.3-0.9,0.9c-0.5,0.6-1,1.3-1.5,2
		c-0.5,0.7-0.8,1-0.9,1.1l-0.1,0.1v0.1h-0.3L28,82.8l-0.1-0.1h-0.3l-0.1-0.1l-0.1-0.1h-0.1l-0.1-0.1v-0.1h0.4v-0.8l-0.1-0.6v-0.4
		h0.3c0.1,0,0.8-0.8,2.3-2.3L32,76h0.1c0.1-0.1,0.7-0.5,1.8-1.1C34.9,74.2,36.1,73.6,37.4,73.1z"/>
	<path class="st41" d="M31.3,56.9l0.1,0.1c0,0,0,0,0,0.1c-0.2,0.1-0.3,0.2-0.3,0.3v0.1H31v0.1h-0.1v0.3H31l0.1,0.1h0.3v0.1h0.1v0.1
		h0.1l0.1,0.1c0.1,0.1,0.1,0.1,0.1,0.1v0.1l-2,2.4c-1.3,1.5-2.1,2.3-2.1,2.4l-0.1,0.1v0.1h-0.1v0.1h-0.1V64h-0.1l-0.1,0.1L27,64
		l-0.1-0.1v-0.8l0.1-0.6c0.1-0.3,0.1-0.6,0.1-0.8v-0.3c0-0.1,0.4-0.6,1.1-1.5l1.1-1.4c0-0.1,0.3-0.3,0.8-0.8l0.8-0.6
		c0.1,0,0.1,0,0.1-0.1h0.1c0-0.1,0-0.1,0-0.1C31.2,57,31.3,57,31.3,56.9z"/>
	<path class="st42" d="M55.3,86.2l-1.6-2.4l0.4,0.1c0.3,0.1,0.4,0.2,0.5,0.4c0.2,0.3,2,0.5,5.5,0.6c3.5,0.2,6.3,0.3,8.3,0.5
		s3.8,0.4,5.3,0.8c1.5,0.3,2.6,0.6,3.1,0.9c0.6,0.2,0.9,0.3,0.9,0.4s0.2,0.2,0.5,0.3c0.4,0.2,0.8,0.3,1,0.5c0.3,0.2,0.5,0.3,0.6,0.4
		l0.1,0.1h0.3v0.1h0.1v0.1h0.1v0.3h-0.1v0.1h-0.1v0.1h-0.3l-0.3,0.1c-0.1,0.1-0.3,0.2-0.5,0.3c-0.2,0.1-0.5,0.3-1.1,0.6
		s-1.8,0.7-3.5,1c-1.8,0.5-3.4,0.8-4.9,0.9c-1.4,0.2-2.1,0.1-2.1-0.1l-0.1-0.4v0.1c0,0.1,0,0.1-0.1,0.1h-0.1v-0.1c0-0.1,0-0.4,0-1
		s-0.1-1.2-0.3-1.8c-0.2-0.5-0.5-1-0.9-1.6c-0.5-0.6-0.8-0.8-0.9-0.8c0,0.1-0.3,0.1-0.8,0.1H63c-0.4,0-0.9,0.2-1.5,0.5
		c-0.6,0.2-1.2,0.5-1.9,1.1l-0.9,0.9l-0.1,0.1l-0.1,0.1l-0.1,0.1h-0.1v-0.1H58v0.1h-0.1v-0.6l0.1-0.8v-0.6h-0.1v0.1h-0.1l-0.1,0.3
		c-0.1,0.3-0.2,0.4-0.3,0.5l-0.1,0.1v-0.1h-0.1L57,88.5v-0.1C57,88.4,56.4,87.7,55.3,86.2z"/>
	<path class="st43" d="M13.6,55.9h0.4v0.4c0.1,0.2,0.1,0.3,0.1,0.3v0.8h0.1c0.1,0,0.2,0,0.3,0h0.1v0.1c0,0.1-0.2,0.1-0.5,0
		c-0.3-0.1-0.8-0.1-1.5,0l-0.9,0.1v-0.3c-0.1-0.1-0.1-0.1-0.1-0.1c0-0.1-0.3,0-0.8,0.1l-0.9,0.3c-0.1-0.1-0.1-0.3,0-0.5l0.1-0.3h0.1
		v-0.1h0.1v-0.1h0.3v-0.1l0.6-0.3c0.3-0.1,0.7-0.2,1.1-0.3C12.8,55.8,13.2,55.8,13.6,55.9z"/>
	<path class="st44" d="M48.2,49.2h1c0,0-0.3,0.2-1,0.6l-0.9,0.6h-0.3v0.1H47v0.1h-0.3l-0.1,0.1L46.5,51c0,0-0.4,0.3-1.3,0.8L44,52.5
		l-0.1,0.1l-0.1,0.1h-0.1v-0.1c-0.1-0.1-0.1-0.2-0.1-0.4c0-0.2-0.3-0.3-0.9-0.4l-1-0.1v-0.1h-0.1v0.1h-0.1v-0.1h-0.1v-0.1h0.1v-0.1
		h0.1v-0.1h0.1v-0.1h0.1V51h0.1v-0.1h0.1v-0.1h0.1c0,0,0,0,0-0.1l0.5-0.3c0.3-0.1,1.2-0.3,2.6-0.6C46.6,49.4,47.6,49.2,48.2,49.2z"
		/>
	<path class="st45" d="M19.3,51.4h0.1l0.8,0.1c0.5,0.2,0.8,0.3,1,0.4c0.1,0.2,0.2,0.3,0.3,0.4l-0.1,0.1c-0.1,0.1-0.1,0.1-0.1,0.1
		l-0.6,0.1c-0.3,0.1-0.6,0.2-0.9,0.4c-0.3,0.2-0.4,0.3-0.4,0.3v0.1l-0.1,0.1l-0.1,0.1H19c-0.1-0.1-0.5,0-1.1,0.1l-1,0.3v-0.9
		L16.7,53l-0.1-0.1v-0.1c0-0.2,0-0.3-0.1-0.4l-0.1-0.1V52l-0.1-0.1v-0.1h0.1l0.1,0.1c0.1,0,0.1,0,0.1-0.1c0-0.2,0.1-0.3,0.3-0.4
		c0.2-0.1,0.4,0,0.8,0.1c0.3,0.2,0.6,0.2,1,0C19,51.5,19.3,51.4,19.3,51.4z"/>
	<path class="st46" d="M37.9,65.6l1.5-1.1l0.1,0.1c0.1,0.2,0.2,0.3,0.3,0.4l0.1,0.1l0.4,0.6c0.3,0.3,0.4,0.5,0.4,0.6v0.1l-1,1.5
		c-0.7,1-1,1.5-1.1,1.6l-0.1,0.1V70l-0.1,0.1h-0.1L38.1,70l-0.1-0.1v-0.3l-0.1-0.1c-0.1-0.1-0.3-0.4-0.6-1l-0.5-0.9v-0.1
		c0-0.1-0.1-0.3-0.3-0.5C36.4,66.7,36.9,66.2,37.9,65.6z"/>
	<path class="st47" d="M31.9,62.3l2-2v0.4c0.1,0.3,0.2,0.4,0.3,0.4c0.1,0,0.3,0.2,0.5,0.5c0.3,0.3,0.5,0.6,0.5,0.9
		c0.1,0.3,0.1,0.4,0.1,0.4h-0.1V63h0.1l-1.6,1.5c-1.1,1-1.9,1.9-2.5,2.6c-0.7,0.8-1,1.2-1,1.3H30v0.1h-0.1v0.1l-0.1,0.1v0.1
		c-0.1,0-0.1,0-0.1,0.1c0,0,0,0-0.1,0v0.1l-0.8,1.1c-0.4,0.7-0.7,1-0.8,1.1l-0.1,0.1v0.1l-0.1,0.1L27.6,72v0.3h-0.4v-0.4l-0.1-0.4
		v-0.4c0-0.2-0.1-0.5-0.3-1v-1.1h-0.1v-0.1c0.1,0,0.1-0.1,0.1-0.3l0.1-0.3h0.1v-0.1l0.1-0.1l0.1-0.1v-0.3h0.1v-0.1h0.1
		c0,0,0.4-0.5,1.1-1.6C29.5,64.9,30.6,63.7,31.9,62.3z"/>
	<path class="st48" d="M11.7,57.3v0.3l-0.6,0.3c-0.3,0.2-0.5,0.3-0.5,0.3l-0.4,0.1c-0.2,0.1-0.3,0.2-0.3,0.3l-0.3,0.1
		c-0.2,0.2-0.3,0.3-0.4,0.3v-0.3c0-0.2,0-0.3,0.1-0.5l0.1-0.1c0-0.1,0.1-0.2,0.3-0.3l0.1-0.1l0.9-0.3c0.5-0.2,0.8-0.2,0.8-0.1
		C11.6,57.1,11.6,57.2,11.7,57.3z"/>
	<path class="st49" d="M0,45.5V32.4l3.5,0.8c2.3,0.5,4,0.8,5,0.8c0.9,0.2,1.7,0.3,2.3,0.3h0.9v0.1l-0.1,0.1v0.3h-0.1v0.1h-0.1v0.1
		l-1.9,2.9c-1.3,2-2.1,3.3-2.5,3.8C6.4,42,6.1,42.2,6,42.3l-0.1,0.1H5.8v0.1H5.7v0.1H5.4v0.1H5.3V43H6l3-0.6
		c2.1-0.4,3.3-0.6,3.5-0.6c0.3-0.2,0.4-0.3,0.5-0.3h0.1l0.1-0.1l0.3-0.1h0.5v0.3l-0.1,0.3l-0.1,0.1v0.1l-1.5,3.3
		c-1,2.2-1.8,4.1-2.4,5.9s-0.9,2.6-1,2.6c-0.1,0.1-0.1,0.2-0.1,0.3l-0.6,1c-0.4,0.7-0.7,1.2-0.8,1.5c-0.1,0.3-0.2,0.6-0.3,0.8v0.3
		c-0.1,0-0.1,0.1-0.1,0.4v0.4l-0.1,0.1v0.1H0V45.5z"/>
	<path class="st50" d="M39.7,64.3l0.3-0.3h0.3v0.1l0.1,0.1l0.1,0.1v0.1l0.1,0.1l0.1,0.1v0.1h0.1v0.1h0.1v0.3h0.1v0.1h0.1v0.1h0.1
		l0.4,0.8c0.3,0.5,0.5,0.8,0.5,0.9v0.1h0.1v0.1h0.1v0.1l0.1,0.1l0.1,0.1v0.1h0.1v0.1l0.1,0.1v0.1l0.1,0.1l0.1,0.1v0.1l0.1,0.1
		l0.1,0.1v0.1l0.1,0.1l0.1,0.1v0.1h0.1l4.4,6.4c3,4.4,4.6,6.7,4.9,7.2s0.4,0.6,0.5,0.6v0.1c0,0.1,0,0.1,0.1,0.1c0,0,0,0,0,0.1h0.1
		l1.5,2.1c1.1,1.5,1.6,2.3,1.6,2.3v0.1c0,0.1,0,0.1,0,0.1h0.1v0.1c0.1,0.1,0.1,0.2,0.1,0.4v0.1l-0.1,0.1L57,89.7v1h-0.3v-0.1
		l-0.1-0.1l-0.1-0.1V90h-0.1v-0.1h-0.1c0,0-2.1-3.2-6.4-9.7l-6.4-9.5v-0.1l-0.1-0.1l-0.1-0.1c0-0.1-0.2-0.3-0.5-0.8l-0.5-0.8v-0.1
		c0-0.1-0.3-0.5-0.8-1.1l-0.8-1.1v-0.1c0-0.1-0.1-0.3-0.4-0.6l-0.4-0.6l-0.1-0.1c-0.1-0.1-0.2-0.2-0.3-0.4l-0.1-0.1
		C39.5,64.3,39.6,64.3,39.7,64.3z"/>
	<path class="st51" d="M58.5,91.2l0.3-0.4H59l0.3,0.1h0.6c0,0,0,0,0.1,0.1l1.3,0.3c0.9,0.3,1.4,0.4,1.4,0.4H62l0.3,0.3
		c0.3,0.1,0.4,0.3,0.4,0.8c-0.1,0.4-0.2,0.7-0.4,0.9c-0.3,0.1-0.4,0.4-0.5,0.9c0,0.5,0,0.8,0,0.8v0.1h-0.1v0.1h-0.1v0.3h-0.1
		l-0.1-0.1l-0.1-0.1h-0.3l-0.1-0.1c-0.1-0.1-0.3-0.2-0.5-0.4c-0.2-0.2-0.4-0.4-0.6-0.6c-0.3-0.3-0.6-0.8-1-1.6l-0.5-1.1v-0.1
		C58.2,91.4,58.4,91.3,58.5,91.2z"/>
	<path class="st52" d="M8.2,55l0.6-1v0.5c0,0.3-0.2,0.8-0.5,1.5c-0.3,0.8-0.5,1.2-0.6,1.3c-0.2,0.2-0.3,0.2-0.4,0.1H7.2v-0.1
		c0.1-0.2,0.2-0.4,0.3-0.8C7.5,56.2,7.7,55.7,8.2,55z"/>
	<path class="st53" d="M15.3,54.3v0.3l0.1,0.1v0.1L14.9,55c-0.3,0.3-0.4,0.4-0.5,0.4v0.1h-0.1v0.1h-0.1v0.1h-0.4V55l-0.1-0.3v-0.4
		l0.9-0.1C15.1,54.2,15.3,54.2,15.3,54.3z"/>
	<path class="st54" d="M14.3,50h0.3v0.1h-0.1v0.1h0.1c0,0,0.1,0,0.3,0.1l0.3,0.1h0.1v0.1h0.1v0.1h0.1v0.1h0.1v0.3h0.1v0.1h0.1v0.3
		h0.1v0.1h0.1v0.1h0.1v0.1l0.1,0.1v0.3l0.1,0.1c0.1,0.1,0.1,0.2,0.1,0.4v0.1l0.1,0.1l0.1,0.1v0.8h-0.3l-0.3-0.1h-0.6v-0.1
		c-0.1,0-0.1,0-0.1-0.1c-0.2-0.1-0.4-0.3-0.6-0.5c-0.3-0.2-0.5-0.3-0.5-0.4c-0.1-0.1-0.2-0.2-0.4-0.4l-0.3-0.1V52
		c0-0.1-0.1-0.3-0.4-0.5c-0.3-0.2-0.5-0.3-0.6-0.4L12.4,51l0.1-0.1v-0.1h0.4l0.1-0.1l0.1-0.1h0.1c0.1,0,0.2-0.2,0.3-0.5
		c0-0.3,0.1-0.3,0.3-0.3C13.9,49.9,14.1,50,14.3,50z"/>
	<path class="st55" d="M26.7,72.6l0.6-0.3l0.5,1.5c0.3,1,0.5,1.6,0.5,1.9c0,0.3-0.3,0.5-0.8,0.6s-0.8,0.3-1,0.5
		c-0.2,0.1-0.3,0.1-0.3,0.1v0.1h-0.3v0.1H26v0.1h-0.3v0.1h-0.1v0.1h0.1v0.1l-0.4,0.1c-0.2,0.2-0.4,0.5-0.8,0.9
		c-0.3,0.4-0.5,0.7-0.5,0.8v0.1H24v0.1h-0.1V80h-0.1l-0.4,0.5c-0.3,0.3-0.5,0.6-0.5,0.9c-0.2,0.2-0.3,0.3-0.3,0.5V82l-0.1,0.1
		l-0.1,0.1v0.4l-0.1,0.3L22.1,83v-0.5L22,81.9c-0.1-0.3-0.1-0.8-0.1-1.3V80l-0.1,0.9v0.9h-0.1v-3.5c0.1-0.1,0.2-0.2,0.3-0.4l0.1-0.3
		h0.1v-0.4h0.1v-0.1h0.1v-0.3l0.1-0.1c0.1-0.1,0.4-0.5,0.9-1.3c0.5-0.8,1.1-1.4,1.8-1.9C25.8,73.1,26.3,72.8,26.7,72.6z"/>
	<path class="st56" d="M18.8,66.3v-0.3l0.5,1.4c0.3,0.9,0.5,1.5,0.5,1.6v0.3l0.1,0.3l0.1,0.1v0.4h0.4V70h0.1v-0.3l-0.1-0.3l-0.1-0.3
		v-0.1c0-0.2-0.2-0.6-0.5-1.4l-0.4-1.1h0.1c0.1,0,0.3,0.1,0.5,0.4c0.2,0.3,0.5,0.4,0.9,0.4s1-0.1,1.6-0.3c0.7,0,1,0,1.1-0.1
		c0.1-0.1,0.2-0.1,0.3-0.1h0.3v0.1c0,0.1-0.1,0.2-0.3,0.4c-0.3,0.2-0.5,0.8-0.8,1.8c-0.3,0.9-0.4,1.4-0.5,1.5l-0.1,0.3V72v-0.1h0.1
		v-0.1h0.1v-0.1H23v-0.1h0.1v-0.1h0.1v-0.1h0.1c0-0.1,0.2-0.3,0.5-0.5c0.3-0.3,0.8-0.7,1.5-1l0.9-0.6h0.4v-0.1h0.3v1.1
		c0.2,0.5,0.3,0.8,0.3,1v0.4l0.1,0.4v0.4h0.3v0.1h-0.1l-0.6,0.3c-0.4,0.2-1,0.5-1.6,1c-0.7,0.5-1.3,1.1-1.8,1.9
		c-0.5,0.8-0.8,1.2-0.9,1.3l-0.1,0.1v0.3h-0.1v0.1h-0.1v0.4H22v-0.9c-0.1-0.6-0.1-0.8-0.1-0.8s0-0.3-0.1-1l-0.1-1.1v-0.5
		c0-0.3,0-0.5-0.1-0.6s-0.5-0.3-1.4-0.5c-0.9-0.1-1.9-0.3-3-0.6c-1.2-0.3-2-0.7-2.4-1c-0.4-0.3-0.6-0.7-0.6-1c0-0.4,0.1-0.8,0.3-1
		c0.2-0.3,0.5-0.5,1-0.8c0.5-0.3,1.1-0.6,1.9-0.8c0.8-0.2,1.2-0.3,1.4-0.5C18.7,66.6,18.8,66.5,18.8,66.3z"/>
	<path class="st57" d="M26.7,62l0.4-0.5v0.3c0,0.2,0,0.4-0.1,0.8l-0.1,0.6v0.8L27,64l0.1,0.1L27,64.6c-0.1,0.2-0.2,0.3-0.3,0.3v0.1
		l-1,0.6c-0.6,0.5-0.9,0.8-1,0.8c-0.1,0.1-0.1,0.1-0.1,0.1v0.1h-0.1v0.1h-0.1v0.1h-0.3v0.1L24,66.8l0.1-0.1v-0.4l0.1-0.1l0.1-0.1
		v-0.1c0-0.1,0.1-0.3,0.3-0.6c0.2-0.3,0.5-0.8,1-1.5l0.8-1.3C26.4,62.5,26.5,62.3,26.7,62z"/>
	<path class="st58" d="M16.3,58v-0.1h0.1l0.1,0.1c0,0.2,0,0.3,0.1,0.3v0.1l0.8,2.1c0.4,1.4,0.7,2.1,0.8,2.1v0.1l0.1,0.3l0.5,1.6
		c0.3,1.1,0.5,1.7,0.6,1.8v0.1c0,0,0,0,0.1,0.1l0.4,1.1c0.3,0.7,0.4,1.1,0.4,1.3v0.1l0.1,0.3l0.1,0.3V70h-0.1v0.1h-0.4v-0.4L20,69.6
		l-0.1-0.3v-0.3c0-0.2-0.2-0.7-0.5-1.6l-0.5-1.4v-0.3c0-0.1-0.2-0.6-0.5-1.5l-0.5-1.5c0-0.1,0-0.1-0.1-0.1v-0.1l-0.1-0.3V62
		c0-0.2-0.2-0.8-0.6-2l-0.6-1.8V58z"/>
	<path class="st59" d="M57,90.4v-0.3h0.4l0.1,0.6c0.1,0.4,0.2,0.6,0.3,0.6c0.1,0,0.2,0,0.3,0.1h0.1l0.5,1.1c0.4,0.8,0.8,1.4,1,1.6
		c0.3,0.3,0.5,0.5,0.6,0.6c0.3,0.2,0.4,0.3,0.5,0.4l0.1,0.1h0.3l0.1,0.1l0.1,0.1h0.3l0.1,0.1l0.3,0.1h0.4l0.3,0.1h0.3v0.1h-2
		c-0.6,0-1,0-1.1-0.1c-0.1-0.1-0.5-0.5-1.3-1.1c-0.7-0.8-1.1-1.5-1.3-1.9c-0.3-0.5-0.4-0.8-0.5-0.8c-0.1,0-0.1,0-0.1-0.1
		c0.1-0.1,0.1-0.3,0.1-0.8l0.1-0.8H57V90.4z"/>
	<path class="st60" d="M17.3,39.4h0.1c0.1,0.1-0.2,1.6-0.9,4.5c-0.8,2.8-1.3,4.5-1.5,5c-0.3,0.5-0.5,0.8-0.5,0.9V50h-0.3
		c-0.3,0-0.4-0.1-0.5-0.3c-0.2-0.1-0.3,0-0.3,0.3c-0.1,0.3-0.2,0.5-0.3,0.5h-0.1l-0.1,0.1l-0.1,0.1h-0.4v0.1L12.4,51h-0.4v0.1h-0.1
		v0.1h-0.3l-0.1,0.1l-0.1,0.1h-0.1v-0.4l0.1-0.1l0.1-0.3v-0.3c0-0.1,0.3-1,1-2.6c0.7-1.7,1.4-3.3,2.3-4.8l1-2.3l0.1-0.1
		c0.1-0.1,0.1-0.2,0.1-0.3l0.1-0.3h0.1c0,0,0,0,0-0.1c0.1-0.1,0.1-0.1,0.1-0.1h0.1c0,0,0.1-0.1,0.3-0.3l0.4-0.1h0.1
		C17.3,39.5,17.3,39.4,17.3,39.4z"/>
	<path class="st61" d="M31.9,53.8V54H32l0.1,0.1c0,0.1,0,0.1,0,0.1h0.1c0,0,0,0,0.1,0.1c0,0.1,0,0.1,0,0.1h0.1c0,0,0,0,0.1,0.1
		c0,0.1,0,0.1,0,0.1h0.1c0,0,0,0,0.1,0.1V55c0,0,0,0,0.1,0v0.1h0.1v0.1H33v0.1h-0.1v0.1h-0.1c0,0,0,0-0.1,0.1
		c-0.2,0.1-0.3,0-0.4-0.1l-0.1-0.1v-0.1c0-0.1-0.1-0.3-0.3-0.5v-0.3l-0.1-0.1l-0.1-0.1V54c0-0.1,0-0.2-0.1-0.3c0-0.1,0-0.1,0.1-0.1
		C31.7,53.6,31.8,53.7,31.9,53.8z"/>
	<path class="st62" d="M20.6,52.6l0.6-0.1l0.3,0.3c0.3,0.1,0.3,0.2,0.1,0.3c-0.2,0.2-0.3,0.3-0.3,0.3v0.1l-0.6,0.5
		c-0.4,0.3-0.7,0.5-0.8,0.5v0.1h-0.1c-0.1,0-0.2-0.1-0.3-0.3l-0.3-0.1v-0.3h-0.1v-0.1h-0.1v-0.1l0.1-0.1l0.1-0.1v-0.1
		c0,0,0.1-0.1,0.4-0.3C20,52.8,20.3,52.7,20.6,52.6z"/>
	<path class="st63" d="M15.8,62.7h1.9c0,0.1,0,0.1,0.1,0.1l0.5,1.5c0.3,0.9,0.5,1.4,0.5,1.5v0.5c-0.1,0.2-0.2,0.3-0.3,0.3
		c-0.2,0.2-0.6,0.3-1.4,0.5c-0.8,0.2-1.4,0.4-1.9,0.8c-0.5,0.3-0.8,0.5-1,0.8c-0.2,0.3-0.3,0.6-0.3,1c0,0.3,0.2,0.7,0.6,1
		c0.4,0.3,1.2,0.7,2.4,1c1.1,0.3,2.1,0.5,3,0.6c0.8,0.2,1.3,0.3,1.4,0.5s0.1,0.4,0.1,0.6v0.5l-0.1,1.5c-0.1,1.1-0.1,1.5-0.1,1.4
		c0-0.2,0-0.1,0.1,0.1c0.1,0.3,0.1,0.7,0.1,1v3.9h0.1v0.8c0.1,0.5,0.1,0.9,0.1,1.1v0.5l0.1,0.3l0.1,0.4v0.1l0.1-0.1l0.1-0.1v-0.3
		l0.1-0.1l0.1-0.1c0,0,0.2-0.2,0.5-0.6s0.7-0.8,1.1-1c0.5-0.3,1.1-0.4,1.9-0.4l1,0.1c0,0.1,0,0.1,0,0.1h0.3l0.1,0.1l0.1,0.1h0.3
		l0.1,0.1l0.1,0.1h0.3v-0.1l0.1-0.1c0.1-0.1,0.4-0.5,0.9-1.1c0.5-0.8,1-1.4,1.5-2c0.5-0.6,0.8-0.9,0.9-0.9c0.1,0,0.1,0,0.1-0.1
		s0.4-0.4,1.1-1s1.7-1.2,2.8-1.9c1.1-0.5,2.1-0.9,3.1-1.1l1.4-0.4h0.6v-0.3l0.1-0.1c0.1-0.1,0.4-0.6,0.9-1.5l0.8-1.4h0.1v-0.1H43
		v-0.3h0.1v-0.1h0.1l0.1,0.1l0.1,0.1v0.1l6.4,9.5c4.3,6.4,6.4,9.7,6.4,9.7h0.1V90h0.1v0.3l0.1,0.1l0.1,0.1v0.1h0.1l-0.1,0.8
		c0,0.4,0,0.7-0.1,0.8c0,0.1,0,0.1,0.1,0.1c0.1,0,0.3,0.3,0.5,0.8c0.2,0.4,0.6,1,1.3,1.9c0.8,0.7,1.2,1,1.3,1.1
		c0.2,0.1,0.5,0.1,1.1,0.1h2v-0.1c0.1,0,0.3,0,0.8-0.1c0.4-0.2,1-0.5,1.6-1c0.7-0.5,1.1-1.1,1.4-1.8l0.4-1v-0.1l0.1-0.1h0.1v-0.1
		l0.1,0.4c0,0.3,0.7,0.3,2.1,0.1c1.5-0.1,3.1-0.4,4.9-0.9c1.8-0.3,2.9-0.7,3.5-1s1-0.5,1.1-0.6c0.3-0.1,0.4-0.2,0.5-0.3l0.3-0.1h0.3
		v-0.1h0.1v-0.1h0.1v-0.3h-0.1v-0.1h-0.1v-0.1h-0.3l-0.1-0.1c-0.1-0.1-0.3-0.2-0.6-0.4c-0.3-0.2-0.6-0.3-1-0.5
		c-0.3-0.1-0.5-0.2-0.5-0.3s-0.3-0.2-0.9-0.4c-0.6-0.3-1.6-0.5-3.1-0.9c-1.5-0.3-3.3-0.6-5.3-0.8s-4.8-0.3-8.3-0.5
		c-3.5-0.2-5.4-0.4-5.5-0.6c-0.1-0.2-0.2-0.3-0.4-0.3h-0.3v-0.1c-0.1,0-0.1,0-0.1,0c0-0.1,0-0.1-0.1-0.1v-0.1
		c-0.1,0-0.3-0.2-0.5-0.6s-1.9-2.8-4.9-7.2l-4.4-6.4v-0.1H44v-0.1h0.1v-0.1h0.1l1.4-1.4c0.9-0.9,2-1.7,3.1-2.4
		c1.3-0.8,2.2-1.3,2.8-1.5c0.5-0.3,0.8-0.5,1-0.5h0.1l5.1,0.5c3.3,0.3,5.1,0.5,5.4,0.5h0.4l0.5,0.1l0.4,0.1l4.1,0.8
		c2.7,0.5,4.9,1.1,6.7,1.8c1.8,0.7,3.1,1.3,3.9,1.8c0.8,0.5,2.1,1.3,3.8,2.5s3.6,2.3,5.7,3.5c2.1,1,3.2,1.5,3.4,1.6
		c0.1,0,0.2,0,0.3,0.1c0,0,0.2,0.1,0.5,0.3c0.3,0.1,0.5,0.2,0.5,0.3c0,0.1,0.3,0.2,0.8,0.3c0.4,0.2,0.6,0.3,0.6,0.4s0.1,0.2,0.4,0.3
		c0.2,0.1,1.1,0.4,2.8,1c1.7,0.6,3,1,4,1.4c0.9,0.3,1.9,0.7,2.9,1.1s2.8,0.9,5.4,1.4c2.7,0.7,5.3,1.2,7.8,1.5
		c2.4,0.3,6.1,0.8,10.9,1.4s10.3,1.3,16.5,2.1c6.2,0.8,9.6,1.3,10.3,1.4c0.8,0.1,1.5,0.2,2.1,0.3h1V89l0.1-0.5v10.7H0v-36L3,63
		c1.9,0,3,0,3.3-0.1h0.5v0.4l-0.5,3.8c-0.3,2.6-0.5,5.1-0.5,7.7s0.1,4.7,0.4,6.7s0.4,2.9,0.4,3v0.3h1.9v-0.4C8.3,84,8.2,83.1,8,81.6
		c-0.2-1.6-0.3-3.9-0.4-6.8c-0.1-2.8,0-5,0.1-6.5c0.2-1.5,0.3-2.8,0.5-3.8l0.3-1.6l2.8-0.1C13.1,62.8,14.6,62.8,15.8,62.7z"/>
	<path class="st64" d="M23.6,62.5h2.8l-0.8,1.3c-0.5,0.8-0.8,1.3-1,1.5c-0.2,0.3-0.3,0.5-0.3,0.6v0.1l-0.1,0.1l-0.1,0.1v0.4L24,66.8
		c-0.1,0-0.2,0-0.3,0.1c-0.1,0.1-0.5,0.1-1.1,0.1c-0.7,0.2-1.2,0.3-1.5,0.3c-0.4,0-0.8-0.1-1-0.4l-0.5-0.3v-0.1c0,0,0,0-0.1,0v-0.1
		c-0.1-0.1-0.3-0.7-0.6-1.8L18.3,63l-0.1-0.3v-0.1h1.4C20.4,62.6,21.8,62.5,23.6,62.5z"/>
	<path class="st65" d="M23,33.2h0.1l1.3,0.1c0.8,0.1,1.3,0.1,1.4,0.1l0.1,0.1l0.1,0.1h0.4l1.5,0.6c1.1,0.4,2,0.8,2.6,1.3
		c0.6,0.4,1,0.7,1.4,0.9c0.3,0.3,0.5,0.5,0.6,0.8c0.1,0.2,0.2,0.3,0.3,0.3v0.1h-0.3c-0.3,0-0.4,0-0.5,0.1c-0.1,0.2-0.2,0.2-0.4,0
		c-0.3,0-0.5,0.2-0.8,0.6c-0.2,0.4-0.3,0.6-0.4,0.6c-0.1,0-0.1,0.2-0.1,0.6v0.6h-0.1v0.1h-0.1v-0.1H30v-0.1h-0.1v-0.3h-0.1v-0.1
		h-0.1v-0.1c0,0-0.3-0.3-1-0.9l-0.8-1h-0.1v-0.1h-0.1v-0.1h-0.1v-0.1h-0.1v-0.1h-0.1V37h-0.1v-0.3v0.5h0.1v0.1h0.1v0.3h0.1v0.1h0.1
		l1,1.9c0.8,1.2,1.4,2.3,1.8,3.3c0.3,1,0.5,2.1,0.4,3.3c-0.1,1.3-0.3,2.4-0.6,3.5c-0.5,1.1-1,2.1-1.6,2.9c-0.6,0.8-1.3,1.5-2,2.4
		c-0.8,0.7-1.4,1.2-1.9,1.6c-0.6,0.4-0.9,0.6-1,0.6h-0.1l-0.1,0.1l-0.1,0.1H23l-0.1,0.1l-0.3,0.1v-0.5h0.1v-0.1h0.1V57
		c0-0.2,0.2-0.7,0.6-1.6l0.6-1.4v-0.5c0,0,0-0.1,0.1-0.3c0.1-0.1,0.2-1.1,0.4-3c0.3-1.9,0.5-4.2,0.5-6.8v-3.8L25,39.4
		c-0.1-0.3-0.1-0.5-0.1-0.6v-0.3h-0.1c0,0.1,0,0.1-0.1,0.1v-0.5c0-0.4-0.2-0.9-0.5-1.5s-0.6-1-0.9-1.3s-0.4-0.4-0.4-0.5v-0.1
		l-0.1-0.1v-0.1l0.1-0.1c0.2,0,0.3,0,0.3,0h0.1l0.1-0.1l0.1-0.1h0.1L23.5,34c-0.1,0-0.2-0.1-0.3-0.3l-0.1-0.4h-0.3v-0.1H23V33.2z
		 M26.6,36.5c0,0,0,0,0.1,0c0,0.1,0,0.1-0.1,0.1C26.6,36.7,26.6,36.6,26.6,36.5z"/>
	<path class="st66" d="M22.4,28.9h0.3l0.3,0.3c0.2,0.2,0.3,0.5,0.4,0.9c0.2,0.4,0.4,0.7,0.6,0.9c0.3,0.2,0.7,0.4,1.1,0.6
		c0.4,0.3,0.6,0.5,0.6,0.8c0.2,0.3,0.3,0.5,0.3,0.6v0.4l-0.1,0.1c-0.1,0-0.5,0-1.4-0.1l-1.3-0.1H23v0.1h-0.1v0.1h0.3v0.3
		c0.1,0.1,0.2,0.1,0.3,0.1h0.3v0.4h-0.1l-0.1,0.1l-0.1,0.1h-0.1v-0.3h-0.4c-0.2,0-0.3,0-0.4,0h-0.1l-0.1,0.1L22,34.4h-0.3l-0.1,0.1
		h-0.1v-0.6c0.1-0.4,0.1-0.8,0.1-1.1c0-0.3,0-0.5-0.1-0.6L21.3,32v-0.1c0,0,0,0-0.1,0v-0.3c0.1-0.1,0.2-0.2,0.3-0.3
		c0.2,0,0.2-0.3,0-0.8c-0.2-0.6-0.3-0.9-0.4-0.9s-0.1,0-0.1-0.1v-0.3h0.3c0.2,0,0.3-0.1,0.5-0.3C21.9,29,22.1,28.9,22.4,28.9z"/>
	<path class="st67" d="M15.8,56.3h0.1l0.1,0.1v0.4l0.3,0.4c0,0.3,0,0.5,0.1,0.6v0.1h-0.1c0,0-0.1-0.2-0.3-0.6
		c-0.2-0.5-0.3-0.8-0.5-0.8c-0.1,0-0.3,0.1-0.5,0.4l-0.5,0.4c0,0,0,0-0.1,0v0.1h-0.1c-0.1-0.1-0.1-0.1-0.1-0.1h-0.1v-0.6l0.1-0.1
		l0.6-0.3c0.5-0.2,0.8-0.2,0.8-0.1C15.7,56.2,15.7,56.3,15.8,56.3z"/>
	<path class="st68" d="M20.7,53.9l0.6-0.5c0,0,0,0,0.1,0.1v0.3c-0.1,0-0.1,0-0.1,0v0.1c0,0,0,0-0.1,0.1l-0.4,0.6
		c-0.3,0.4-0.5,0.6-0.5,0.6c-0.1,0-0.2-0.1-0.3-0.4l-0.3-0.4H20v-0.1C20.1,54.4,20.3,54.2,20.7,53.9z"/>
	<path class="st69" d="M51.7,51.6H52v0.1h0.5l1.3,0.4c0.8,0.3,1.1,0.6,1.1,0.8v0.3h-0.1c0,0.1-0.4,0.3-1.3,0.6
		c-0.8,0.5-1.4,0.9-1.6,1.1l-0.4,0.4c-0.1,0-0.3,0-0.5,0.1l-0.5,0.1v0.1c0,0-0.4,0.3-1.1,0.8l-1.1,0.8H48c-0.2-0.1-0.4-0.2-0.8-0.3
		c-0.4-0.2-0.6-0.3-0.6-0.4c0-0.1-0.1-0.2-0.4-0.3h-0.4v-0.1h-0.1v0.1h-0.3V56h-0.3v-0.1h0.1v-0.1h0.1v-0.1h0.1v-0.1h0.1v-0.1
		l1.8-1.3c1.2-0.9,1.8-1.4,1.9-1.4c0.1,0,0.2,0,0.3-0.1h0.1c0.1-0.1,0.1-0.1,0.1-0.1l0.9-0.4C51.3,51.9,51.7,51.7,51.7,51.6z"/>
	<path class="st70" d="M52.5,60.9l0.4,0.4c0.3,0.2,0.4,0.3,0.4,0.3l0.1,0.1l0.1,0.1h0.1l0.1,0.1l0.1,0.1H54v0.1h0.1v0.1h0.5v0.3
		c-0.1,0.1-0.3,0.2-0.5,0.4L53.6,63l-0.5,0.1l-0.5,0.1h-0.1c-0.2,0-0.5,0.2-1,0.5c-0.6,0.2-1.5,0.7-2.8,1.5
		c-1.2,0.7-2.2,1.5-3.1,2.4l-1.4,1.4h-0.1v0.1H44v0.1h-0.1v0.1h-0.1v-0.1l-0.1-0.1l-0.1-0.1v-0.1l-0.1-0.1l-0.1-0.1v-0.1l-0.1-0.1
		L43,68.3v-0.1l-0.1-0.1v-0.3H43v-0.1h0.1v-0.1h0.1l1.8-1.8c1.3-1.2,2.5-2.1,3.6-2.8c1.2-0.7,2.1-1.2,2.9-1.5
		C52.2,61.2,52.5,61,52.5,60.9z"/>
	<path class="st71" d="M16.2,49.9h0.4l0.3,0.1h0.8c0.4,0.1,0.6,0.2,0.6,0.3c0,0.1,0.2,0.2,0.5,0.4c0.3,0.1,0.5,0.2,0.5,0.4
		c0,0,0,0,0.1,0.1c0,0.1,0,0.1,0.1,0.1v0.1h-0.1c-0.1,0.1-0.3,0.1-0.8,0.1c-0.4,0.2-0.8,0.2-1.1,0c-0.3-0.2-0.4-0.2-0.5,0
		c-0.1,0.2-0.2,0.3-0.4,0.3h-0.5v-0.1h-0.1v-0.1h-0.1v-0.3h-0.1v-0.1h-0.1v-0.3h-0.1v-0.1h0.1l0.1-0.1l0.1-0.1h0.1l0.1-0.1l0.1-0.1
		h0.1v-0.1h0.1V50h-0.1C16.2,50,16.2,49.9,16.2,49.9z"/>
	<path class="st72" d="M32.5,37.6h0.3l0.8,0.9c0.4,0.5,0.9,1.2,1.4,2.1c0.5,0.9,0.9,2,1.3,3.1c0.2,1.1,0.3,2.6,0.4,4.4
		c0.1,1.8,0.1,3,0,3.5v0.8h-0.3v-0.1L36.2,52v-0.4L36,51.4c-0.1-0.2-0.2-0.5-0.4-1.1c-0.2-0.6-0.6-1.6-1.3-3s-1.5-2.9-2.6-4.5
		l-1.5-2.4v-0.1h0.1v-0.6c0-0.4,0-0.6,0.1-0.6c0.1,0,0.2-0.2,0.4-0.6c0.3-0.4,0.5-0.6,0.8-0.6c0.2,0.2,0.3,0.2,0.4,0
		C32.1,37.6,32.3,37.6,32.5,37.6z"/>
	<path class="st73" d="M16.3,57.9v0.5c0,0.1-1.1,0.1-3.3,0.1l-3.1-0.1c0-0.1,0.1-0.2,0.3-0.3l0.4-0.1c0,0,0.2-0.1,0.5-0.3l0.6-0.3
		l0.9-0.1c0.7-0.1,1.2-0.1,1.5,0c0.3,0.1,0.4,0.1,0.4,0h0.1c0-0.1,0-0.1,0-0.1l0.5-0.4c0.3-0.3,0.4-0.4,0.5-0.4
		c0.2,0,0.3,0.3,0.5,0.8C16.2,57.7,16.3,57.9,16.3,57.9z"/>
	<path class="st74" d="M22.6,36.7v-2.5h0.5v0.3c0,0-0.1,0-0.3,0l-0.1,0.1v0.1l0.1,0.1v0.1c0,0.1,0.1,0.3,0.4,0.5s0.5,0.7,0.9,1.3
		s0.5,1.1,0.5,1.5v0.5l-0.3,1.4c-0.2,0.9-0.5,1.8-0.9,2.6S22.9,44,22.9,44h-0.1v0.1h-0.1v0.1h-0.1v0.1h-0.1v0.1h-0.1v0.1h-0.1v-0.1
		L22,44.3v-0.1h-0.3V44l0.1-0.1v-0.1c0-0.2,0-0.6,0-1.3c0.2-0.7,0.3-1.4,0.5-2.3C22.5,39.4,22.6,38.3,22.6,36.7z"/>
	<path class="st75" d="M46.5,51l0.9,0.1c0.6,0.1,1,0.2,1.4,0.3c0.4,0.1,0.7,0.2,0.9,0.3l0.3,0.1L49.7,52c-0.1,0.3-0.1,0.4,0,0.4
		c0.1,0.1,0.1,0.1,0.1,0.1c-0.1,0-0.1,0-0.1,0v0.1h-0.1c-0.1,0.1-0.2,0.1-0.3,0.1c-0.1,0-0.7,0.5-1.9,1.4l-1.8,1.3v0.1h-0.1v0.1
		h-0.1v0.1h-0.1v0.1h-0.1V56l-1.4,1.4c-0.9,0.9-1.4,1.4-1.4,1.5L42.3,59h-0.1l-0.1-0.1l-0.1-0.1v-0.1h-0.1v-0.1h-0.1
		c0,0-0.3-0.3-1-1l-1-1h-0.1v-0.3h0.1c0,0,0.3-0.3,0.8-0.9c0.6-0.6,1-1,1.3-1.3c0.3-0.3,0.8-0.6,1.3-0.9l0.6-0.5h0.1l0.1-0.1
		l0.1-0.1l1.3-0.8C46,51.2,46.5,51,46.5,51z"/>
	<path class="st76" d="M59.8,51.7h0.1c0.1,0,0.1,0,0.1,0.1V52l-1,0.8c-0.7,0.4-1.4,1.1-2.3,2c-0.8,0.8-1.7,1.9-2.6,3.3
		c-0.9,1.3-1.4,2.1-1.4,2.3c0,0.1,0,0.2-0.1,0.3l-0.1,0.3h-0.3c-0.1,0-0.5-0.3-1.3-0.8c-0.7-0.4-1-0.7-1-0.8v-0.4
		c0-0.2,0.3-0.8,0.8-1.9l0.8-1.8v-0.1l0.5-0.4c0.3-0.3,0.9-0.7,1.6-1c0.8-0.3,1.1-0.5,1.1-0.6h0.1l2.1-0.8c1.5-0.4,2.3-0.6,2.5-0.6
		C59.7,51.7,59.8,51.7,59.8,51.7z"/>
	<path class="st77" d="M6.8,62.8v0.1H6.3C6,63,4.9,63,3,63l-3,0.1v-4.6h6.9l0.3-0.1c0.2-0.1,0.3-0.1,0.4,0c0.1,0,0,0.7-0.3,2.1
		C6.9,62,6.8,62.8,6.8,62.8z"/>
	<path class="st78" d="M14.9,55l0.5-0.3v0.1h0.1v0.4l0.1,0.3l0.1,0.1V56l0.1,0.1v0.1h-0.1c-0.1,0-0.2,0-0.3-0.1c0-0.1-0.3,0-0.8,0.1
		l-0.6,0.3l-0.1,0.1v-0.1c0,0,0-0.1-0.1-0.3v-0.5h0.3v-0.1h0.1v-0.1h0.1v-0.1C14.5,55.4,14.7,55.3,14.9,55z"/>
	<path class="st79" d="M62.3,91.9L62,91.7h0.6l1.5,0.3c1,0.2,1.7,0.3,2.1,0.3h0.8l-0.4,1c-0.3,0.7-0.7,1.3-1.4,1.8
		c-0.7,0.5-1.2,0.8-1.6,1c-0.4,0.1-0.7,0.1-0.8,0.1h-0.3l-0.3-0.1H62l-0.3-0.1l-0.1-0.1h-0.1v-0.3h0.1v-0.1h0.1v-0.1
		c0,0,0-0.3,0-0.8c0.1-0.5,0.3-0.8,0.5-0.9c0.2-0.2,0.3-0.5,0.4-0.9C62.7,92.3,62.5,92,62.3,91.9z"/>
	<path class="st80" d="M21.1,31.9h0.1c0,0,0,0,0.1,0.1l0.1,0.1c0.1,0.1,0.1,0.3,0.1,0.6c0,0.3,0,0.7-0.1,1.1v0.6h0.1l0.1-0.1H22
		l0.1-0.1l0.1-0.1h0.1c0.1,0,0.2,0,0.4,0H23h-0.4v2.5c0,1.6-0.1,2.8-0.3,3.5c-0.2,0.8-0.3,1.6-0.5,2.3c0,0.7,0,1.1,0,1.3v0.1
		L21.7,44v0.3H22v0.1c0,0.1,0,0.1,0.1,0.1s0.2,0,0.3-0.1h0.1l-1.1,1.3c-0.8,0.8-1.7,1.5-2.8,2.4c-1.2,0.8-1.8,1.3-1.9,1.3h-0.1
		l-0.1,0.1l-0.1,0.1h-0.1l-0.1,0.1l-0.1,0.1h-0.1V50h0.1l0.1-0.1h0.1c0,0.1,0,0.1,0.1,0.1h0.1v0.1h-0.1v0.1h-0.1l-0.1,0.1l-0.1,0.1
		h-0.1l-0.1,0.1l-0.1,0.1h-0.3v-0.1h-0.1v-0.1h-0.9v-0.3h0.1v-0.1h0.1v-0.3c0-0.1,0.2-0.4,0.5-0.9c0.2-0.5,0.7-2.2,1.5-5
		c0.7-2.9,1-4.4,0.9-4.4h-0.3v-0.1c0.1-0.1,0.1-0.3,0.1-0.5c0-0.2,0-0.5,0-1c0.2-0.4,0.3-0.8,0.5-1c0.2-0.3,0.3-0.8,0.4-1.5
		c0.1-0.6,0.3-1.2,0.5-1.8c0.3-0.5,0.7-0.8,1.3-1c0.6-0.2,0.9-0.3,1-0.5C21.1,31.9,21.1,31.8,21.1,31.9z"/>
	<path class="st81" d="M51.4,55h0.1v0.3L50.7,57c-0.5,1.1-0.8,1.7-0.8,1.9v0.3c0,0-0.1,0-0.3,0.1l-0.1,0.1v-0.1
		c0-0.1-0.3-0.3-0.9-0.6c-0.6-0.4-0.9-0.7-0.9-0.8c-0.1-0.2,0-0.3,0.1-0.5l0.3-0.3l1.1-0.8c0.8-0.5,1.1-0.8,1.1-0.8v-0.1l0.4-0.3
		C51.1,55.1,51.3,55,51.4,55z"/>
	<path class="st82" d="M21.7,80.9l0.1-0.9v0.6c0,0.5,0,0.9,0.1,1.3l0.1,0.6V83l0.1-0.1l0.1-0.3v-0.4l0.1-0.1l0.1-0.1v-0.1
		c0-0.2,0.1-0.3,0.3-0.5c0-0.3,0.2-0.5,0.5-0.9l0.4-0.5v0.1l-0.1,0.1v0.3h0.1l0.1-0.1h0.4l0.6-0.3c0.4,0,0.7,0,0.8-0.1h0.3l0.3,0.1
		h0.8l0.3,0.1l0.1,0.1h0.1v0.4l0.1,0.6v0.8h-0.3v0.3l-0.4-0.1c-0.3-0.1-0.8-0.1-1.4-0.1c-0.6,0-1.1,0.2-1.5,0.5
		c-0.4,0.3-0.8,0.7-1,1c-0.3,0.3-0.4,0.5-0.4,0.5l-0.1,0.1l-0.1,0.1v0.3l-0.1,0.1l-0.1,0.1v-0.1L22,84.4l-0.1-0.3v-0.5
		c0-0.3,0-0.6-0.1-1.1V80.9z"/>
	<path class="st83" d="M24.7,38.6h0.1v0.3c0,0.2,0,0.4,0.1,0.6l0.1,0.3v3.8c0,2.6-0.2,4.9-0.5,6.8c-0.2,1.9-0.3,2.9-0.4,3
		c-0.1,0.2-0.1,0.3-0.1,0.3L24,53.4h-0.1v-0.1c0,0-0.1-0.1-0.3-0.4l-0.3-0.4c0-0.1,0-0.1-0.1-0.1v-0.1c-0.1,0-0.1,0-0.1,0v-0.1H23
		V52h-0.1v-0.1h-0.1c0-0.1-0.2-0.3-0.6-0.5c-0.3-0.3-0.8-0.5-1.5-0.8c-0.6-0.3-1.3-0.5-2.3-0.6h-1.5l-0.3-0.1h-0.5L15.9,50h-0.1
		v-0.3h0.1l0.1-0.1l0.1-0.1h0.1l0.1-0.1l0.1-0.1h0.1c0.1,0,0.6-0.3,1.5-1s1.8-1.4,2.6-2.3l1.4-1.4h0.1c0-0.1,0-0.1,0-0.1
		c0.1,0,0.1,0,0.1-0.1v-0.1h0.1v-0.1h0.1V44h0.1c0,0,0.2-0.4,0.6-1.3s0.7-1.7,0.9-2.6l0.3-1.4C24.7,38.7,24.7,38.6,24.7,38.6z"/>
</g>
</svg>
