<?xml version="1.0" encoding="utf-8"?>
<!-- Generator: Adobe Illustrator 22.0.1, SVG Export Plug-In . SVG Version: 6.00 Build 0)  -->
<svg version="1.1" id="Laag_1" xmlns="http://www.w3.org/2000/svg" xmlns:xlink="http://www.w3.org/1999/xlink" x="0px" y="0px"
	 viewBox="0 0 99.2 99.2" style="enable-background:new 0 0 99.2 99.2;" xml:space="preserve">
<style type="text/css">
	.st0{fill:#EFD905;}
	.st1{fill:#054F96;}
	.st2{fill:#2B2438;}
	.st3{fill:url(#SVGID_1_);}
	.st4{fill:url(#SVGID_2_);}
	.st5{fill:url(#SVGID_3_);}
	.st6{fill:#21708A;}
	.st7{fill:url(#SVGID_4_);}
	.st8{fill:url(#SVGID_5_);}
	.st9{fill:#DCE6E6;}
	.st10{fill:url(#SVGID_6_);}
	.st11{fill:url(#SVGID_7_);}
	.st12{fill:url(#SVGID_8_);}
	.st13{fill:#635A29;}
	.st14{fill:#A49DBD;}
	.st15{fill:#887FAB;}
	.st16{fill:#433473;}
</style>
<rect x="-9.1" y="-5.4" class="st0" width="117.3" height="107.2"/>
<g>
	<path class="st1" d="M27.5,34.3l8,6.7l2.2,43.2c-5.1-2.5-9-5.8-11.7-10c-2.5-4-4-8.9-4.4-14.8c-0.4-5.2,0.5-10.9,2.6-17.2
		L27.5,34.3z"/>
	<path class="st2" d="M26.1,31l7.7,4.7l3.1,47.8c-5.1-2.1-9-5.8-11.5-10.9c-2.1-4.2-3.4-9.6-3.9-16.1c-0.4-5.2,0.2-11,2-17.4
		C24.2,35.9,25.1,33.2,26.1,31z"/>
	<path class="st2" d="M77.8,56.5C77.3,63,76,68.3,73.9,72.6c-2.6,5.2-6.4,8.8-11.5,10.9l3.1-47.8l7-5.5l3,8.5
		C77.5,45.4,78.3,51.4,77.8,56.5z"/>
	
		<linearGradient id="SVGID_1_" gradientUnits="userSpaceOnUse" x1="-81.1339" y1="49.5666" x2="-43.5055" y2="49.5666" gradientTransform="matrix(8.400000e-03 -1 -1 -8.400000e-03 99.9726 1.6003)">
		<stop  offset="0" style="stop-color:#574A85"/>
		<stop  offset="0.2118" style="stop-color:#51457B"/>
		<stop  offset="0.5725" style="stop-color:#423860"/>
		<stop  offset="1" style="stop-color:#2B2438"/>
	</linearGradient>
	<path class="st3" d="M31.4,39.4l35-1l0.8,3.7c0.9,3.3,2.5,7.1,4.8,11.4c1.8,3.4,2.7,7,2.7,10.8c0,3.9-1,7.3-2.9,10.2
		c-2.2,3.5-4.5,6-6.8,7.5c-3.7,2.5-8.7,3.7-15,3.9c-5.4,0.1-10.1-0.9-14.1-3.1c-3.6-2-6.3-4.7-8.2-8.1c-1.9-3.3-2.8-7.1-2.5-11.5
		c0.2-3.1,0.8-6,1.8-8.7c2-4.9,3.3-8.9,4-11.9C31,42.4,31.4,39.4,31.4,39.4z"/>
	<path class="st2" d="M60.4,17.1l2.5-0.8c1.9-0.7,3.6-1.6,4.9-2.5c2.3-1.6,3.7-3.3,4.1-4.8c0.8,1.8,1.3,4,1.6,6.5
		c0.7,5-0.1,9.3-2.3,12.9C71.3,28.2,60.4,17.1,60.4,17.1z"/>
	
		<linearGradient id="SVGID_2_" gradientUnits="userSpaceOnUse" x1="-19.7062" y1="170.4433" x2="-10.537" y2="170.4433" gradientTransform="matrix(-0.4706 0.8824 0.8824 0.4706 -87.6156 -46.6476)">
		<stop  offset="0" style="stop-color:#635A29"/>
		<stop  offset="0.2706" style="stop-color:#59502C"/>
		<stop  offset="0.7255" style="stop-color:#3E3733"/>
		<stop  offset="1" style="stop-color:#2B2438"/>
	</linearGradient>
	<path class="st4" d="M65.5,20.5l1-0.5c0.8-0.5,1.6-1.1,2.3-1.8c1.7-1.7,2.6-3.3,2.8-4.8c0.5,1.2,0.9,2.6,1.1,4.2
		c0.4,3.2-0.1,6-1.5,8.2C71.1,25.9,65.5,20.5,65.5,20.5z"/>
	<path class="st2" d="M38.5,16.8L27.8,28.2c-2.3-3.5-3.2-7.7-2.6-12.8c0.3-2.5,0.8-4.7,1.5-6.5c0.5,1.6,1.9,3.2,4.3,4.8
		C33.2,15.1,35.7,16.2,38.5,16.8z"/>
	
		<linearGradient id="SVGID_3_" gradientUnits="userSpaceOnUse" x1="25.6161" y1="118.1137" x2="37.325" y2="118.1137" gradientTransform="matrix(0.4254 0.905 0.905 -0.4254 -90.0983 42.6948)">
		<stop  offset="0" style="stop-color:#433473"/>
		<stop  offset="0.2588" style="stop-color:#3F3169"/>
		<stop  offset="0.698" style="stop-color:#342A4E"/>
		<stop  offset="1" style="stop-color:#2B2438"/>
	</linearGradient>
	<path class="st5" d="M33.7,19.8l-5.5,5.5c-1.5-2.2-2-5-1.6-8.2c0.2-1.6,0.5-3,1-4.2c0.2,1.4,1.2,3,2.9,4.7
		C31.7,18.7,32.8,19.5,33.7,19.8z"/>
	<path class="st6" d="M30.1,22.4c1.2-1.3,2.9-2.6,5-3.9c4.3-2.6,8.9-3.9,13.9-3.9c5.2,0,9.9,1.1,13.8,3.3c1.9,1.1,3.4,2.2,4.3,3.3
		L49.3,31.6C49.3,31.6,30.1,22.4,30.1,22.4z"/>
	
		<linearGradient id="SVGID_4_" gradientUnits="userSpaceOnUse" x1="17.4192" y1="147.8496" x2="37.5657" y2="147.8496" gradientTransform="matrix(-4.700000e-03 1 1 4.700000e-03 -99.4611 -0.2185)">
		<stop  offset="0" style="stop-color:#054F96"/>
		<stop  offset="9.800000e-02" style="stop-color:#094A8C"/>
		<stop  offset="0.7098" style="stop-color:#212F50"/>
		<stop  offset="1" style="stop-color:#2B2438"/>
	</linearGradient>
	<path class="st7" d="M31.2,25.2c1.1-1.3,2.6-2.6,4.6-3.9c4-2.6,8.3-3.8,12.8-3.8c4.9,0,9.1,1.1,12.8,3.3c1.8,1.1,3.1,2.2,3.9,3.3
		L48.9,34.4C48.9,34.4,31.2,25.2,31.2,25.2z"/>
	
		<linearGradient id="SVGID_5_" gradientUnits="userSpaceOnUse" x1="25.2617" y1="68.4984" x2="49.1846" y2="68.4984" gradientTransform="matrix(0.9999 -1.060000e-02 -1.060000e-02 -0.9999 1.0566 100.2181)">
		<stop  offset="0" style="stop-color:#242224"/>
		<stop  offset="0.2392" style="stop-color:#27252E"/>
		<stop  offset="0.6392" style="stop-color:#302E49"/>
		<stop  offset="1" style="stop-color:#3A3866"/>
	</linearGradient>
	<path class="st8" d="M49.5,31.2c0,3.3-1.1,6.1-3.4,8.5c-2.3,2.4-5.1,3.6-8.4,3.6c-3.3,0-6.1-1.1-8.5-3.4c-2.3-2.3-3.5-5.1-3.6-8.4
		c0-3.3,1.1-6.1,3.4-8.5c2.3-2.3,5.1-3.5,8.4-3.6c3.3,0,6.1,1.1,8.5,3.4C48.3,25.1,49.5,27.9,49.5,31.2z"/>
	<path class="st9" d="M44.8,31.1c0,1.9-0.7,3.6-2,5c-1.4,1.4-3,2.1-4.9,2.2c-1.9,0-3.6-0.6-5-2c-1.4-1.4-2.1-3-2.2-4.9
		c0-1.9,0.7-3.6,2-5c1.4-1.4,3-2.1,4.9-2.2c1.9,0,3.6,0.7,5,2C44,27.5,44.7,29.2,44.8,31.1z"/>
	
		<linearGradient id="SVGID_6_" gradientUnits="userSpaceOnUse" x1="38.0511" y1="81.3392" x2="52.409" y2="81.3392" gradientTransform="matrix(0.9524 0.3049 0.3049 -0.9524 -30.3922 95.4005)">
		<stop  offset="0" style="stop-color:#242224"/>
		<stop  offset="0.2392" style="stop-color:#27252E"/>
		<stop  offset="0.6392" style="stop-color:#302E49"/>
		<stop  offset="1" style="stop-color:#3A3866"/>
	</linearGradient>
	<path class="st10" d="M44.7,32.1c0.4,1.2-0.5,2-2.7,2.3c-2.3,0.3-4.5-0.1-6.7-1.3c-1.8-1-3.1-2.2-3.7-3.5l-0.4-1.6
		c0.9,1.8,2.2,2.9,3.9,3.3c1.1,0.3,2.6,0.2,4.5-0.1c1.6-0.3,2.9-0.4,3.8-0.1C44,31.4,44.5,31.7,44.7,32.1z"/>
	
		<linearGradient id="SVGID_7_" gradientUnits="userSpaceOnUse" x1="48.7367" y1="68.1226" x2="72.6594" y2="68.1226" gradientTransform="matrix(0.9999 -1.060000e-02 -1.060000e-02 -0.9999 1.0566 100.2181)">
		<stop  offset="0" style="stop-color:#242224"/>
		<stop  offset="0.2392" style="stop-color:#27252E"/>
		<stop  offset="0.6392" style="stop-color:#302E49"/>
		<stop  offset="1" style="stop-color:#3A3866"/>
	</linearGradient>
	<path class="st11" d="M69.4,22.9c2.4,2.3,3.6,5.1,3.6,8.4c0,3.3-1.1,6.1-3.4,8.5c-2.3,2.4-5.1,3.6-8.4,3.6c-3.3,0-6.1-1.1-8.5-3.4
		c-2.4-2.3-3.6-5.1-3.6-8.4c0-3.3,1.1-6.1,3.4-8.5c2.3-2.4,5.1-3.6,8.4-3.6C64.2,19.4,67,20.6,69.4,22.9z"/>
	<path class="st9" d="M68.3,31.3c0,1.9-0.7,3.6-2,5s-3,2.1-4.9,2.2c-1.9,0-3.6-0.7-5-2c-1.4-1.4-2.1-3-2.2-4.9c0-1.9,0.6-3.6,2-5
		c1.4-1.4,3-2.1,4.9-2.2c1.9,0,3.6,0.7,5,2C67.5,27.7,68.2,29.3,68.3,31.3z"/>
	
		<linearGradient id="SVGID_8_" gradientUnits="userSpaceOnUse" x1="51.2169" y1="65.0786" x2="67.3287" y2="65.0786" gradientTransform="matrix(0.9984 -5.710000e-02 -5.710000e-02 -0.9984 5.6947 100.0801)">
		<stop  offset="0" style="stop-color:#242224"/>
		<stop  offset="0.2392" style="stop-color:#27252E"/>
		<stop  offset="0.6392" style="stop-color:#302E49"/>
		<stop  offset="1" style="stop-color:#3A3866"/>
	</linearGradient>
	<path class="st12" d="M54.4,32.5c0.2-0.4,0.6-0.7,1.3-1c0.9-0.3,2.2-0.3,3.9,0c1.9,0.3,3.4,0.3,4.5,0c1.7-0.4,3-1.5,3.9-3.3
		c0,0.4-0.1,1-0.4,1.6c-0.6,1.3-1.9,2.4-3.7,3.5c-2.1,1.2-4.3,1.7-6.6,1.4C54.9,34.5,54,33.8,54.4,32.5z"/>
	<path class="st13" d="M49.2,33.6c0.2,1.4,0.8,2.9,1.9,4.5c0.6,0.8,1.1,1.4,1.5,1.8l-3.4,5.6L45.9,40C47.5,38.4,48.6,36.2,49.2,33.6
		z"/>
	<path class="st2" d="M49.2,33.2l0.1,12.4L45.9,40C47.5,38.2,48.6,35.9,49.2,33.2z"/>
	<path class="st13" d="M48.5,37.4c0.3,1.1,0.3,1.7-0.1,1.7c-0.3,0-0.3-0.3-0.3-0.8C48.2,37.9,48.3,37.6,48.5,37.4z"/>
	<path class="st2" d="M50.1,37.4c0.5,1.1,0.5,1.7,0,1.7c-0.2,0-0.3-0.3-0.3-0.8C49.8,37.9,49.9,37.6,50.1,37.4z"/>
	<path class="st14" d="M33.5,45.4c0.9,2,2.3,3.1,4.3,3.1c2,0,3.6-1,4.8-3.2c-1.1,3.3-2.7,5-4.7,5C35.8,50.3,34.3,48.7,33.5,45.4z"/>
	<path class="st14" d="M55.4,58c0.9,1.9,2.3,2.9,4.3,2.9c1.9,0,3.5-0.9,4.8-2.9c-1.1,3.1-2.7,4.6-4.7,4.6C57.7,62.6,56.2,61,55.4,58
		z"/>
	<path class="st14" d="M36.3,77.4c0.6,1.3,1.5,1.9,2.9,2c1.4,0,2.4-0.7,3.2-2c-0.8,2.1-1.8,3.2-3.2,3.2S36.9,79.5,36.3,77.4z"/>
	<path class="st14" d="M28.1,67c0.9,1.9,2.3,2.8,4.3,2.9c2,0,3.6-0.9,4.8-2.9c-1.1,3.1-2.7,4.6-4.7,4.6C30.4,71.5,28.9,70,28.1,67z"
		/>
	<path class="st15" d="M55.1,45.5c0.9,2.1,2.4,3.2,4.4,3.2c2,0.1,3.7-1,4.9-3.2c-1.1,3.5-2.8,5.2-4.8,5.1C57.5,50.7,56,49,55.1,45.5
		z"/>
	<path class="st15" d="M44.8,64.7c0.9,2.1,2.4,3.2,4.4,3.2c2.1,0.1,3.7-1,4.9-3.2c-1.1,3.5-2.8,5.2-4.8,5.1
		C47.2,69.8,45.7,68.1,44.8,64.7z"/>
	<path class="st15" d="M29.2,52.7c0.5,1.2,1.2,1.8,2.3,1.8c1.1,0,2-0.6,2.7-1.8c-0.6,1.9-1.5,2.9-2.7,2.9
		C30.4,55.5,29.6,54.6,29.2,52.7z"/>
	<path class="st15" d="M60.3,75.7C61,77.2,62,78,63.5,78c1.5,0,2.8-0.7,3.7-2.3c-0.8,2.5-2.1,3.7-3.6,3.7C62,79.4,61,78.1,60.3,75.7
		z"/>
	<path class="st15" d="M67.4,60.8c0.6,1.2,1.4,1.8,2.7,1.8c1.3,0,2.3-0.6,3-1.8c-0.7,1.9-1.7,2.9-3,2.9
		C68.8,63.7,67.9,62.7,67.4,60.8z"/>
	<path class="st16" d="M43.3,49.7c1.1,2.4,2.8,3.6,5.2,3.7c2.4,0.1,4.4-1.1,5.8-3.7c-1.4,3.9-3.3,5.9-5.8,5.9
		C46.1,55.5,44.3,53.6,43.3,49.7z"/>
	<path class="st16" d="M44.7,75c1.1,2.4,2.8,3.6,5.1,3.7c2.5,0,4.4-1.2,5.8-3.7c-1.3,3.9-3.2,5.9-5.7,5.9
		C47.4,80.8,45.7,78.8,44.7,75z"/>
	<path class="st16" d="M32.9,58.2c1.1,2.1,2.7,3.1,4.9,3.2c2.3,0.1,4.1-1,5.5-3.2c-1.3,3.4-3.1,5.1-5.5,5.1S33.8,61.5,32.9,58.2z"/>
	<path class="st16" d="M69.7,66.9c-1.2,3.8-3,5.6-5.3,5.6c-2.2,0-3.8-1.9-4.8-5.6c1,2.3,2.5,3.5,4.7,3.6
		C66.5,70.6,68.3,69.4,69.7,66.9z"/>
	<path class="st16" d="M63.8,50.5c0.6,1.1,1.5,1.7,2.5,1.6c1.1-0.1,1.9-0.9,2.3-2.3c-0.3,2.1-1,3.2-2.1,3.4
		C65.4,53.3,64.5,52.4,63.8,50.5z"/>
	<path class="st2" d="M41.6,80.4c0.9,0,1.6,0.8,2.1,2.3c0.5,1.4,0.6,3,0.4,4.8c-0.2,1.7-0.6,2.4-1.4,2.2c-0.8-0.2-1.5-1.1-2.2-2.8
		c-0.7-1.7-0.9-3.2-0.7-4.6C40,81.1,40.6,80.4,41.6,80.4z"/>
	<path class="st2" d="M38.1,81.3c0.9-0.1,1.7,0.6,2.4,2c0.6,1.3,1,2.9,1.1,4.6c0,1.7-0.3,2.5-1.1,2.5c-0.8-0.1-1.6-0.9-2.5-2.5
		c-0.9-1.6-1.3-3-1.3-4.3C36.6,82.1,37.1,81.4,38.1,81.3z"/>
	<path class="st2" d="M45.8,80.4c0.8,0.3,1.4,1.1,1.5,2.7c0.2,1.5,0,3.1-0.6,4.8c-0.5,1.6-1.1,2.2-1.8,1.9c-0.7-0.3-1.2-1.4-1.5-3.2
		c-0.3-1.8-0.3-3.3,0.2-4.6C44.1,80.7,44.8,80.1,45.8,80.4z"/>
	<path class="st2" d="M60.3,80.3c0.8,0.3,1.3,1.2,1.3,2.8c0,1.5-0.3,3-1,4.7c-0.6,1.6-1.3,2.2-2,1.8c-0.7-0.4-1.1-1.5-1.3-3.3
		c-0.2-1.8,0-3.3,0.6-4.6C58.5,80.5,59.3,80,60.3,80.3z"/>
	<path class="st2" d="M56.7,80.1c0.9,0.2,1.5,1,1.7,2.6c0.3,1.4,0.1,3-0.3,4.8c-0.4,1.6-1,2.3-1.7,2c-0.7-0.3-1.3-1.3-1.7-3.1
		c-0.4-1.8-0.4-3.3-0.1-4.6C55,80.5,55.7,79.9,56.7,80.1z"/>
	<path class="st2" d="M64.3,81.1c0.8,0.5,1,1.5,0.8,3c-0.3,1.4-1,2.9-2,4.4c-0.9,1.4-1.7,1.8-2.3,1.3c-0.6-0.5-0.8-1.7-0.6-3.5
		c0.2-1.8,0.7-3.3,1.5-4.3C62.5,80.9,63.4,80.6,64.3,81.1z"/>
	<path class="st6" d="M46.5,81.3c0.7,1.4,0.9,3,0.4,4.8c-0.2,0.9-0.5,1.7-0.8,2.3c0.4-1,0.4-2.7-0.1-5.1c-0.3-0.9-0.3-1.6-0.1-2.1
		C46,80.9,46.2,80.9,46.5,81.3z"/>
	<path class="st1" d="M64.6,82.6c0.2,1.6-0.3,3.1-1.3,4.7c-0.5,0.8-1,1.4-1.6,1.9c0.8-0.8,1.3-2.4,1.6-4.8c0.1-1,0.4-1.6,0.7-2
		C64.4,82,64.6,82.1,64.6,82.6z"/>
	<path class="st1" d="M42.3,81.3c1,1.2,1.4,2.8,1.3,4.7c0,1-0.2,1.8-0.4,2.5c0.3-1.3,0-2.9-1-5c-0.4-0.8-0.6-1.5-0.5-2.1
		C41.8,80.9,42,80.9,42.3,81.3z"/>
	<path class="st16" d="M60.8,81.5c0.6,1.4,0.6,3.1,0.1,4.9c-0.3,0.9-0.6,1.7-1,2.3c0.6-1.2,0.7-2.9,0.3-5.1c-0.1-1-0.1-1.7,0.1-2.2
		C60.4,81,60.6,81.1,60.8,81.5z"/>
	<path class="st16" d="M39,82.2c1.1,1.1,1.8,2.6,2.1,4.4c0.1,0.9,0.1,1.8,0,2.5c0-1.4-0.6-2.9-1.8-4.7c-0.6-0.8-0.8-1.5-0.8-2
		C38.4,81.8,38.6,81.8,39,82.2z"/>
	<path class="st13" d="M57.5,81.4c0.7,1.4,0.8,3,0.4,4.9c-0.2,0.9-0.5,1.7-0.9,2.3c0.3-0.7,0.4-1.6,0.3-2.8c0-0.9-0.2-1.7-0.4-2.3
		c-0.2-1-0.2-1.7-0.1-2.2C57.1,80.9,57.3,80.9,57.5,81.4z"/>
</g>
</svg>
