<?xml version="1.0" encoding="utf-8"?>
<!-- Generator: Adobe Illustrator 22.0.1, SVG Export Plug-In . SVG Version: 6.00 Build 0)  -->
<svg version="1.1" id="Laag_1" xmlns="http://www.w3.org/2000/svg" xmlns:xlink="http://www.w3.org/1999/xlink" x="0px" y="0px"
	 viewBox="0 0 99.2 99.2" style="enable-background:new 0 0 99.2 99.2;" xml:space="preserve">
<style type="text/css">
	.st0{fill:#EFD905;stroke:#000000;stroke-miterlimit:10;}
	.st1{fill:url(#SVGID_1_);}
	.st2{fill:url(#SVGID_2_);}
	.st3{fill:url(#SVGID_3_);}
	.st4{fill:url(#SVGID_4_);}
	.st5{fill:url(#SVGID_5_);}
	.st6{fill:url(#SVGID_6_);}
	.st7{fill:url(#SVGID_7_);}
	.st8{fill:url(#SVGID_8_);}
	.st9{fill:url(#SVGID_9_);}
	.st10{fill:url(#SVGID_10_);}
	.st11{fill:url(#SVGID_11_);}
	.st12{fill:url(#SVGID_12_);}
	.st13{fill:url(#SVGID_13_);}
	.st14{fill:url(#SVGID_14_);}
	.st15{fill:url(#SVGID_15_);}
	.st16{fill:url(#SVGID_16_);}
	.st17{fill:url(#SVGID_17_);}
	.st18{fill:url(#SVGID_18_);}
	.st19{fill:url(#SVGID_19_);}
	.st20{fill:url(#SVGID_20_);}
	.st21{fill:url(#SVGID_21_);}
	.st22{fill:url(#SVGID_22_);}
	.st23{fill:url(#SVGID_23_);}
	.st24{fill:url(#SVGID_24_);}
	
		.st25{fill:#2E3436;stroke:#2E3436;stroke-width:0.7801;stroke-linecap:round;stroke-linejoin:round;stroke-dasharray:3.1207,0.7802;}
	.st26{opacity:0.165;fill:#EEEEEC;enable-background:new    ;}
	.st27{fill:url(#SVGID_25_);}
	.st28{fill:url(#SVGID_26_);}
	.st29{fill:#2E3436;}
</style>
<rect x="-7" y="-5" class="st0" width="124.2" height="118.2"/>
<g>
	
		<linearGradient id="SVGID_1_" gradientUnits="userSpaceOnUse" x1="-3.5974" y1="99.0143" x2="-3.5928" y2="99.0145" gradientTransform="matrix(43.6091 0 0 -210.8507 201.997 20905.2109)">
		<stop  offset="0" style="stop-color:#555753"/>
		<stop  offset="1" style="stop-color:#91938E"/>
	</linearGradient>
	<path class="st1" d="M40.8,6.3l8.6,43.3l0.4-0.1L41.2,6.2C41.2,6.2,40.8,6.3,40.8,6.3z"/>
	
		<linearGradient id="SVGID_2_" gradientUnits="userSpaceOnUse" x1="-4.3461" y1="99.8073" x2="-4.3508" y2="99.8071" gradientTransform="matrix(43.6091 0 0 -210.8507 243.6279 21115.6699)">
		<stop  offset="0" style="stop-color:#555753"/>
		<stop  offset="1" style="stop-color:#91938E"/>
	</linearGradient>
	<path class="st2" d="M58.4,92.9l-8.6-43.3l-0.4,0.1L58,93L58.4,92.9L58.4,92.9z"/>
	
		<linearGradient id="SVGID_3_" gradientUnits="userSpaceOnUse" x1="-0.967" y1="102.4375" x2="-0.9669" y2="102.4328" gradientTransform="matrix(210.8506 0 0 -43.6102 275.1383 4512.4331)">
		<stop  offset="0" style="stop-color:#555753"/>
		<stop  offset="1" style="stop-color:#91938E"/>
	</linearGradient>
	<path class="st3" d="M92.9,40.8l-43.3,8.6l0.1,0.4L93,41.2L92.9,40.8L92.9,40.8z"/>
	
		<linearGradient id="SVGID_4_" gradientUnits="userSpaceOnUse" x1="-92.6632" y1="98.9985" x2="-92.5604" y2="98.9985" gradientTransform="matrix(2.0134 0 0 -214.54 235.9662 21266.6563)">
		<stop  offset="0" style="stop-color:#555753"/>
		<stop  offset="1" style="stop-color:#91938E"/>
	</linearGradient>
	<path class="st4" d="M49.4,5.4v44.2h0.4V5.4C49.8,5.4,49.4,5.4,49.4,5.4z"/>
	
		<linearGradient id="SVGID_5_" gradientUnits="userSpaceOnUse" x1="-1.7913" y1="99.1306" x2="-1.7897" y2="99.1301" gradientTransform="matrix(109.0137 0 0 -186.7967 255.7515 18547.6445)">
		<stop  offset="0" style="stop-color:#555753"/>
		<stop  offset="1" style="stop-color:#91938E"/>
	</linearGradient>
	<path class="st5" d="M71.5,11.2L49.4,49.5l0.4,0.2l22.1-38.3C71.9,11.4,71.5,11.2,71.5,11.2z"/>
	
		<linearGradient id="SVGID_6_" gradientUnits="userSpaceOnUse" x1="-1.0802" y1="99.8502" x2="-1.0797" y2="99.8486" gradientTransform="matrix(186.7968 0 0 -109.0137 270.4198 10923.4229)">
		<stop  offset="0" style="stop-color:#555753"/>
		<stop  offset="1" style="stop-color:#91938E"/>
	</linearGradient>
	<path class="st6" d="M87.8,27.3L49.5,49.4l0.2,0.4L88,27.7L87.8,27.3L87.8,27.3z"/>
	
		<linearGradient id="SVGID_7_" gradientUnits="userSpaceOnUse" x1="-0.9523" y1="191.5059" x2="-0.9523" y2="191.4031" gradientTransform="matrix(214.54 0 0 -2.0134 276.006 434.9757)">
		<stop  offset="0" style="stop-color:#555753"/>
		<stop  offset="1" style="stop-color:#91938E"/>
	</linearGradient>
	<path class="st7" d="M93.8,49.4H49.6v0.4h44.2V49.4z"/>
	
		<linearGradient id="SVGID_8_" gradientUnits="userSpaceOnUse" x1="-1.0791" y1="100.6316" x2="-1.0797" y2="100.6299" gradientTransform="matrix(186.7968 0 0 -109.0137 270.423 11030.6934)">
		<stop  offset="0" style="stop-color:#555753"/>
		<stop  offset="1" style="stop-color:#91938E"/>
	</linearGradient>
	<path class="st8" d="M88,71.5L49.7,49.4l-0.2,0.4l38.3,22.1L88,71.5L88,71.5z"/>
	
		<linearGradient id="SVGID_9_" gradientUnits="userSpaceOnUse" x1="-1.7881" y1="99.9205" x2="-1.7897" y2="99.9199" gradientTransform="matrix(109.0137 0 0 -186.7967 255.7578 18733.4473)">
		<stop  offset="0" style="stop-color:#555753"/>
		<stop  offset="1" style="stop-color:#91938E"/>
	</linearGradient>
	<path class="st9" d="M71.9,87.8L49.8,49.5l-0.4,0.2L71.5,88L71.9,87.8L71.9,87.8z"/>
	
		<linearGradient id="SVGID_10_" gradientUnits="userSpaceOnUse" x1="-1.0067" y1="99.9193" x2="-1.0084" y2="99.9199" gradientTransform="matrix(109.0137 0 0 -186.7967 148.4878 18733.4453)">
		<stop  offset="0" style="stop-color:#555753"/>
		<stop  offset="1" style="stop-color:#91938E"/>
	</linearGradient>
	<path class="st10" d="M27.7,88l22.1-38.3l-0.4-0.2L27.3,87.8L27.7,88L27.7,88z"/>
	
		<linearGradient id="SVGID_11_" gradientUnits="userSpaceOnUse" x1="-0.2893" y1="100.6283" x2="-0.2899" y2="100.63" gradientTransform="matrix(186.7968 0 0 -109.0137 84.62 11030.7012)">
		<stop  offset="0" style="stop-color:#555753"/>
		<stop  offset="1" style="stop-color:#91938E"/>
	</linearGradient>
	<path class="st11" d="M11.4,71.9l38.3-22.1l-0.2-0.4L11.2,71.5L11.4,71.9L11.4,71.9z"/>
	
		<linearGradient id="SVGID_12_" gradientUnits="userSpaceOnUse" x1="-0.1583" y1="191.2989" x2="-0.1583" y2="191.4017" gradientTransform="matrix(214.54 0 0 -2.0134 61.477 434.9724)">
		<stop  offset="0" style="stop-color:#555753"/>
		<stop  offset="1" style="stop-color:#91938E"/>
	</linearGradient>
	<path class="st12" d="M5.4,49.8h44.2v-0.4H5.4C5.4,49.4,5.4,49.8,5.4,49.8z"/>
	
		<linearGradient id="SVGID_13_" gradientUnits="userSpaceOnUse" x1="-0.2904" y1="99.847" x2="-0.2899" y2="99.8486" gradientTransform="matrix(186.7968 0 0 -109.0137 84.6198 10923.4297)">
		<stop  offset="0" style="stop-color:#555753"/>
		<stop  offset="1" style="stop-color:#91938E"/>
	</linearGradient>
	<path class="st13" d="M11.2,27.7l38.3,22.1l0.2-0.4L11.4,27.3L11.2,27.7L11.2,27.7z"/>
	
		<linearGradient id="SVGID_14_" gradientUnits="userSpaceOnUse" x1="-1.0101" y1="99.1295" x2="-1.0084" y2="99.1301" gradientTransform="matrix(109.0137 0 0 -186.7967 148.4915 18547.6445)">
		<stop  offset="0" style="stop-color:#555753"/>
		<stop  offset="1" style="stop-color:#91938E"/>
	</linearGradient>
	<path class="st14" d="M27.3,11.4l22.1,38.3l0.4-0.2L27.7,11.2L27.3,11.4L27.3,11.4z"/>
	
		<linearGradient id="SVGID_15_" gradientUnits="userSpaceOnUse" x1="-2.7037" y1="99.0464" x2="-2.701" y2="99.046" gradientTransform="matrix(71.0788 0 0 -203.7292 248.7111 20207.2637)">
		<stop  offset="0" style="stop-color:#555753"/>
		<stop  offset="1" style="stop-color:#91938E"/>
	</linearGradient>
	<path class="st15" d="M63.7,7.7L49.4,49.5l0.4,0.1L64,7.8L63.7,7.7L63.7,7.7z"/>
	
		<linearGradient id="SVGID_16_" gradientUnits="userSpaceOnUse" x1="-1.2272" y1="99.4417" x2="-1.2264" y2="99.4406" gradientTransform="matrix(162.7659 0 0 -142.8052 265.8454 14235.6904)">
		<stop  offset="0" style="stop-color:#555753"/>
		<stop  offset="1" style="stop-color:#91938E"/>
	</linearGradient>
	<path class="st16" d="M82.7,20.4L49.5,49.5l0.3,0.3L83,20.7L82.7,20.4L82.7,20.4z"/>
	
		<linearGradient id="SVGID_17_" gradientUnits="userSpaceOnUse" x1="-0.997" y1="101.5439" x2="-0.9973" y2="101.5412" gradientTransform="matrix(203.7294 0 0 -71.0779 273.7008 7274.0581)">
		<stop  offset="0" style="stop-color:#555753"/>
		<stop  offset="1" style="stop-color:#91938E"/>
	</linearGradient>
	<path class="st17" d="M91.5,63.7L49.7,49.4l-0.1,0.4L91.4,64L91.5,63.7L91.5,63.7z"/>
	
		<linearGradient id="SVGID_18_" gradientUnits="userSpaceOnUse" x1="-1.3849" y1="100.0675" x2="-1.3859" y2="100.0666" gradientTransform="matrix(142.8051 0 0 -162.766 262.0736 16353.6777)">
		<stop  offset="0" style="stop-color:#555753"/>
		<stop  offset="1" style="stop-color:#91938E"/>
	</linearGradient>
	<path class="st18" d="M78.9,82.7L49.8,49.5l-0.3,0.3L78.5,83L78.9,82.7L78.9,82.7z"/>
	
		<linearGradient id="SVGID_19_" gradientUnits="userSpaceOnUse" x1="-1.9255" y1="99.8372" x2="-1.9282" y2="99.8376" gradientTransform="matrix(71.0778 0 0 -203.7292 179.5371 20410.3418)">
		<stop  offset="0" style="stop-color:#555753"/>
		<stop  offset="1" style="stop-color:#91938E"/>
	</linearGradient>
	<path class="st19" d="M35.6,91.5l14.2-41.8l-0.4-0.1L35.2,91.4L35.6,91.5z"/>
	
		<linearGradient id="SVGID_20_" gradientUnits="userSpaceOnUse" x1="-0.4379" y1="100.2251" x2="-0.4388" y2="100.2262" gradientTransform="matrix(162.7662 0 0 -142.8052 104.3953 14376.9727)">
		<stop  offset="0" style="stop-color:#555753"/>
		<stop  offset="1" style="stop-color:#91938E"/>
	</linearGradient>
	<path class="st20" d="M16.5,78.9l33.2-29.1l-0.3-0.3L16.2,78.5L16.5,78.9L16.5,78.9z"/>
	
		<linearGradient id="SVGID_21_" gradientUnits="userSpaceOnUse" x1="-0.1741" y1="103.1864" x2="-0.1743" y2="103.191" gradientTransform="matrix(210.8506 0 0 -43.6101 64.6827 4554.0635)">
		<stop  offset="0" style="stop-color:#555753"/>
		<stop  offset="1" style="stop-color:#91938E"/>
	</linearGradient>
	<path class="st21" d="M6.3,58.4l43.3-8.6l-0.1-0.4L6.2,58L6.3,58.4L6.3,58.4z"/>
	
		<linearGradient id="SVGID_22_" gradientUnits="userSpaceOnUse" x1="-0.2061" y1="100.7657" x2="-0.2058" y2="100.7685" gradientTransform="matrix(203.7294 0 0 -71.0779 70.6242 7204.896)">
		<stop  offset="0" style="stop-color:#555753"/>
		<stop  offset="1" style="stop-color:#91938E"/>
	</linearGradient>
	<path class="st22" d="M7.7,35.6l41.8,14.2l0.1-0.4L7.8,35.2L7.7,35.6L7.7,35.6z"/>
	
		<linearGradient id="SVGID_23_" gradientUnits="userSpaceOnUse" x1="-0.6015" y1="99.2781" x2="-0.6004" y2="99.279" gradientTransform="matrix(142.8051 0 0 -162.7659 120.7928 16192.2129)">
		<stop  offset="0" style="stop-color:#555753"/>
		<stop  offset="1" style="stop-color:#91938E"/>
	</linearGradient>
	<path class="st23" d="M20.4,16.5l29.1,33.2l0.3-0.3L20.7,16.2C20.7,16.2,20.4,16.5,20.4,16.5z"/>
	
		<linearGradient id="SVGID_24_" gradientUnits="userSpaceOnUse" x1="-92.4649" y1="99.7925" x2="-92.5678" y2="99.7925" gradientTransform="matrix(2.0132 0 0 -214.5401 235.9629 21481.1992)">
		<stop  offset="0" style="stop-color:#555753"/>
		<stop  offset="1" style="stop-color:#91938E"/>
	</linearGradient>
	<path class="st24" d="M49.8,93.8V49.6l-0.4,0v44.2L49.8,93.8L49.8,93.8z"/>
</g>
<g>
	<path class="st25" d="M49.6,1.2C22.9,1.2,1.2,22.9,1.2,49.6C1.2,76.3,22.9,98,49.6,98C76.3,98,98,76.3,98,49.6S76.3,1.2,49.6,1.2
		L49.6,1.2z M49.6,4.7c24.8,0,44.9,20.1,44.9,44.9S74.4,94.5,49.6,94.5S4.7,74.4,4.7,49.6S24.8,4.7,49.6,4.7L49.6,4.7z"/>
	<path class="st26" d="M49.6,2.9C23.8,2.9,2.9,23.8,2.9,49.6s20.9,46.7,46.7,46.7s46.7-20.9,46.7-46.7S75.4,2.9,49.6,2.9L49.6,2.9z
		 M49.6,4.7c24.8,0,44.9,20.1,44.9,44.9S74.4,94.5,49.6,94.5S4.7,74.4,4.7,49.6S24.8,4.7,49.6,4.7z"/>
</g>
<radialGradient id="SVGID_25_" cx="1020.9401" cy="191.995" r="237.1672" gradientTransform="matrix(0.1822 0 0 -0.1828 -123.9002 86.9639)" gradientUnits="userSpaceOnUse">
	<stop  offset="0" style="stop-color:#555753"/>
	<stop  offset="0.9643" style="stop-color:#7E807C"/>
	<stop  offset="1" style="stop-color:#A8AAA6"/>
</radialGradient>
<path class="st27" d="M49.6,4.7C24.8,4.7,4.7,24.8,4.7,49.6s20.1,44.9,44.9,44.9s44.9-20.1,44.9-44.9S74.4,4.7,49.6,4.7L49.6,4.7z
	 M49.6,8.1c22.9,0,41.5,18.6,41.5,41.5S72.5,91.1,49.6,91.1S8.1,72.5,8.1,49.6S26.7,8.1,49.6,8.1L49.6,8.1z"/>
<g>
	
		<radialGradient id="SVGID_26_" cx="-65522.7891" cy="29609.8164" r="27.4608" gradientTransform="matrix(2.370100e-02 0 0 -2.283000e-02 1970.5206 857.062)" gradientUnits="userSpaceOnUse">
		<stop  offset="0" style="stop-color:#2E3436"/>
		<stop  offset="0.8214" style="stop-color:#505A5E"/>
		<stop  offset="1" style="stop-color:#2E3436"/>
	</radialGradient>
	<path class="st28" d="M54.4,49.6c0,2.7-2.2,4.8-4.8,4.8c-2.7,0-4.8-2.2-4.8-4.8c0,0,0,0,0,0c0-2.7,2.2-4.8,4.8-4.8
		C52.3,44.8,54.4,46.9,54.4,49.6C54.4,49.6,54.4,49.6,54.4,49.6z"/>
	<path class="st29" d="M52.5,49.6c0,1.6-1.3,2.9-2.9,2.9c-1.6,0-2.9-1.3-2.9-2.9c0,0,0,0,0,0c0-1.6,1.3-2.9,2.9-2.9
		C51.2,46.7,52.5,48,52.5,49.6C52.5,49.6,52.5,49.6,52.5,49.6z"/>
</g>
</svg>
